<svg width="170" height="95" viewBox="0 0 170 95" fill="none" xmlns="http://www.w3.org/2000/svg">
<path d="M35.7764 94.6384H9.8046C9.8046 94.6384 9.27814 86.929 12.3929 86.8413C15.5077 86.7537 15.1567 90.258 19.0614 85.4396C22.966 80.6213 27.7039 80.8841 28.3181 83.7314C28.9323 86.5787 27.1337 88.8563 30.424 88.1554C33.7142 87.4546 38.4525 89.2943 35.7764 94.6384Z" fill="#E6E6E6"/>
<path d="M22.3524 94.6402L22.2646 94.6367C22.4691 89.5611 23.5337 86.3003 24.391 84.4577C25.3216 82.4577 26.2184 81.6481 26.2275 81.6401L26.2859 81.7056C26.277 81.7135 25.3907 82.5151 24.4675 84.5016C23.615 86.3357 22.5561 89.5836 22.3524 94.6402Z" fill="white"/>
<path d="M31.7527 94.6506L31.6685 94.6261C32.3216 92.4749 33.499 90.5191 35.0952 88.9338L35.1542 88.9988C33.5698 90.573 32.4011 92.5149 31.7527 94.6506Z" fill="white"/>
<path d="M13.8956 94.6445L13.8086 94.6325C14.0918 92.7295 13.7922 90.7855 12.9491 89.0556C12.6035 88.33 12.146 87.6631 11.5933 87.0791L11.654 87.0159C12.2142 87.6069 12.6781 88.282 13.0286 89.0166C13.8792 90.7624 14.1815 92.7242 13.8956 94.6445Z" fill="white"/>
<path d="M39.3017 94.7556H7.00408L6.99669 94.6464C6.97822 94.3747 6.56611 87.9646 8.64625 85.6775C8.85263 85.4358 9.10739 85.24 9.39413 85.1027C9.68087 84.9653 9.99325 84.8893 10.3112 84.8798C11.667 84.8412 12.5191 85.3484 13.2065 85.7553C14.5019 86.5225 15.3576 87.0296 18.4692 83.1898C21.8398 79.0302 25.4768 78.1352 27.5675 78.6328C28.9183 78.9544 29.8493 79.8631 30.1218 81.1263C30.3804 82.3224 30.2977 83.4462 30.2315 84.3493C30.1608 85.3156 30.105 86.0786 30.5025 86.4246C30.835 86.7132 31.4965 86.7394 32.5863 86.5072C34.803 86.0351 37.8967 86.439 39.4493 88.4421C40.2846 89.5198 40.9428 91.4785 39.3342 94.6908L39.3017 94.7556ZM7.22445 94.5211H39.1563C40.355 92.093 40.3925 90.0418 39.2637 88.5856C37.8393 86.7481 34.851 86.2645 32.6353 86.7365C31.4511 86.9888 30.7456 86.9471 30.3483 86.6015C29.8623 86.1788 29.9219 85.3639 29.9973 84.3329C30.0623 83.4449 30.143 82.3396 29.8922 81.1763C29.6395 80.005 28.7722 79.1612 27.5128 78.8615C25.4888 78.3794 21.9527 79.263 18.6515 83.3377C15.4126 87.3348 14.4367 86.7571 13.0866 85.9567C12.3907 85.5447 11.6009 85.0775 10.3176 85.1138C10.0314 85.123 9.75029 85.1919 9.49234 85.3161C9.2344 85.4402 9.00534 85.6169 8.81989 85.8348C6.95088 87.8905 7.17883 93.6545 7.22464 94.5211H7.22445Z" fill="#2F2E41"/>
<path d="M144.833 94.8857H113.021L113.015 94.7077L111.496 51.3323H146.358L144.833 94.8857ZM113.378 94.5168H144.476L145.975 51.7011H111.878L113.378 94.5168Z" fill="#3F3D56"/>
<path d="M120.609 59.3691H118.189V89.2655H120.609V59.3691Z" fill="#3F3D56"/>
<path d="M130.136 59.3691H127.717V89.2655H130.136V59.3691Z" fill="#3F3D56"/>
<path d="M139.663 59.3691H137.244V89.2655H139.663V59.3691Z" fill="#3F3D56"/>
<path d="M166.572 64.0694L166.416 63.9709L126.901 39.0384L130.329 33.623L130.485 33.7216L170 58.654L166.572 64.0694ZM127.411 38.9237L166.457 63.5604L169.49 58.7689L130.444 34.1319L127.411 38.9237Z" fill="#3F3D56"/>
<path d="M157.032 37.0289C155.884 36.3031 154.551 35.9216 153.191 35.9296C151.832 35.9375 150.504 36.3347 149.364 37.0739C148.224 37.8131 147.32 38.8633 146.76 40.0999C146.2 41.3364 146.007 42.7075 146.204 44.0504L148.088 45.2392C147.615 44.1415 147.505 42.9212 147.777 41.7571C148.048 40.593 148.686 39.5461 149.596 38.7699C150.506 37.9937 151.641 37.5288 152.835 37.4433C154.029 37.3579 155.219 37.6564 156.231 38.2951C157.243 38.9337 158.024 39.8791 158.458 40.9927C158.893 42.1063 158.96 43.3296 158.648 44.4836C158.336 45.6375 157.662 46.6615 156.725 47.4055C155.788 48.1495 154.638 48.5745 153.441 48.6183L155.325 49.8071C156.625 49.4089 157.783 48.6467 158.661 47.6112C159.54 46.5756 160.102 45.3101 160.282 43.9649C160.462 42.6196 160.252 41.2511 159.676 40.0217C159.1 38.7923 158.183 37.7536 157.034 37.0289H157.032Z" fill="#3F3D56"/>
<path d="M167.912 94.6311H0V95H167.912V94.6311Z" fill="#3F3D56"/>
<path d="M73.3414 92.1141H70.6511L69.3706 81.7537H73.3421L73.3414 92.1141Z" fill="#FEB8B8"/>
<path d="M65.4629 94.608H73.9178V91.3464H68.6843C67.8299 91.3464 67.0105 91.6853 66.4064 92.2885C65.8023 92.8917 65.4629 93.7098 65.4629 94.5628V94.608Z" fill="#2F2E41"/>
<path d="M72.396 76.06L74.2517 78.0049L82.6477 71.7844L79.909 68.9141L72.396 76.06Z" fill="#FEB8B8"/>
<path d="M76.1632 78.896L72.552 75.1128L70.187 77.3633L76.0209 83.4751L76.0537 83.4439C76.3599 83.1525 76.6057 82.8037 76.777 82.4174C76.9482 82.0311 77.0416 81.6149 77.0518 81.1926C77.062 80.7703 76.9887 80.3501 76.8362 79.9561C76.6838 79.562 76.4551 79.2018 76.1632 78.896V78.896Z" fill="#2F2E41"/>
<path d="M53.6704 47.6757C53.5002 47.4022 53.392 47.0948 53.3536 46.775C53.3152 46.4553 53.3474 46.131 53.4481 45.8251C53.5487 45.5191 53.7153 45.239 53.9361 45.0042C54.1569 44.7695 54.4266 44.586 54.7261 44.4665L65.2883 17.5894L69.4053 20.0506L57.6722 45.8347C57.8399 46.3505 57.8122 46.9098 57.5944 47.4067C57.3766 47.9035 56.9838 48.3032 56.4904 48.5302C55.9971 48.7571 55.4376 48.7955 54.9178 48.638C54.398 48.4805 53.9542 48.1381 53.6704 47.6757Z" fill="#FEB8B8"/>
<path d="M93.7612 49.6022C93.4394 49.5793 93.1266 49.4861 92.8447 49.3293C92.5629 49.1725 92.3189 48.956 92.1299 48.6948C91.941 48.4337 91.8117 48.1343 91.7512 47.8179C91.6907 47.5015 91.7005 47.1757 91.7797 46.8634L76.1978 22.5421L80.6109 20.6609L94.6195 45.2872C95.1368 45.4542 95.5747 45.805 95.85 46.2731C96.1254 46.7411 96.219 47.2938 96.1131 47.8263C96.0073 48.3587 95.7092 48.8338 95.2757 49.1613C94.8421 49.4888 94.3032 49.646 93.7612 49.603V49.6022Z" fill="#FEB8B8"/>
<path d="M65.3926 44.9845L68.1507 85.913L74.7419 85.3324L76.0988 55.1363L79.7822 68.1047L87.7304 68.6853L84.5844 43.0488L65.3926 44.9845Z" fill="#2F2E41"/>
<path d="M80.9451 66.1692L79.7814 68.1048L71.6401 73.7179L77.4559 76.815C77.4559 76.815 88.6997 70.6211 87.7305 68.6854L80.9451 66.1692Z" fill="#2F2E41"/>
<path d="M59.6206 28.4253L61.915 21.97C62.4255 20.5337 63.2162 19.2128 64.2414 18.0836C65.2665 16.9544 66.5058 16.0394 67.8874 15.3916C70.9929 14.2493 74.3705 14.0647 77.5824 14.8617L78.4173 15.0687C80.6438 15.6075 82.7298 16.6134 84.5367 18.0196C85.9506 19.1325 87.2226 20.5416 87.3358 22.0573C87.3364 22.0605 87.3373 22.0637 87.3386 22.0667C87.7302 23.7805 87.924 32.6841 87.924 32.6841H84.4697L85.0161 44.6847L84.9719 44.5978C84.9719 44.5978 65.0486 48.3623 65.0486 46.4267V34.0385L64.6402 29.5531L59.6206 28.4253Z" fill="#CCCCCC"/>
<path d="M78.2169 13.1836C81.2662 13.1836 83.7381 10.7155 83.7381 7.67103C83.7381 4.62651 81.2662 2.15845 78.2169 2.15845C75.1677 2.15845 72.6958 4.62651 72.6958 7.67103C72.6958 10.7155 75.1677 13.1836 78.2169 13.1836Z" fill="#FEB8B8"/>
<path d="M79.0442 5.19896L83.3312 5.37048C83.8706 5.36882 84.4595 5.34983 84.8703 5.00161C85.4891 4.47616 85.3855 3.48464 85.0541 2.74394C84.1305 0.681592 82.0703 -0.0572533 79.808 0.00342578C77.5457 0.0641049 75.1752 0.829693 73.9569 2.73306C72.7387 4.63643 72.4095 7.03999 72.8684 9.25173C73.3988 8.12709 74.2155 7.16104 75.2368 6.45002C76.258 5.739 77.4482 5.30788 78.6886 5.1997L79.0442 5.19896Z" fill="#2F2E41"/>
<path d="M104.501 59.1195L88.9845 48.2613C88.8404 48.16 88.7423 48.0058 88.7117 47.8324C88.6812 47.6591 88.7207 47.4807 88.8216 47.3364L101.001 29.986C101.102 29.8421 101.256 29.7442 101.43 29.7137C101.604 29.6832 101.782 29.7226 101.927 29.8234L117.444 40.6816C117.588 40.7829 117.686 40.9371 117.717 41.1104C117.747 41.2838 117.708 41.4622 117.607 41.6065L105.428 58.9564C105.327 59.1005 105.172 59.1986 104.999 59.2291C104.825 59.2597 104.646 59.2203 104.501 59.1195Z" fill="#1A3148"/>
<path d="M107.991 47.3376L98.8859 40.9662C98.7806 40.8925 98.6909 40.7988 98.6219 40.6905C98.5528 40.5822 98.5058 40.4614 98.4836 40.335C98.4613 40.2085 98.4642 40.0789 98.4921 39.9536C98.5199 39.8283 98.5723 39.7097 98.6461 39.6045C98.7199 39.4994 98.8137 39.4098 98.9222 39.3409C99.0306 39.2719 99.1516 39.225 99.2783 39.2028C99.4049 39.1805 99.5347 39.1834 99.6602 39.2113C99.7857 39.2391 99.9046 39.2913 100.01 39.365L109.115 45.7365C109.328 45.8853 109.472 46.1123 109.517 46.3677C109.562 46.623 109.504 46.8858 109.355 47.0981C109.206 47.3104 108.978 47.455 108.723 47.4999C108.467 47.5448 108.204 47.4864 107.991 47.3376Z" fill="white"/>
<path d="M105.901 50.3144L96.7963 43.943C96.6909 43.8694 96.601 43.7757 96.5319 43.6674C96.4627 43.5591 96.4156 43.4382 96.3933 43.3117C96.371 43.1852 96.3738 43.0555 96.4017 42.9301C96.4295 42.8047 96.4819 42.686 96.5557 42.5808C96.6296 42.4757 96.7234 42.386 96.832 42.3171C96.9405 42.2481 97.0616 42.2012 97.1884 42.179C97.3151 42.1568 97.4449 42.1598 97.5705 42.1877C97.6961 42.2156 97.8149 42.268 97.9202 42.3418L107.025 48.7132C107.238 48.8621 107.382 49.0892 107.427 49.3444C107.472 49.5996 107.413 49.8622 107.264 50.0744C107.115 50.2866 106.888 50.4311 106.633 50.4761C106.377 50.5211 106.114 50.4629 105.901 50.3144Z" fill="white"/>
<path d="M103.789 53.3234L94.6843 46.952C94.579 46.8783 94.4892 46.7847 94.4202 46.6764C94.3512 46.5681 94.3042 46.4472 94.2819 46.3208C94.2596 46.1944 94.2625 46.0648 94.2904 45.9394C94.3183 45.8141 94.3706 45.6955 94.4444 45.5904C94.5182 45.4852 94.612 45.3956 94.7205 45.3267C94.829 45.2578 94.95 45.2108 95.0766 45.1886C95.2033 45.1664 95.333 45.1693 95.4586 45.1971C95.5841 45.2249 95.7029 45.2772 95.8082 45.3509L104.913 51.7223C105.126 51.8711 105.271 52.0981 105.316 52.3535C105.361 52.6089 105.302 52.8716 105.153 53.0839C105.004 53.2963 104.777 53.4408 104.521 53.4857C104.265 53.5306 104.002 53.4722 103.789 53.3234V53.3234Z" fill="white"/>
<path d="M107.965 41.4484L104.438 38.9806C104.333 38.907 104.243 38.8133 104.174 38.705C104.105 38.5967 104.058 38.4758 104.035 38.3493C104.013 38.2228 104.016 38.0931 104.044 37.9677C104.072 37.8423 104.124 37.7236 104.198 37.6184C104.272 37.5132 104.366 37.4236 104.474 37.3547C104.583 37.2857 104.704 37.2388 104.83 37.2166C104.957 37.1944 105.087 37.1974 105.213 37.2253C105.338 37.2532 105.457 37.3056 105.562 37.3794L109.089 39.8473C109.302 39.9961 109.446 40.2231 109.491 40.4785C109.536 40.7339 109.478 40.9966 109.329 41.2089C109.18 41.4213 108.952 41.5658 108.697 41.6107C108.441 41.6556 108.178 41.5972 107.965 41.4484Z" fill="white"/>
</svg>
