<svg width="28" height="28" viewBox="0 0 28 28" fill="none" xmlns="http://www.w3.org/2000/svg">
<g opacity="0.5">
<path d="M18.5 11H12.5C11.6716 11 11 11.6716 11 12.5V18.5C11 19.3284 11.6716 20 12.5 20H18.5C19.3284 20 20 19.3284 20 18.5V12.5C20 11.6716 19.3284 11 18.5 11Z" stroke="#2C3E50" stroke-linecap="round" stroke-linejoin="round"/>
<path d="M17 11V9.5C17 9.10218 16.842 8.72064 16.5607 8.43934C16.2794 8.15804 15.8978 8 15.5 8H9.5C9.10218 8 8.72064 8.15804 8.43934 8.43934C8.15804 8.72064 8 9.10218 8 9.5V15.5C8 15.8978 8.15804 16.2794 8.43934 16.5607C8.72064 16.842 9.10218 17 9.5 17H11" stroke="#2C3E50" stroke-linecap="round" stroke-linejoin="round"/>
</g>
</svg>
