<svg width="113" height="132" viewBox="0 0 113 132" fill="none" xmlns="http://www.w3.org/2000/svg">
<g clip-path="url(#clip0)">
<path d="M26.65 53.8746C30.9289 53.8746 34.3977 50.416 34.3977 46.1497C34.3977 41.8834 30.9289 38.4248 26.65 38.4248C22.3711 38.4248 18.9023 41.8834 18.9023 46.1497C18.9023 50.416 22.3711 53.8746 26.65 53.8746Z" fill="#2F2E41"/>
<path d="M27.3 53.889C30.8032 53.889 33.6431 51.0575 33.6431 47.5646C33.6431 44.0718 30.8032 41.2402 27.3 41.2402C23.7969 41.2402 20.957 44.0718 20.957 47.5646C20.957 51.0575 23.7969 53.889 27.3 53.889Z" fill="#ECD1A8"/>
<path d="M51.4571 66.8018C51.3564 66.9029 51.2638 67.0117 51.1803 67.1273L38.3806 66.6764L36.9166 63.939L32.4844 65.6019L34.6036 70.7003C34.7748 71.1121 35.0754 71.4574 35.4601 71.6844C35.8449 71.9114 36.2932 72.0078 36.7376 71.9592L51.2218 70.3735C51.5584 70.8082 52.0197 71.1304 52.5444 71.2972C53.0691 71.464 53.6323 71.4676 54.1591 71.3075C54.6859 71.1473 55.1513 70.8311 55.4934 70.4007C55.8355 69.9704 56.0381 69.4464 56.0742 68.8985C56.1103 68.3505 55.9782 67.8046 55.6955 67.3334C55.4129 66.8621 54.993 66.4879 54.4917 66.2604C53.9905 66.0329 53.4316 65.963 52.8895 66.0599C52.3474 66.1569 51.8478 66.4161 51.4571 66.8031V66.8018Z" fill="#ECD1A8"/>
<path d="M30.7789 68.0634C30.6158 67.9905 30.4704 67.8833 30.3526 67.7493C30.2348 67.6152 30.1474 67.4574 30.0964 67.2865L28.3144 61.3206C28.1208 60.9112 28.01 60.4679 27.9883 60.0158C27.9666 59.5637 28.0345 59.1118 28.1881 58.6859C28.3417 58.26 28.5779 57.8685 28.8834 57.5337C29.1888 57.1988 29.5574 56.9273 29.9681 56.7346C30.3788 56.5419 30.8236 56.4318 31.277 56.4105C31.7305 56.3893 32.1836 56.4574 32.6107 56.6108C33.0377 56.7643 33.4302 57.0002 33.7657 57.305C34.1013 57.6098 34.3733 57.9775 34.5663 58.3872L38.0197 63.5976C38.1182 63.7464 38.1834 63.9145 38.2109 64.0906C38.2384 64.2667 38.2275 64.4467 38.179 64.6183C38.1304 64.7898 38.0454 64.9489 37.9296 65.0847C37.8138 65.2205 37.67 65.3299 37.508 65.4053L31.8158 68.0546C31.6539 68.1302 31.4775 68.1699 31.2987 68.1713C31.12 68.1726 30.943 68.1355 30.78 68.0624L30.7789 68.0634Z" fill="#1A3148"/>
<path d="M43.3858 128.634L46.1667 127.124L41.6511 115.711L37.5469 117.939L43.3858 128.634Z" fill="#ECD1A8"/>
<path d="M42.1826 128.113L47.6589 125.141C48.1172 124.892 48.6202 124.736 49.1391 124.681C49.658 124.626 50.1826 124.673 50.6831 124.821C51.1836 124.968 51.6501 125.212 52.056 125.539C52.4618 125.866 52.7992 126.269 53.0486 126.726L53.0487 126.727L53.1104 126.84L44.1438 131.706L42.1826 128.113Z" fill="#2F2E41"/>
<path d="M12.7862 128.646H15.9522L17.4586 116.469H12.7842L12.7862 128.646Z" fill="#ECD1A8"/>
<path d="M11.9785 127.615H18.2141C19.2679 127.615 20.2786 128.033 21.0238 128.776C21.769 129.519 22.1876 130.526 22.1876 131.577V131.706H11.9788L11.9785 127.615Z" fill="#2F2E41"/>
<path d="M32.4608 74.6037L33.4938 86.9636L45.0169 121.431C45.1035 121.69 45.0834 121.973 44.9608 122.217C44.8383 122.462 44.6235 122.647 44.3635 122.734C44.3348 122.743 44.3057 122.752 44.2762 122.759L40.7446 123.597C40.5184 123.651 40.2806 123.627 40.0696 123.529C39.8587 123.432 39.6871 123.266 39.5824 123.059L24.8508 93.9211C24.8027 93.8262 24.7264 93.7484 24.6323 93.6985C24.5382 93.6485 24.4308 93.6288 24.325 93.6421C24.2192 93.6554 24.1202 93.701 24.0414 93.7727C23.9626 93.8443 23.908 93.9386 23.8851 94.0424L17.4029 123.49C17.3524 123.72 17.2248 123.925 17.0413 124.072C16.8578 124.219 16.6294 124.299 16.3939 124.299H13.1074C12.9719 124.3 12.8378 124.273 12.7126 124.222C12.5874 124.17 12.4736 124.095 12.3776 123.999C12.2817 123.904 12.2055 123.791 12.1535 123.666C12.1014 123.542 12.0745 123.408 12.0742 123.273C12.0742 123.267 12.0743 123.261 12.0743 123.255C12.3755 102.836 11.3822 79.5703 19.289 75.8899L20.5802 72.5425L32.4608 74.6037Z" fill="black"/>
<path d="M20.2084 73.4192L18.8774 65.3913C18.657 64.0747 18.7726 62.724 19.2135 61.4637C19.6544 60.2034 20.4064 59.0741 21.4003 58.1798C22.3717 57.2941 23.5511 56.6666 24.8298 56.3549C26.1085 56.0433 27.4452 56.0576 28.7169 56.3967C28.7923 56.4168 28.868 56.4376 28.9436 56.4587C30.5081 56.9057 31.8973 57.8205 32.9236 59.0798C33.9499 60.339 34.5639 61.8819 34.6826 63.5002C34.9367 66.9867 34.7084 72.045 32.1832 76.3415L32.1341 76.425L20.2084 73.4192Z" fill="#1A3148"/>
<path d="M33.6103 44.2035C32.1608 45.1997 30.4403 45.7298 28.6799 45.7227C29.3079 46.1568 30.0228 46.4501 30.7754 46.5822C28.4348 47.0828 26.0158 47.0964 23.6697 46.6221C23.1482 46.5388 22.645 46.3665 22.1822 46.1128C21.9516 45.9844 21.7506 45.809 21.5924 45.598C21.4343 45.3871 21.3224 45.1453 21.2641 44.8884C21.1091 44.0003 21.802 43.1936 22.5234 42.65C23.6275 41.8302 24.9006 41.2654 26.2506 40.9965C27.6005 40.7275 28.9935 40.761 30.3289 41.0947C31.2007 41.3195 32.0742 41.6991 32.6405 42.3974C33.2069 43.0957 33.3747 44.172 32.835 44.891L33.6103 44.2035Z" fill="#2F2E41"/>
<path d="M26.5479 38.3865C27.2832 35.4253 24.6479 32.1376 21.5894 32.1991C18.487 32.2617 16.2038 35.0573 14.6343 37.726C13.0649 40.3947 11.5056 43.421 8.62501 44.5702C7.67158 44.9505 6.63841 45.0889 5.61814 44.973C4.59786 44.8572 3.62236 44.4907 2.7791 43.9065C1.93584 43.3222 1.25117 42.5384 0.786469 41.6254C0.321773 40.7124 0.0915762 39.6987 0.116517 38.6751C-0.270867 41.9178 0.265533 45.4264 2.36334 47.9347C4.46115 50.443 8.36339 51.5731 11.1698 49.8875C12.771 48.9248 13.7961 47.2516 14.6403 45.5874C15.4845 43.9232 16.2358 42.1681 17.5149 40.8072C18.7941 39.4463 20.772 38.5433 22.5525 39.1157C23.2591 39.3431 23.8931 39.7852 24.6232 39.9206C25.3532 40.0561 26.2724 39.7095 26.3721 38.9759L26.5479 38.3865Z" fill="#2F2E41"/>
<path d="M11.2596 92.0596C10.9963 91.7519 10.8039 91.3905 10.6959 91.0007C10.5879 90.6108 10.5669 90.2022 10.6344 89.8034C10.702 89.4046 10.8564 89.0255 11.0868 88.6927C11.3172 88.3598 11.618 88.0814 11.9679 87.877L17.4701 63.2861L23.0518 65.5704L15.8885 89.0234C16.1956 89.6326 16.2676 90.3329 16.0907 90.9915C15.9139 91.6501 15.5006 92.221 14.9293 92.5956C14.3581 92.9703 13.6687 93.1227 12.9921 93.0239C12.3156 92.9251 11.699 92.5819 11.2596 92.0596Z" fill="#ECD1A8"/>
<path d="M15.2905 66.8148C15.2025 66.6595 15.1492 66.487 15.1342 66.3092C15.1193 66.1315 15.143 65.9526 15.2037 65.7848L17.3196 59.928C17.4977 59.0319 18.0255 58.2429 18.787 57.7348C19.5485 57.2267 20.4812 57.041 21.38 57.2185C22.2788 57.3961 23.0701 57.9224 23.5797 58.6816C24.0893 59.4409 24.2756 60.3709 24.0975 61.267L23.776 67.5041C23.7668 67.6821 23.7193 67.8561 23.6366 68.0141C23.5539 68.1721 23.438 68.3105 23.2969 68.4199C23.1557 68.5292 22.9925 68.607 22.8185 68.6478C22.6445 68.6886 22.4637 68.6915 22.2884 68.6564L16.129 67.4204C15.9538 67.3853 15.7881 67.313 15.6434 67.2082C15.4988 67.1035 15.3785 66.9688 15.2908 66.8135L15.2905 66.8148Z" fill="#1A3148"/>
<path d="M77.5497 0.942178C77.4324 0.664708 77.2361 0.427588 76.9852 0.260137C76.7342 0.0926851 76.4395 0.00224493 76.1375 0H47.9461C47.5409 0.000204689 47.1523 0.160794 46.8658 0.446481C46.5792 0.732169 46.4182 1.11959 46.418 1.52361V37.0826C46.4182 37.4866 46.5792 37.874 46.8658 38.1597C47.1523 38.4454 47.5409 38.606 47.9461 38.6062H76.1375C76.5426 38.6056 76.931 38.4449 77.2174 38.1593C77.5039 37.8737 77.6651 37.4865 77.6656 37.0826V1.52412C77.6663 1.32437 77.6269 1.12649 77.5497 0.942178ZM77.3263 37.0823C77.3257 37.3963 77.2003 37.6972 76.9776 37.9192C76.755 38.1412 76.4532 38.2662 76.1383 38.2668H47.9461C47.631 38.2668 47.3288 38.142 47.1061 37.9199C46.8833 37.6977 46.7581 37.3965 46.7581 37.0823V1.52412C46.7587 1.21017 46.8841 0.909241 47.1067 0.68724C47.3294 0.465239 47.6312 0.34025 47.9461 0.339638H76.1375C76.3751 0.340611 76.6069 0.412175 76.8035 0.545188C77.0001 0.6782 77.1524 0.866619 77.241 1.08638C77.2583 1.1301 77.2732 1.17471 77.2857 1.22002C77.3128 1.31975 77.3265 1.42261 77.3265 1.52592L77.3263 37.0823Z" fill="#CCCCCC"/>
<path d="M71.6659 8.3957H63.1745C62.9943 8.3957 62.8215 8.32434 62.6941 8.19732C62.5667 8.07029 62.4951 7.898 62.4951 7.71836C62.4951 7.53872 62.5667 7.36643 62.6941 7.23941C62.8215 7.11238 62.9943 7.04102 63.1745 7.04102H71.6656C71.8435 7.04447 72.0129 7.11736 72.1375 7.24401C72.2621 7.37066 72.3319 7.54097 72.3319 7.71836C72.3319 7.89575 72.2621 8.06606 72.1375 8.19271C72.0129 8.31936 71.8435 8.39225 71.6656 8.3957H71.6659Z" fill="#CCCCCC"/>
<path d="M71.6659 11.9519H63.1745C62.9943 11.9519 62.8215 11.8805 62.6941 11.7535C62.5667 11.6264 62.4951 11.4542 62.4951 11.2745C62.4951 11.0949 62.5667 10.9226 62.6941 10.7956C62.8215 10.6685 62.9943 10.5972 63.1745 10.5972H71.6656C71.8435 10.6006 72.0129 10.6735 72.1375 10.8002C72.2621 10.9268 72.3319 11.0971 72.3319 11.2745C72.3319 11.4519 72.2621 11.6222 72.1375 11.7489C72.0129 11.8755 71.8435 11.9484 71.6656 11.9519H71.6659Z" fill="#CCCCCC"/>
<path d="M58.8185 13.9765H52.6118C52.4092 13.9763 52.215 13.896 52.0717 13.7531C51.9284 13.6103 51.8479 13.4166 51.8477 13.2146V5.9133C51.8479 5.71128 51.9284 5.5176 52.0717 5.37476C52.215 5.23191 52.4092 5.15157 52.6118 5.15137H58.8185C59.0211 5.15164 59.2153 5.232 59.3585 5.37483C59.5018 5.51766 59.5824 5.71131 59.5827 5.9133V13.2146C59.5825 13.4166 59.5019 13.6103 59.3586 13.7531C59.2153 13.896 59.0211 13.9763 58.8185 13.9765Z" fill="#CCCCCC"/>
<path d="M71.6068 19.2331H52.4166C52.2365 19.2331 52.0637 19.1617 51.9363 19.0347C51.8089 18.9077 51.7373 18.7354 51.7373 18.5558C51.7373 18.3761 51.8089 18.2038 51.9363 18.0768C52.0637 17.9498 52.2365 17.8784 52.4166 17.8784H71.6068C71.787 17.8784 71.9598 17.9498 72.0872 18.0768C72.2146 18.2038 72.2862 18.3761 72.2862 18.5558C72.2862 18.7354 72.2146 18.9077 72.0872 19.0347C71.9598 19.1617 71.787 19.2331 71.6068 19.2331Z" fill="#CCCCCC"/>
<path d="M71.6068 22.7897H52.4166C52.2365 22.7897 52.0637 22.7184 51.9363 22.5914C51.8089 22.4643 51.7373 22.2921 51.7373 22.1124C51.7373 21.9328 51.8089 21.7605 51.9363 21.6335C52.0637 21.5064 52.2365 21.4351 52.4166 21.4351H71.6068C71.787 21.4351 71.9598 21.5064 72.0872 21.6335C72.2146 21.7605 72.2862 21.9328 72.2862 22.1124C72.2862 22.2921 72.2146 22.4643 72.0872 22.5914C71.9598 22.7184 71.787 22.7897 71.6068 22.7897Z" fill="#CCCCCC"/>
<path d="M71.6068 26.3449H52.4166C52.2365 26.3449 52.0637 26.2736 51.9363 26.1465C51.8089 26.0195 51.7373 25.8472 51.7373 25.6676C51.7373 25.4879 51.8089 25.3157 51.9363 25.1886C52.0637 25.0616 52.2365 24.9902 52.4166 24.9902H71.6068C71.787 24.9902 71.9598 25.0616 72.0872 25.1886C72.2146 25.3157 72.2862 25.4879 72.2862 25.6676C72.2862 25.8472 72.2146 26.0195 72.0872 26.1465C71.9598 26.2736 71.787 26.3449 71.6068 26.3449Z" fill="#CCCCCC"/>
<path d="M71.6068 29.9016H52.4166C52.2365 29.9016 52.0637 29.8302 51.9363 29.7032C51.8089 29.5762 51.7373 29.4039 51.7373 29.2242C51.7373 29.0446 51.8089 28.8723 51.9363 28.7453C52.0637 28.6182 52.2365 28.5469 52.4166 28.5469H71.6068C71.787 28.5469 71.9598 28.6182 72.0872 28.7453C72.2146 28.8723 72.2862 29.0446 72.2862 29.2242C72.2862 29.4039 72.2146 29.5762 72.0872 29.7032C71.9598 29.8302 71.787 29.9016 71.6068 29.9016Z" fill="#CCCCCC"/>
<path d="M71.6068 33.4567H52.4166C52.2365 33.4567 52.0637 33.3854 51.9363 33.2584C51.8089 33.1313 51.7373 32.959 51.7373 32.7794C51.7373 32.5998 51.8089 32.4275 51.9363 32.3004C52.0637 32.1734 52.2365 32.1021 52.4166 32.1021H71.6068C71.787 32.1021 71.9598 32.1734 72.0872 32.3004C72.2146 32.4275 72.2862 32.5998 72.2862 32.7794C72.2862 32.959 72.2146 33.1313 72.0872 33.2584C71.9598 33.3854 71.787 33.4567 71.6068 33.4567Z" fill="#CCCCCC"/>
<path d="M94.5752 21.9381C94.4262 21.5854 94.1767 21.284 93.8577 21.0712C93.5387 20.8583 93.1641 20.7435 92.7803 20.7407H56.9538C56.4388 20.741 55.945 20.9451 55.5808 21.3082C55.2167 21.6713 55.012 22.1636 55.0117 22.6771V67.8677C55.012 68.3812 55.2167 68.8736 55.5808 69.2366C55.945 69.5997 56.4388 69.8038 56.9538 69.8041H92.7816C93.2964 69.8034 93.79 69.5992 94.1541 69.2362C94.5181 68.8732 94.723 68.3811 94.7237 67.8677V22.6771C94.7245 22.4234 94.6745 22.1722 94.5765 21.9381H94.5752Z" fill="#E6E6E6"/>
<path d="M91.6591 67.2667H58.1776C57.6952 67.2662 57.3174 66.7399 57.3174 66.0686V24.1483C57.3179 23.4764 57.6959 22.9502 58.1776 22.9502H91.6591C92.1418 22.9508 92.5196 23.477 92.5196 24.1483V66.0686C92.5191 66.7404 92.141 67.2667 91.6591 67.2667Z" fill="white"/>
<path d="M94.5752 21.9381C94.4262 21.5854 94.1767 21.284 93.8577 21.0712C93.5387 20.8583 93.1641 20.7435 92.7803 20.7407H56.9538C56.4388 20.741 55.945 20.9451 55.5808 21.3082C55.2167 21.6713 55.012 22.1636 55.0117 22.6771V67.8677C55.012 68.3812 55.2167 68.8736 55.5808 69.2366C55.945 69.5997 56.4388 69.8038 56.9538 69.8041H92.7816C93.2964 69.8034 93.79 69.5992 94.1541 69.2362C94.5181 68.8732 94.723 68.3811 94.7237 67.8677V22.6771C94.7245 22.4234 94.6745 22.1722 94.5765 21.9381H94.5752ZM94.2911 67.8677C94.2906 68.2671 94.1313 68.6499 93.848 68.9323C93.5648 69.2147 93.1808 69.3736 92.7803 69.3741H56.9538C56.5532 69.374 56.1691 69.2153 55.8858 68.933C55.6025 68.6506 55.4432 68.2676 55.443 67.8682V22.6774C55.4435 22.278 55.6029 21.8952 55.8861 21.6128C56.1693 21.3304 56.5533 21.1715 56.9538 21.171H92.7816C93.0833 21.1721 93.3778 21.2629 93.6276 21.4317C93.8774 21.6004 94.071 21.8396 94.1839 22.1186C94.2059 22.1742 94.2249 22.2309 94.2407 22.2885C94.275 22.4153 94.2924 22.5461 94.2924 22.6774L94.2911 67.8677Z" fill="#3F3D56"/>
<path d="M87.0992 31.4101H76.3077C76.0787 31.4101 75.8591 31.3194 75.6972 31.158C75.5353 30.9965 75.4443 30.7776 75.4443 30.5493C75.4443 30.321 75.5353 30.102 75.6972 29.9406C75.8591 29.7792 76.0787 29.6885 76.3077 29.6885H87.0992C87.3281 29.6885 87.5477 29.7792 87.7096 29.9406C87.8715 30.102 87.9625 30.321 87.9625 30.5493C87.9625 30.7776 87.8715 30.9965 87.7096 31.158C87.5477 31.3194 87.3281 31.4101 87.0992 31.4101Z" fill="#3F3D56"/>
<path d="M87.0992 35.9291H76.3077C76.0787 35.9291 75.8591 35.8384 75.6972 35.677C75.5353 35.5156 75.4443 35.2966 75.4443 35.0683C75.4443 34.84 75.5353 34.6211 75.6972 34.4596C75.8591 34.2982 76.0787 34.2075 76.3077 34.2075H87.0992C87.3281 34.2075 87.5477 34.2982 87.7096 34.4596C87.8715 34.6211 87.9625 34.84 87.9625 35.0683C87.9625 35.2966 87.8715 35.5156 87.7096 35.677C87.5477 35.8384 87.3281 35.9291 87.0992 35.9291Z" fill="#3F3D56"/>
<path d="M70.7707 38.5022H62.8844C62.6269 38.5019 62.38 38.3998 62.1979 38.2182C62.0158 38.0367 61.9134 37.7905 61.9131 37.5337V28.2546C61.9134 27.9978 62.0158 27.7516 62.1979 27.5701C62.38 27.3885 62.6269 27.2864 62.8844 27.2861H70.7707C71.0282 27.2864 71.2751 27.3885 71.4572 27.5701C71.6393 27.7516 71.7417 27.9978 71.742 28.2546V37.5337C71.7417 37.7905 71.6393 38.0367 71.4572 38.2182C71.2751 38.3998 71.0282 38.5019 70.7707 38.5022Z" fill="#1A3148"/>
<path d="M87.0244 45.1826H62.6358C62.4068 45.1826 62.1872 45.0919 62.0253 44.9304C61.8634 44.769 61.7725 44.55 61.7725 44.3217C61.7725 44.0934 61.8634 43.8745 62.0253 43.7131C62.1872 43.5516 62.4068 43.4609 62.6358 43.4609H87.0244C87.2534 43.4609 87.473 43.5516 87.6349 43.7131C87.7968 43.8745 87.8878 44.0934 87.8878 44.3217C87.8878 44.55 87.7968 44.769 87.6349 44.9304C87.473 45.0919 87.2534 45.1826 87.0244 45.1826Z" fill="#E6E6E6"/>
<path d="M87.0249 49.7016H62.6362C62.4073 49.7022 62.1874 49.6121 62.0251 49.4512C61.8627 49.2902 61.7711 49.0715 61.7705 48.8432C61.7699 48.6149 61.8602 48.3957 62.0217 48.2338C62.1831 48.0719 62.4025 47.9806 62.6315 47.98H87.0249C87.2538 47.98 87.4734 48.0707 87.6353 48.2321C87.7972 48.3935 87.8882 48.6125 87.8882 48.8408C87.8882 49.0691 87.7972 49.288 87.6353 49.4495C87.4734 49.6109 87.2538 49.7016 87.0249 49.7016Z" fill="#E6E6E6"/>
<path d="M87.0244 54.2206H62.6358C62.4068 54.2206 62.1872 54.13 62.0253 53.9685C61.8634 53.8071 61.7725 53.5881 61.7725 53.3598C61.7725 53.1315 61.8634 52.9126 62.0253 52.7512C62.1872 52.5897 62.4068 52.499 62.6358 52.499H87.0244C87.2534 52.4984 87.4733 52.5885 87.6356 52.7495C87.798 52.9105 87.8895 53.1292 87.8902 53.3575C87.8908 53.5858 87.8005 53.8049 87.639 53.9668C87.4775 54.1287 87.2582 54.22 87.0292 54.2206H87.0244Z" fill="#E6E6E6"/>
<path d="M87.0249 58.7397H62.6362C62.5229 58.74 62.4106 58.718 62.3057 58.6751C62.2008 58.6321 62.1055 58.569 62.0251 58.4893C61.9447 58.4095 61.8808 58.3148 61.8371 58.2105C61.7935 58.1062 61.7708 57.9943 61.7705 57.8813C61.7702 57.7682 61.7922 57.6562 61.8353 57.5517C61.8784 57.4471 61.9417 57.352 62.0217 57.2719C62.1016 57.1917 62.1966 57.1281 62.3013 57.0845C62.4059 57.041 62.5181 57.0184 62.6315 57.0181H87.0249C87.2538 57.0181 87.4734 57.1088 87.6353 57.2702C87.7972 57.4316 87.8882 57.6506 87.8882 57.8789C87.8882 58.1072 87.7972 58.3261 87.6353 58.4876C87.4734 58.649 87.2538 58.7397 87.0249 58.7397Z" fill="#E6E6E6"/>
<path d="M87.0249 63.2587H62.6362C62.4073 63.2594 62.1874 63.1693 62.0251 63.0083C61.8627 62.8473 61.7711 62.6286 61.7705 62.4003C61.7699 62.172 61.8602 61.9528 62.0217 61.7909C62.1831 61.629 62.4025 61.5377 62.6315 61.5371H87.0249C87.2538 61.5371 87.4734 61.6278 87.6353 61.7892C87.7972 61.9507 87.8882 62.1696 87.8882 62.3979C87.8882 62.6262 87.7972 62.8452 87.6353 63.0066C87.4734 63.168 87.2538 63.2587 87.0249 63.2587Z" fill="#E6E6E6"/>
<path d="M99.0542 31.3189C106.756 31.3189 113 25.0935 113 17.4141C113 9.73467 106.756 3.50928 99.0542 3.50928C91.3521 3.50928 85.1084 9.73467 85.1084 17.4141C85.1084 25.0935 91.3521 31.3189 99.0542 31.3189Z" fill="#1A3148"/>
<path d="M101.251 17.8752V10.2041H97.2884V17.8752H95.4385L97.3537 21.1827L99.2694 24.4908L101.185 21.1827L103.101 17.8747L101.251 17.8752Z" fill="white"/>
<path d="M104.239 132H5.84322C5.77472 132 5.70903 131.973 5.6606 131.924C5.61217 131.876 5.58496 131.811 5.58496 131.742C5.58496 131.674 5.61217 131.609 5.6606 131.56C5.70903 131.512 5.77472 131.485 5.84322 131.485H104.239C104.307 131.485 104.373 131.512 104.421 131.56C104.47 131.609 104.497 131.674 104.497 131.742C104.497 131.811 104.47 131.876 104.421 131.924C104.373 131.973 104.307 132 104.239 132Z" fill="#E6E6E6"/>
<path d="M95.8322 129.71C93.3529 131.491 90.1405 131.58 87.0352 131.361C86.6016 131.331 86.1711 131.295 85.7439 131.257H85.7354C85.715 131.254 85.6943 131.253 85.6747 131.251L85.4113 131.226L85.4319 131.265L85.4965 131.386C85.4733 131.346 85.45 131.306 85.4268 131.265C85.4201 131.253 85.4123 131.241 85.4056 131.228C84.6011 129.833 83.8044 128.386 83.5999 126.792C83.3894 125.137 83.9808 123.264 85.441 122.451C85.6324 122.345 85.8352 122.26 86.0456 122.199C86.1328 122.173 86.2213 122.151 86.311 122.132C86.8588 122.01 87.429 122.037 87.9631 122.208C88.4973 122.379 88.976 122.689 89.3501 123.106C89.7241 123.523 89.9801 124.032 90.0915 124.58C90.203 125.129 90.1659 125.697 89.9842 126.226C91.2223 124.96 90.9914 122.907 90.5643 121.19C90.1371 119.474 89.6183 117.565 90.4886 116.023C90.735 115.61 91.0664 115.253 91.461 114.977C91.8556 114.7 92.3044 114.51 92.778 114.419C92.8072 114.412 92.8366 114.406 92.8658 114.401C94.0034 114.171 95.186 114.377 96.1775 114.979C98.0031 116.126 98.9408 118.301 99.245 120.431C99.7357 123.859 98.6505 127.686 95.8322 129.71Z" fill="#F2F2F2"/>
</g>
<defs>
<clipPath id="clip0">
<rect width="113" height="132" fill="white"/>
</clipPath>
</defs>
</svg>
