<svg width="20" height="21" viewBox="0 0 20 21" fill="none" xmlns="http://www.w3.org/2000/svg">
<path d="M11.667 3V6.33333C11.667 6.55435 11.7548 6.76631 11.9111 6.92259C12.0674 7.07887 12.2793 7.16667 12.5003 7.16667H15.8337" stroke="white" stroke-linecap="round" stroke-linejoin="round"/>
<path d="M14.167 18H5.83366C5.39163 18 4.96771 17.8244 4.65515 17.5118C4.34259 17.1993 4.16699 16.7754 4.16699 16.3333V4.66667C4.16699 4.22464 4.34259 3.80072 4.65515 3.48816C4.96771 3.17559 5.39163 3 5.83366 3H11.667L15.8337 7.16667V16.3333C15.8337 16.7754 15.6581 17.1993 15.3455 17.5118C15.0329 17.8244 14.609 18 14.167 18Z" stroke="white" stroke-linecap="round" stroke-linejoin="round"/>
<path d="M10 9.6665V14.6665" stroke="white" stroke-linecap="round" stroke-linejoin="round"/>
<path d="M7.5 12.1665L10 14.6665L12.5 12.1665" stroke="white" stroke-linecap="round" stroke-linejoin="round"/>
</svg>
