<svg width="33" height="33" viewBox="0 0 33 33" fill="none" xmlns="http://www.w3.org/2000/svg">
<path d="M19.25 4.125V9.625C19.25 9.98967 19.3949 10.3394 19.6527 10.5973C19.9106 10.8551 20.2603 11 20.625 11H26.125" stroke="white" stroke-width="2" stroke-linecap="round" stroke-linejoin="round"/>
<path d="M23.375 28.875H9.625C8.89565 28.875 8.19618 28.5853 7.68046 28.0695C7.16473 27.5538 6.875 26.8543 6.875 26.125V6.875C6.875 6.14565 7.16473 5.44618 7.68046 4.93046C8.19618 4.41473 8.89565 4.125 9.625 4.125H19.25L26.125 11V26.125C26.125 26.8543 25.8353 27.5538 25.3195 28.0695C24.8038 28.5853 24.1043 28.875 23.375 28.875Z" stroke="white" stroke-width="2" stroke-linecap="round" stroke-linejoin="round"/>
<path d="M16.5 15.125V23.375" stroke="white" stroke-width="2" stroke-linecap="round" stroke-linejoin="round"/>
<path d="M12.375 19.25L16.5 23.375L20.625 19.25" stroke="white" stroke-width="2" stroke-linecap="round" stroke-linejoin="round"/>
</svg>
