<svg width="619" height="292" viewBox="0 0 619 292" fill="none" xmlns="http://www.w3.org/2000/svg">
<rect opacity="0.2" x="54" y="258" width="229" height="1" transform="rotate(-90 54 258)" fill="#041242"/>
<rect opacity="0.2" width="565" height="1" transform="matrix(1 0 0 -1 54 258)" fill="#041242"/>
<rect opacity="0.07" x="54.6912" y="218.25" width="537.5" height="0.5" stroke="#041242" stroke-width="0.5" stroke-dasharray="3.72 3.72"/>
<rect opacity="0.07" x="54.6912" y="178.25" width="537.5" height="0.5" stroke="#041242" stroke-width="0.5" stroke-dasharray="3.72 3.72"/>
<rect opacity="0.07" x="54.6912" y="137.25" width="537.5" height="0.5" stroke="#041242" stroke-width="0.5" stroke-dasharray="3.72 3.72"/>
<rect opacity="0.07" x="54.6912" y="97.25" width="537.5" height="0.5" stroke="#041242" stroke-width="0.5" stroke-dasharray="3.72 3.72"/>
<rect opacity="0.07" x="54.6912" y="55.25" width="537.5" height="0.5" stroke="#041242" stroke-width="0.5" stroke-dasharray="3.72 3.72"/>
<path opacity="0.6" d="M62.9681 287.077C62.4621 287.077 62.0075 286.989 61.6041 286.813C61.2081 286.63 60.8965 286.38 60.6691 286.065C60.4418 285.742 60.3245 285.372 60.3171 284.954H61.3841C61.4208 285.313 61.5675 285.618 61.8241 285.867C62.0881 286.109 62.4695 286.23 62.9681 286.23C63.4448 286.23 63.8188 286.113 64.0901 285.878C64.3688 285.636 64.5081 285.328 64.5081 284.954C64.5081 284.661 64.4275 284.422 64.2661 284.239C64.1048 284.056 63.9031 283.916 63.6611 283.821C63.4191 283.726 63.0928 283.623 62.6821 283.513C62.1761 283.381 61.7691 283.249 61.4611 283.117C61.1605 282.985 60.9001 282.78 60.6801 282.501C60.4675 282.215 60.3611 281.834 60.3611 281.357C60.3611 280.939 60.4675 280.569 60.6801 280.246C60.8928 279.923 61.1898 279.674 61.5711 279.498C61.9598 279.322 62.4035 279.234 62.9021 279.234C63.6208 279.234 64.2075 279.414 64.6621 279.773C65.1241 280.132 65.3845 280.609 65.4431 281.203H64.3431C64.3065 280.91 64.1525 280.653 63.8811 280.433C63.6098 280.206 63.2505 280.092 62.8031 280.092C62.3851 280.092 62.0441 280.202 61.7801 280.422C61.5161 280.635 61.3841 280.935 61.3841 281.324C61.3841 281.603 61.4611 281.83 61.6151 282.006C61.7765 282.182 61.9708 282.318 62.1981 282.413C62.4328 282.501 62.7591 282.604 63.1771 282.721C63.6831 282.86 64.0901 283 64.3981 283.139C64.7061 283.271 64.9701 283.48 65.1901 283.766C65.4101 284.045 65.5201 284.426 65.5201 284.91C65.5201 285.284 65.4211 285.636 65.2231 285.966C65.0251 286.296 64.7318 286.564 64.3431 286.769C63.9545 286.974 63.4961 287.077 62.9681 287.077ZM72.4932 283.755C72.4932 283.946 72.4822 284.147 72.4602 284.36H67.6422C67.6788 284.954 67.8805 285.42 68.2472 285.757C68.6212 286.087 69.0722 286.252 69.6002 286.252C70.0328 286.252 70.3922 286.153 70.6782 285.955C70.9715 285.75 71.1768 285.478 71.2942 285.141H72.3722C72.2108 285.72 71.8882 286.193 71.4042 286.56C70.9202 286.919 70.3188 287.099 69.6002 287.099C69.0282 287.099 68.5148 286.971 68.0602 286.714C67.6128 286.457 67.2608 286.094 67.0042 285.625C66.7475 285.148 66.6192 284.598 66.6192 283.975C66.6192 283.352 66.7438 282.805 66.9932 282.336C67.2425 281.867 67.5908 281.507 68.0382 281.258C68.4928 281.001 69.0135 280.873 69.6002 280.873C70.1722 280.873 70.6782 280.998 71.1182 281.247C71.5582 281.496 71.8955 281.841 72.1302 282.281C72.3722 282.714 72.4932 283.205 72.4932 283.755ZM71.4592 283.546C71.4592 283.165 71.3748 282.838 71.2062 282.567C71.0375 282.288 70.8065 282.079 70.5132 281.94C70.2272 281.793 69.9082 281.72 69.5562 281.72C69.0502 281.72 68.6175 281.881 68.2582 282.204C67.9062 282.527 67.7045 282.974 67.6532 283.546H71.4592ZM74.8155 282.083C75.0135 281.738 75.3068 281.452 75.6955 281.225C76.0915 280.99 76.5498 280.873 77.0705 280.873C77.6058 280.873 78.0898 281.001 78.5225 281.258C78.9625 281.515 79.3071 281.878 79.5565 282.347C79.8058 282.809 79.9305 283.348 79.9305 283.964C79.9305 284.573 79.8058 285.115 79.5565 285.592C79.3071 286.069 78.9625 286.439 78.5225 286.703C78.0898 286.967 77.6058 287.099 77.0705 287.099C76.5571 287.099 76.1025 286.985 75.7065 286.758C75.3178 286.523 75.0208 286.234 74.8155 285.889V289.86H73.8145V280.972H74.8155V282.083ZM78.9075 283.964C78.9075 283.509 78.8158 283.113 78.6325 282.776C78.4491 282.439 78.1998 282.182 77.8845 282.006C77.5765 281.83 77.2355 281.742 76.8615 281.742C76.4948 281.742 76.1538 281.834 75.8385 282.017C75.5305 282.193 75.2811 282.453 75.0905 282.798C74.9071 283.135 74.8155 283.528 74.8155 283.975C74.8155 284.43 74.9071 284.829 75.0905 285.174C75.2811 285.511 75.5305 285.772 75.8385 285.955C76.1538 286.131 76.4948 286.219 76.8615 286.219C77.2355 286.219 77.5765 286.131 77.8845 285.955C78.1998 285.772 78.4491 285.511 78.6325 285.174C78.8158 284.829 78.9075 284.426 78.9075 283.964ZM83.8947 286.197C84.826 285.449 85.5557 284.837 86.0837 284.36C86.6117 283.876 87.0553 283.374 87.4147 282.853C87.7813 282.325 87.9647 281.808 87.9647 281.302C87.9647 280.825 87.8473 280.451 87.6127 280.18C87.3853 279.901 87.015 279.762 86.5017 279.762C86.003 279.762 85.6143 279.92 85.3357 280.235C85.0643 280.543 84.9177 280.957 84.8957 281.478H83.9277C83.957 280.657 84.2063 280.022 84.6757 279.575C85.145 279.128 85.75 278.904 86.4907 278.904C87.246 278.904 87.8437 279.113 88.2837 279.531C88.731 279.949 88.9547 280.525 88.9547 281.258C88.9547 281.867 88.7713 282.461 88.4047 283.04C88.0453 283.612 87.6347 284.118 87.1727 284.558C86.7107 284.991 86.1203 285.497 85.4017 286.076H89.1857V286.912H83.8947V286.197ZM90.3428 282.941C90.3428 281.68 90.5482 280.697 90.9588 279.993C91.3695 279.282 92.0882 278.926 93.1148 278.926C94.1342 278.926 94.8492 279.282 95.2598 279.993C95.6705 280.697 95.8758 281.68 95.8758 282.941C95.8758 284.224 95.6705 285.222 95.2598 285.933C94.8492 286.644 94.1342 287 93.1148 287C92.0882 287 91.3695 286.644 90.9588 285.933C90.5482 285.222 90.3428 284.224 90.3428 282.941ZM94.8858 282.941C94.8858 282.303 94.8418 281.764 94.7538 281.324C94.6732 280.877 94.5008 280.517 94.2368 280.246C93.9802 279.975 93.6062 279.839 93.1148 279.839C92.6162 279.839 92.2348 279.975 91.9708 280.246C91.7142 280.517 91.5418 280.877 91.4538 281.324C91.3732 281.764 91.3328 282.303 91.3328 282.941C91.3328 283.601 91.3732 284.155 91.4538 284.602C91.5418 285.049 91.7142 285.409 91.9708 285.68C92.2348 285.951 92.6162 286.087 93.1148 286.087C93.6062 286.087 93.9802 285.951 94.2368 285.68C94.5008 285.409 94.6732 285.049 94.7538 284.602C94.8418 284.155 94.8858 283.601 94.8858 282.941ZM97.1291 286.197C98.0604 285.449 98.7901 284.837 99.3181 284.36C99.8461 283.876 100.29 283.374 100.649 282.853C101.016 282.325 101.199 281.808 101.199 281.302C101.199 280.825 101.082 280.451 100.847 280.18C100.62 279.901 100.249 279.762 99.7361 279.762C99.2374 279.762 98.8487 279.92 98.5701 280.235C98.2987 280.543 98.1521 280.957 98.1301 281.478H97.1621C97.1914 280.657 97.4407 280.022 97.9101 279.575C98.3794 279.128 98.9844 278.904 99.7251 278.904C100.48 278.904 101.078 279.113 101.518 279.531C101.965 279.949 102.189 280.525 102.189 281.258C102.189 281.867 102.006 282.461 101.639 283.04C101.28 283.612 100.869 284.118 100.407 284.558C99.9451 284.991 99.3547 285.497 98.6361 286.076H102.42V286.912H97.1291V286.197ZM103.577 282.941C103.577 281.68 103.783 280.697 104.193 279.993C104.604 279.282 105.323 278.926 106.349 278.926C107.369 278.926 108.084 279.282 108.494 279.993C108.905 280.697 109.11 281.68 109.11 282.941C109.11 284.224 108.905 285.222 108.494 285.933C108.084 286.644 107.369 287 106.349 287C105.323 287 104.604 286.644 104.193 285.933C103.783 285.222 103.577 284.224 103.577 282.941ZM108.12 282.941C108.12 282.303 108.076 281.764 107.988 281.324C107.908 280.877 107.735 280.517 107.471 280.246C107.215 279.975 106.841 279.839 106.349 279.839C105.851 279.839 105.469 279.975 105.205 280.246C104.949 280.517 104.776 280.877 104.688 281.324C104.608 281.764 104.567 282.303 104.567 282.941C104.567 283.601 104.608 284.155 104.688 284.602C104.776 285.049 104.949 285.409 105.205 285.68C105.469 285.951 105.851 286.087 106.349 286.087C106.841 286.087 107.215 285.951 107.471 285.68C107.735 285.409 107.908 285.049 107.988 284.602C108.076 284.155 108.12 283.601 108.12 282.941Z" fill="#041242"/>
<path opacity="0.6" d="M147.013 287.077C146.302 287.077 145.653 286.912 145.066 286.582C144.479 286.245 144.014 285.779 143.669 285.185C143.332 284.584 143.163 283.909 143.163 283.161C143.163 282.413 143.332 281.742 143.669 281.148C144.014 280.547 144.479 280.081 145.066 279.751C145.653 279.414 146.302 279.245 147.013 279.245C147.732 279.245 148.384 279.414 148.971 279.751C149.558 280.081 150.02 280.543 150.357 281.137C150.694 281.731 150.863 282.406 150.863 283.161C150.863 283.916 150.694 284.591 150.357 285.185C150.02 285.779 149.558 286.245 148.971 286.582C148.384 286.912 147.732 287.077 147.013 287.077ZM147.013 286.208C147.548 286.208 148.029 286.083 148.454 285.834C148.887 285.585 149.224 285.229 149.466 284.767C149.715 284.305 149.84 283.77 149.84 283.161C149.84 282.545 149.715 282.01 149.466 281.555C149.224 281.093 148.89 280.737 148.465 280.488C148.04 280.239 147.556 280.114 147.013 280.114C146.47 280.114 145.986 280.239 145.561 280.488C145.136 280.737 144.798 281.093 144.549 281.555C144.307 282.01 144.186 282.545 144.186 283.161C144.186 283.77 144.307 284.305 144.549 284.767C144.798 285.229 145.136 285.585 145.561 285.834C145.994 286.083 146.478 286.208 147.013 286.208ZM151.811 283.975C151.811 283.352 151.935 282.809 152.185 282.347C152.434 281.878 152.779 281.515 153.219 281.258C153.666 281.001 154.176 280.873 154.748 280.873C155.488 280.873 156.097 281.053 156.574 281.412C157.058 281.771 157.377 282.27 157.531 282.908H156.453C156.35 282.541 156.148 282.252 155.848 282.039C155.554 281.826 155.188 281.72 154.748 281.72C154.176 281.72 153.714 281.918 153.362 282.314C153.01 282.703 152.834 283.256 152.834 283.975C152.834 284.701 153.01 285.262 153.362 285.658C153.714 286.054 154.176 286.252 154.748 286.252C155.188 286.252 155.554 286.149 155.848 285.944C156.141 285.739 156.343 285.445 156.453 285.064H157.531C157.369 285.68 157.047 286.175 156.563 286.549C156.079 286.916 155.474 287.099 154.748 287.099C154.176 287.099 153.666 286.971 153.219 286.714C152.779 286.457 152.434 286.094 152.185 285.625C151.935 285.156 151.811 284.606 151.811 283.975ZM160.087 281.797V285.35C160.087 285.643 160.15 285.852 160.274 285.977C160.399 286.094 160.615 286.153 160.923 286.153H161.66V287H160.758C160.201 287 159.783 286.872 159.504 286.615C159.226 286.358 159.086 285.937 159.086 285.35V281.797H158.305V280.972H159.086V279.454H160.087V280.972H161.66V281.797H160.087ZM165.52 286.197C166.451 285.449 167.181 284.837 167.709 284.36C168.237 283.876 168.68 283.374 169.04 282.853C169.406 282.325 169.59 281.808 169.59 281.302C169.59 280.825 169.472 280.451 169.238 280.18C169.01 279.901 168.64 279.762 168.127 279.762C167.628 279.762 167.239 279.92 166.961 280.235C166.689 280.543 166.543 280.957 166.521 281.478H165.553C165.582 280.657 165.831 280.022 166.301 279.575C166.77 279.128 167.375 278.904 168.116 278.904C168.871 278.904 169.469 279.113 169.909 279.531C170.356 279.949 170.58 280.525 170.58 281.258C170.58 281.867 170.396 282.461 170.03 283.04C169.67 283.612 169.26 284.118 168.798 284.558C168.336 284.991 167.745 285.497 167.027 286.076H170.811V286.912H165.52V286.197ZM171.968 282.941C171.968 281.68 172.173 280.697 172.584 279.993C172.994 279.282 173.713 278.926 174.74 278.926C175.759 278.926 176.474 279.282 176.885 279.993C177.295 280.697 177.501 281.68 177.501 282.941C177.501 284.224 177.295 285.222 176.885 285.933C176.474 286.644 175.759 287 174.74 287C173.713 287 172.994 286.644 172.584 285.933C172.173 285.222 171.968 284.224 171.968 282.941ZM176.511 282.941C176.511 282.303 176.467 281.764 176.379 281.324C176.298 280.877 176.126 280.517 175.862 280.246C175.605 279.975 175.231 279.839 174.74 279.839C174.241 279.839 173.86 279.975 173.596 280.246C173.339 280.517 173.167 280.877 173.079 281.324C172.998 281.764 172.958 282.303 172.958 282.941C172.958 283.601 172.998 284.155 173.079 284.602C173.167 285.049 173.339 285.409 173.596 285.68C173.86 285.951 174.241 286.087 174.74 286.087C175.231 286.087 175.605 285.951 175.862 285.68C176.126 285.409 176.298 285.049 176.379 284.602C176.467 284.155 176.511 283.601 176.511 282.941ZM178.754 286.197C179.685 285.449 180.415 284.837 180.943 284.36C181.471 283.876 181.915 283.374 182.274 282.853C182.641 282.325 182.824 281.808 182.824 281.302C182.824 280.825 182.707 280.451 182.472 280.18C182.245 279.901 181.874 279.762 181.361 279.762C180.862 279.762 180.474 279.92 180.195 280.235C179.924 280.543 179.777 280.957 179.755 281.478H178.787C178.816 280.657 179.066 280.022 179.535 279.575C180.004 279.128 180.609 278.904 181.35 278.904C182.105 278.904 182.703 279.113 183.143 279.531C183.59 279.949 183.814 280.525 183.814 281.258C183.814 281.867 183.631 282.461 183.264 283.04C182.905 283.612 182.494 284.118 182.032 284.558C181.57 284.991 180.98 285.497 180.261 286.076H184.045V286.912H178.754V286.197ZM185.202 282.941C185.202 281.68 185.408 280.697 185.818 279.993C186.229 279.282 186.948 278.926 187.974 278.926C188.994 278.926 189.709 279.282 190.119 279.993C190.53 280.697 190.735 281.68 190.735 282.941C190.735 284.224 190.53 285.222 190.119 285.933C189.709 286.644 188.994 287 187.974 287C186.948 287 186.229 286.644 185.818 285.933C185.408 285.222 185.202 284.224 185.202 282.941ZM189.745 282.941C189.745 282.303 189.701 281.764 189.613 281.324C189.533 280.877 189.36 280.517 189.096 280.246C188.84 279.975 188.466 279.839 187.974 279.839C187.476 279.839 187.094 279.975 186.83 280.246C186.574 280.517 186.401 280.877 186.313 281.324C186.233 281.764 186.192 282.303 186.192 282.941C186.192 283.601 186.233 284.155 186.313 284.602C186.401 285.049 186.574 285.409 186.83 285.68C187.094 285.951 187.476 286.087 187.974 286.087C188.466 286.087 188.84 285.951 189.096 285.68C189.36 285.409 189.533 285.049 189.613 284.602C189.701 284.155 189.745 283.601 189.745 282.941Z" fill="#041242"/>
<path opacity="0.6" d="M230.565 287.2H229.564L225.538 281.095V287.2H224.537V279.522H225.538L229.564 285.616V279.522H230.565V287.2ZM234.9 287.299C234.336 287.299 233.822 287.171 233.36 286.914C232.906 286.657 232.546 286.294 232.282 285.825C232.026 285.348 231.897 284.798 231.897 284.175C231.897 283.559 232.029 283.016 232.293 282.547C232.565 282.07 232.931 281.707 233.393 281.458C233.855 281.201 234.372 281.073 234.944 281.073C235.516 281.073 236.033 281.201 236.495 281.458C236.957 281.707 237.32 282.067 237.584 282.536C237.856 283.005 237.991 283.552 237.991 284.175C237.991 284.798 237.852 285.348 237.573 285.825C237.302 286.294 236.932 286.657 236.462 286.914C235.993 287.171 235.472 287.299 234.9 287.299ZM234.9 286.419C235.26 286.419 235.597 286.335 235.912 286.166C236.228 285.997 236.481 285.744 236.671 285.407C236.869 285.07 236.968 284.659 236.968 284.175C236.968 283.691 236.873 283.28 236.682 282.943C236.492 282.606 236.242 282.356 235.934 282.195C235.626 282.026 235.293 281.942 234.933 281.942C234.567 281.942 234.229 282.026 233.921 282.195C233.621 282.356 233.379 282.606 233.195 282.943C233.012 283.28 232.92 283.691 232.92 284.175C232.92 284.666 233.008 285.081 233.184 285.418C233.368 285.755 233.61 286.008 233.91 286.177C234.211 286.338 234.541 286.419 234.9 286.419ZM241.552 286.276L243.422 281.172H244.489L242.124 287.2H240.958L238.593 281.172H239.671L241.552 286.276ZM248.12 286.397C249.052 285.649 249.781 285.037 250.309 284.56C250.837 284.076 251.281 283.574 251.64 283.053C252.007 282.525 252.19 282.008 252.19 281.502C252.19 281.025 252.073 280.651 251.838 280.38C251.611 280.101 251.241 279.962 250.727 279.962C250.229 279.962 249.84 280.12 249.561 280.435C249.29 280.743 249.143 281.157 249.121 281.678H248.153C248.183 280.857 248.432 280.222 248.901 279.775C249.371 279.328 249.976 279.104 250.716 279.104C251.472 279.104 252.069 279.313 252.509 279.731C252.957 280.149 253.18 280.725 253.18 281.458C253.18 282.067 252.997 282.661 252.63 283.24C252.271 283.812 251.86 284.318 251.398 284.758C250.936 285.191 250.346 285.697 249.627 286.276H253.411V287.112H248.12V286.397ZM254.568 283.141C254.568 281.88 254.774 280.897 255.184 280.193C255.595 279.482 256.314 279.126 257.34 279.126C258.36 279.126 259.075 279.482 259.485 280.193C259.896 280.897 260.101 281.88 260.101 283.141C260.101 284.424 259.896 285.422 259.485 286.133C259.075 286.844 258.36 287.2 257.34 287.2C256.314 287.2 255.595 286.844 255.184 286.133C254.774 285.422 254.568 284.424 254.568 283.141ZM259.111 283.141C259.111 282.503 259.067 281.964 258.979 281.524C258.899 281.077 258.726 280.717 258.462 280.446C258.206 280.175 257.832 280.039 257.34 280.039C256.842 280.039 256.46 280.175 256.196 280.446C255.94 280.717 255.767 281.077 255.679 281.524C255.599 281.964 255.558 282.503 255.558 283.141C255.558 283.801 255.599 284.355 255.679 284.802C255.767 285.249 255.94 285.609 256.196 285.88C256.46 286.151 256.842 286.287 257.34 286.287C257.832 286.287 258.206 286.151 258.462 285.88C258.726 285.609 258.899 285.249 258.979 284.802C259.067 284.355 259.111 283.801 259.111 283.141ZM261.355 286.397C262.286 285.649 263.016 285.037 263.544 284.56C264.072 284.076 264.515 283.574 264.875 283.053C265.241 282.525 265.425 282.008 265.425 281.502C265.425 281.025 265.307 280.651 265.073 280.38C264.845 280.101 264.475 279.962 263.962 279.962C263.463 279.962 263.074 280.12 262.796 280.435C262.524 280.743 262.378 281.157 262.356 281.678H261.388C261.417 280.857 261.666 280.222 262.136 279.775C262.605 279.328 263.21 279.104 263.951 279.104C264.706 279.104 265.304 279.313 265.744 279.731C266.191 280.149 266.415 280.725 266.415 281.458C266.415 282.067 266.231 282.661 265.865 283.24C265.505 283.812 265.095 284.318 264.633 284.758C264.171 285.191 263.58 285.697 262.862 286.276H266.646V287.112H261.355V286.397ZM267.803 283.141C267.803 281.88 268.008 280.897 268.419 280.193C268.829 279.482 269.548 279.126 270.575 279.126C271.594 279.126 272.309 279.482 272.72 280.193C273.13 280.897 273.336 281.88 273.336 283.141C273.336 284.424 273.13 285.422 272.72 286.133C272.309 286.844 271.594 287.2 270.575 287.2C269.548 287.2 268.829 286.844 268.419 286.133C268.008 285.422 267.803 284.424 267.803 283.141ZM272.346 283.141C272.346 282.503 272.302 281.964 272.214 281.524C272.133 281.077 271.961 280.717 271.697 280.446C271.44 280.175 271.066 280.039 270.575 280.039C270.076 280.039 269.695 280.175 269.431 280.446C269.174 280.717 269.002 281.077 268.914 281.524C268.833 281.964 268.793 282.503 268.793 283.141C268.793 283.801 268.833 284.355 268.914 284.802C269.002 285.249 269.174 285.609 269.431 285.88C269.695 286.151 270.076 286.287 270.575 286.287C271.066 286.287 271.44 286.151 271.697 285.88C271.961 285.609 272.133 285.249 272.214 284.802C272.302 284.355 272.346 283.801 272.346 283.141Z" fill="#041242"/>
<path opacity="0.6" d="M309.924 279.333C310.76 279.333 311.482 279.491 312.091 279.806C312.707 280.114 313.176 280.558 313.499 281.137C313.829 281.716 313.994 282.398 313.994 283.183C313.994 283.968 313.829 284.65 313.499 285.229C313.176 285.801 312.707 286.241 312.091 286.549C311.482 286.85 310.76 287 309.924 287H307.537V279.333H309.924ZM309.924 286.175C310.914 286.175 311.669 285.915 312.19 285.394C312.711 284.866 312.971 284.129 312.971 283.183C312.971 282.23 312.707 281.485 312.179 280.95C311.658 280.415 310.907 280.147 309.924 280.147H308.538V286.175H309.924ZM320.814 283.755C320.814 283.946 320.803 284.147 320.781 284.36H315.963C316 284.954 316.202 285.42 316.568 285.757C316.942 286.087 317.393 286.252 317.921 286.252C318.354 286.252 318.713 286.153 318.999 285.955C319.293 285.75 319.498 285.478 319.615 285.141H320.693C320.532 285.72 320.209 286.193 319.725 286.56C319.241 286.919 318.64 287.099 317.921 287.099C317.349 287.099 316.836 286.971 316.381 286.714C315.934 286.457 315.582 286.094 315.325 285.625C315.069 285.148 314.94 284.598 314.94 283.975C314.94 283.352 315.065 282.805 315.314 282.336C315.564 281.867 315.912 281.507 316.359 281.258C316.814 281.001 317.335 280.873 317.921 280.873C318.493 280.873 318.999 280.998 319.439 281.247C319.879 281.496 320.217 281.841 320.451 282.281C320.693 282.714 320.814 283.205 320.814 283.755ZM319.78 283.546C319.78 283.165 319.696 282.838 319.527 282.567C319.359 282.288 319.128 282.079 318.834 281.94C318.548 281.793 318.229 281.72 317.877 281.72C317.371 281.72 316.939 281.881 316.579 282.204C316.227 282.527 316.026 282.974 315.974 283.546H319.78ZM321.762 283.975C321.762 283.352 321.886 282.809 322.136 282.347C322.385 281.878 322.73 281.515 323.17 281.258C323.617 281.001 324.127 280.873 324.699 280.873C325.439 280.873 326.048 281.053 326.525 281.412C327.009 281.771 327.328 282.27 327.482 282.908H326.404C326.301 282.541 326.099 282.252 325.799 282.039C325.505 281.826 325.139 281.72 324.699 281.72C324.127 281.72 323.665 281.918 323.313 282.314C322.961 282.703 322.785 283.256 322.785 283.975C322.785 284.701 322.961 285.262 323.313 285.658C323.665 286.054 324.127 286.252 324.699 286.252C325.139 286.252 325.505 286.149 325.799 285.944C326.092 285.739 326.294 285.445 326.404 285.064H327.482C327.32 285.68 326.998 286.175 326.514 286.549C326.03 286.916 325.425 287.099 324.699 287.099C324.127 287.099 323.617 286.971 323.17 286.714C322.73 286.457 322.385 286.094 322.136 285.625C321.886 285.156 321.762 284.606 321.762 283.975ZM331.464 286.197C332.395 285.449 333.125 284.837 333.653 284.36C334.181 283.876 334.625 283.374 334.984 282.853C335.351 282.325 335.534 281.808 335.534 281.302C335.534 280.825 335.417 280.451 335.182 280.18C334.955 279.901 334.584 279.762 334.071 279.762C333.572 279.762 333.184 279.92 332.905 280.235C332.634 280.543 332.487 280.957 332.465 281.478H331.497C331.526 280.657 331.776 280.022 332.245 279.575C332.714 279.128 333.319 278.904 334.06 278.904C334.815 278.904 335.413 279.113 335.853 279.531C336.3 279.949 336.524 280.525 336.524 281.258C336.524 281.867 336.341 282.461 335.974 283.04C335.615 283.612 335.204 284.118 334.742 284.558C334.28 284.991 333.69 285.497 332.971 286.076H336.755V286.912H331.464V286.197ZM337.912 282.941C337.912 281.68 338.117 280.697 338.528 279.993C338.939 279.282 339.657 278.926 340.684 278.926C341.703 278.926 342.418 279.282 342.829 279.993C343.24 280.697 343.445 281.68 343.445 282.941C343.445 284.224 343.24 285.222 342.829 285.933C342.418 286.644 341.703 287 340.684 287C339.657 287 338.939 286.644 338.528 285.933C338.117 285.222 337.912 284.224 337.912 282.941ZM342.455 282.941C342.455 282.303 342.411 281.764 342.323 281.324C342.242 280.877 342.07 280.517 341.806 280.246C341.549 279.975 341.175 279.839 340.684 279.839C340.185 279.839 339.804 279.975 339.54 280.246C339.283 280.517 339.111 280.877 339.023 281.324C338.942 281.764 338.902 282.303 338.902 282.941C338.902 283.601 338.942 284.155 339.023 284.602C339.111 285.049 339.283 285.409 339.54 285.68C339.804 285.951 340.185 286.087 340.684 286.087C341.175 286.087 341.549 285.951 341.806 285.68C342.07 285.409 342.242 285.049 342.323 284.602C342.411 284.155 342.455 283.601 342.455 282.941ZM344.698 286.197C345.63 285.449 346.359 284.837 346.887 284.36C347.415 283.876 347.859 283.374 348.218 282.853C348.585 282.325 348.768 281.808 348.768 281.302C348.768 280.825 348.651 280.451 348.416 280.18C348.189 279.901 347.819 279.762 347.305 279.762C346.807 279.762 346.418 279.92 346.139 280.235C345.868 280.543 345.721 280.957 345.699 281.478H344.731C344.761 280.657 345.01 280.022 345.479 279.575C345.949 279.128 346.554 278.904 347.294 278.904C348.05 278.904 348.647 279.113 349.087 279.531C349.535 279.949 349.758 280.525 349.758 281.258C349.758 281.867 349.575 282.461 349.208 283.04C348.849 283.612 348.438 284.118 347.976 284.558C347.514 284.991 346.924 285.497 346.205 286.076H349.989V286.912H344.698V286.197ZM351.147 282.941C351.147 281.68 351.352 280.697 351.763 279.993C352.173 279.282 352.892 278.926 353.919 278.926C354.938 278.926 355.653 279.282 356.064 279.993C356.474 280.697 356.68 281.68 356.68 282.941C356.68 284.224 356.474 285.222 356.064 285.933C355.653 286.644 354.938 287 353.919 287C352.892 287 352.173 286.644 351.763 285.933C351.352 285.222 351.147 284.224 351.147 282.941ZM355.69 282.941C355.69 282.303 355.646 281.764 355.558 281.324C355.477 280.877 355.305 280.517 355.041 280.246C354.784 279.975 354.41 279.839 353.919 279.839C353.42 279.839 353.039 279.975 352.775 280.246C352.518 280.517 352.346 280.877 352.258 281.324C352.177 281.764 352.137 282.303 352.137 282.941C352.137 283.601 352.177 284.155 352.258 284.602C352.346 285.049 352.518 285.409 352.775 285.68C353.039 285.951 353.42 286.087 353.919 286.087C354.41 286.087 354.784 285.951 355.041 285.68C355.305 285.409 355.477 285.049 355.558 284.602C355.646 284.155 355.69 283.601 355.69 282.941Z" fill="#041242"/>
<path opacity="0.6" d="M394.398 279.333V284.998C394.398 285.629 394.204 286.135 393.815 286.516C393.426 286.89 392.913 287.077 392.275 287.077C391.63 287.077 391.113 286.886 390.724 286.505C390.335 286.116 390.141 285.588 390.141 284.921H391.142C391.149 285.295 391.245 285.599 391.428 285.834C391.619 286.069 391.901 286.186 392.275 286.186C392.649 286.186 392.928 286.076 393.111 285.856C393.294 285.629 393.386 285.343 393.386 284.998V279.333H394.398ZM395.996 283.964C395.996 283.348 396.121 282.809 396.37 282.347C396.619 281.878 396.96 281.515 397.393 281.258C397.833 281.001 398.321 280.873 398.856 280.873C399.384 280.873 399.842 280.987 400.231 281.214C400.62 281.441 400.909 281.727 401.1 282.072V280.972H402.112V287H401.1V285.878C400.902 286.23 400.605 286.523 400.209 286.758C399.82 286.985 399.366 287.099 398.845 287.099C398.31 287.099 397.826 286.967 397.393 286.703C396.96 286.439 396.619 286.069 396.37 285.592C396.121 285.115 395.996 284.573 395.996 283.964ZM401.1 283.975C401.1 283.52 401.008 283.124 400.825 282.787C400.642 282.45 400.392 282.193 400.077 282.017C399.769 281.834 399.428 281.742 399.054 281.742C398.68 281.742 398.339 281.83 398.031 282.006C397.723 282.182 397.477 282.439 397.294 282.776C397.111 283.113 397.019 283.509 397.019 283.964C397.019 284.426 397.111 284.829 397.294 285.174C397.477 285.511 397.723 285.772 398.031 285.955C398.339 286.131 398.68 286.219 399.054 286.219C399.428 286.219 399.769 286.131 400.077 285.955C400.392 285.772 400.642 285.511 400.825 285.174C401.008 284.829 401.1 284.43 401.1 283.975ZM406.741 280.862C407.474 280.862 408.068 281.086 408.523 281.533C408.977 281.973 409.205 282.611 409.205 283.447V287H408.215V283.59C408.215 282.989 408.064 282.53 407.764 282.215C407.463 281.892 407.052 281.731 406.532 281.731C406.004 281.731 405.582 281.896 405.267 282.226C404.959 282.556 404.805 283.036 404.805 283.667V287H403.804V280.972H404.805V281.83C405.003 281.522 405.27 281.284 405.608 281.115C405.952 280.946 406.33 280.862 406.741 280.862ZM413.486 286.197C414.418 285.449 415.147 284.837 415.675 284.36C416.203 283.876 416.647 283.374 417.006 282.853C417.373 282.325 417.556 281.808 417.556 281.302C417.556 280.825 417.439 280.451 417.204 280.18C416.977 279.901 416.607 279.762 416.093 279.762C415.595 279.762 415.206 279.92 414.927 280.235C414.656 280.543 414.509 280.957 414.487 281.478H413.519C413.549 280.657 413.798 280.022 414.267 279.575C414.737 279.128 415.342 278.904 416.082 278.904C416.838 278.904 417.435 279.113 417.875 279.531C418.323 279.949 418.546 280.525 418.546 281.258C418.546 281.867 418.363 282.461 417.996 283.04C417.637 283.612 417.226 284.118 416.764 284.558C416.302 284.991 415.712 285.497 414.993 286.076H418.777V286.912H413.486V286.197ZM419.935 282.941C419.935 281.68 420.14 280.697 420.551 279.993C420.961 279.282 421.68 278.926 422.707 278.926C423.726 278.926 424.441 279.282 424.852 279.993C425.262 280.697 425.468 281.68 425.468 282.941C425.468 284.224 425.262 285.222 424.852 285.933C424.441 286.644 423.726 287 422.707 287C421.68 287 420.961 286.644 420.551 285.933C420.14 285.222 419.935 284.224 419.935 282.941ZM424.478 282.941C424.478 282.303 424.434 281.764 424.346 281.324C424.265 280.877 424.093 280.517 423.829 280.246C423.572 279.975 423.198 279.839 422.707 279.839C422.208 279.839 421.827 279.975 421.563 280.246C421.306 280.517 421.134 280.877 421.046 281.324C420.965 281.764 420.925 282.303 420.925 282.941C420.925 283.601 420.965 284.155 421.046 284.602C421.134 285.049 421.306 285.409 421.563 285.68C421.827 285.951 422.208 286.087 422.707 286.087C423.198 286.087 423.572 285.951 423.829 285.68C424.093 285.409 424.265 285.049 424.346 284.602C424.434 284.155 424.478 283.601 424.478 282.941ZM426.721 286.197C427.652 285.449 428.382 284.837 428.91 284.36C429.438 283.876 429.882 283.374 430.241 282.853C430.608 282.325 430.791 281.808 430.791 281.302C430.791 280.825 430.674 280.451 430.439 280.18C430.212 279.901 429.841 279.762 429.328 279.762C428.829 279.762 428.441 279.92 428.162 280.235C427.891 280.543 427.744 280.957 427.722 281.478H426.754C426.783 280.657 427.033 280.022 427.502 279.575C427.971 279.128 428.576 278.904 429.317 278.904C430.072 278.904 430.67 279.113 431.11 279.531C431.557 279.949 431.781 280.525 431.781 281.258C431.781 281.867 431.598 282.461 431.231 283.04C430.872 283.612 430.461 284.118 429.999 284.558C429.537 284.991 428.947 285.497 428.228 286.076H432.012V286.912H426.721V286.197ZM432.905 279.96V279.047H434.973V287H433.961V279.96H432.905Z" fill="#041242"/>
<path opacity="0.6" d="M473.871 279.333V280.147H470.538V282.732H473.244V283.546H470.538V287H469.537V279.333H473.871ZM480.58 283.755C480.58 283.946 480.569 284.147 480.547 284.36H475.729C475.766 284.954 475.967 285.42 476.334 285.757C476.708 286.087 477.159 286.252 477.687 286.252C478.12 286.252 478.479 286.153 478.765 285.955C479.058 285.75 479.264 285.478 479.381 285.141H480.459C480.298 285.72 479.975 286.193 479.491 286.56C479.007 286.919 478.406 287.099 477.687 287.099C477.115 287.099 476.602 286.971 476.147 286.714C475.7 286.457 475.348 286.094 475.091 285.625C474.834 285.148 474.706 284.598 474.706 283.975C474.706 283.352 474.831 282.805 475.08 282.336C475.329 281.867 475.678 281.507 476.125 281.258C476.58 281.001 477.1 280.873 477.687 280.873C478.259 280.873 478.765 280.998 479.205 281.247C479.645 281.496 479.982 281.841 480.217 282.281C480.459 282.714 480.58 283.205 480.58 283.755ZM479.546 283.546C479.546 283.165 479.462 282.838 479.293 282.567C479.124 282.288 478.893 282.079 478.6 281.94C478.314 281.793 477.995 281.72 477.643 281.72C477.137 281.72 476.704 281.881 476.345 282.204C475.993 282.527 475.791 282.974 475.74 283.546H479.546ZM482.902 282.094C483.108 281.735 483.408 281.441 483.804 281.214C484.2 280.987 484.651 280.873 485.157 280.873C485.7 280.873 486.188 281.001 486.62 281.258C487.053 281.515 487.394 281.878 487.643 282.347C487.893 282.809 488.017 283.348 488.017 283.964C488.017 284.573 487.893 285.115 487.643 285.592C487.394 286.069 487.049 286.439 486.609 286.703C486.177 286.967 485.693 287.099 485.157 287.099C484.637 287.099 484.178 286.985 483.782 286.758C483.394 286.531 483.1 286.241 482.902 285.889V287H481.901V278.86H482.902V282.094ZM486.994 283.964C486.994 283.509 486.903 283.113 486.719 282.776C486.536 282.439 486.287 282.182 485.971 282.006C485.663 281.83 485.322 281.742 484.948 281.742C484.582 281.742 484.241 281.834 483.925 282.017C483.617 282.193 483.368 282.453 483.177 282.798C482.994 283.135 482.902 283.528 482.902 283.975C482.902 284.43 482.994 284.829 483.177 285.174C483.368 285.511 483.617 285.772 483.925 285.955C484.241 286.131 484.582 286.219 484.948 286.219C485.322 286.219 485.663 286.131 485.971 285.955C486.287 285.772 486.536 285.511 486.719 285.174C486.903 284.829 486.994 284.426 486.994 283.964ZM491.982 286.197C492.913 285.449 493.643 284.837 494.171 284.36C494.699 283.876 495.142 283.374 495.502 282.853C495.868 282.325 496.052 281.808 496.052 281.302C496.052 280.825 495.934 280.451 495.7 280.18C495.472 279.901 495.102 279.762 494.589 279.762C494.09 279.762 493.701 279.92 493.423 280.235C493.151 280.543 493.005 280.957 492.983 281.478H492.015C492.044 280.657 492.293 280.022 492.763 279.575C493.232 279.128 493.837 278.904 494.578 278.904C495.333 278.904 495.931 279.113 496.371 279.531C496.818 279.949 497.042 280.525 497.042 281.258C497.042 281.867 496.858 282.461 496.492 283.04C496.132 283.612 495.722 284.118 495.26 284.558C494.798 284.991 494.207 285.497 493.489 286.076H497.273V286.912H491.982V286.197ZM498.43 282.941C498.43 281.68 498.635 280.697 499.046 279.993C499.456 279.282 500.175 278.926 501.202 278.926C502.221 278.926 502.936 279.282 503.347 279.993C503.757 280.697 503.963 281.68 503.963 282.941C503.963 284.224 503.757 285.222 503.347 285.933C502.936 286.644 502.221 287 501.202 287C500.175 287 499.456 286.644 499.046 285.933C498.635 285.222 498.43 284.224 498.43 282.941ZM502.973 282.941C502.973 282.303 502.929 281.764 502.841 281.324C502.76 280.877 502.588 280.517 502.324 280.246C502.067 279.975 501.693 279.839 501.202 279.839C500.703 279.839 500.322 279.975 500.058 280.246C499.801 280.517 499.629 280.877 499.541 281.324C499.46 281.764 499.42 282.303 499.42 282.941C499.42 283.601 499.46 284.155 499.541 284.602C499.629 285.049 499.801 285.409 500.058 285.68C500.322 285.951 500.703 286.087 501.202 286.087C501.693 286.087 502.067 285.951 502.324 285.68C502.588 285.409 502.76 285.049 502.841 284.602C502.929 284.155 502.973 283.601 502.973 282.941ZM505.216 286.197C506.147 285.449 506.877 284.837 507.405 284.36C507.933 283.876 508.377 283.374 508.736 282.853C509.103 282.325 509.286 281.808 509.286 281.302C509.286 280.825 509.169 280.451 508.934 280.18C508.707 279.901 508.336 279.762 507.823 279.762C507.324 279.762 506.936 279.92 506.657 280.235C506.386 280.543 506.239 280.957 506.217 281.478H505.249C505.278 280.657 505.528 280.022 505.997 279.575C506.466 279.128 507.071 278.904 507.812 278.904C508.567 278.904 509.165 279.113 509.605 279.531C510.052 279.949 510.276 280.525 510.276 281.258C510.276 281.867 510.093 282.461 509.726 283.04C509.367 283.612 508.956 284.118 508.494 284.558C508.032 284.991 507.442 285.497 506.723 286.076H510.507V286.912H505.216V286.197ZM511.4 279.96V279.047H513.468V287H512.456V279.96H511.4Z" fill="#041242"/>
<path opacity="0.6" d="M555.314 279.388V287H554.313V281.324L551.783 287H551.079L548.538 281.313V287H547.537V279.388H548.615L551.431 285.68L554.247 279.388H555.314ZM556.638 283.964C556.638 283.348 556.762 282.809 557.012 282.347C557.261 281.878 557.602 281.515 558.035 281.258C558.475 281.001 558.962 280.873 559.498 280.873C560.026 280.873 560.484 280.987 560.873 281.214C561.261 281.441 561.551 281.727 561.742 282.072V280.972H562.754V287H561.742V285.878C561.544 286.23 561.247 286.523 560.851 286.758C560.462 286.985 560.007 287.099 559.487 287.099C558.951 287.099 558.467 286.967 558.035 286.703C557.602 286.439 557.261 286.069 557.012 285.592C556.762 285.115 556.638 284.573 556.638 283.964ZM561.742 283.975C561.742 283.52 561.65 283.124 561.467 282.787C561.283 282.45 561.034 282.193 560.719 282.017C560.411 281.834 560.07 281.742 559.696 281.742C559.322 281.742 558.981 281.83 558.673 282.006C558.365 282.182 558.119 282.439 557.936 282.776C557.752 283.113 557.661 283.509 557.661 283.964C557.661 284.426 557.752 284.829 557.936 285.174C558.119 285.511 558.365 285.772 558.673 285.955C558.981 286.131 559.322 286.219 559.696 286.219C560.07 286.219 560.411 286.131 560.719 285.955C561.034 285.772 561.283 285.511 561.467 285.174C561.65 284.829 561.742 284.43 561.742 283.975ZM565.446 281.951C565.622 281.606 565.872 281.339 566.194 281.148C566.524 280.957 566.924 280.862 567.393 280.862V281.896H567.129C566.007 281.896 565.446 282.505 565.446 283.722V287H564.445V280.972H565.446V281.951ZM571.195 286.197C572.127 285.449 572.856 284.837 573.384 284.36C573.912 283.876 574.356 283.374 574.715 282.853C575.082 282.325 575.265 281.808 575.265 281.302C575.265 280.825 575.148 280.451 574.913 280.18C574.686 279.901 574.316 279.762 573.802 279.762C573.304 279.762 572.915 279.92 572.636 280.235C572.365 280.543 572.218 280.957 572.196 281.478H571.228C571.258 280.657 571.507 280.022 571.976 279.575C572.446 279.128 573.051 278.904 573.791 278.904C574.547 278.904 575.144 279.113 575.584 279.531C576.032 279.949 576.255 280.525 576.255 281.258C576.255 281.867 576.072 282.461 575.705 283.04C575.346 283.612 574.935 284.118 574.473 284.558C574.011 284.991 573.421 285.497 572.702 286.076H576.486V286.912H571.195V286.197ZM577.644 282.941C577.644 281.68 577.849 280.697 578.26 279.993C578.67 279.282 579.389 278.926 580.416 278.926C581.435 278.926 582.15 279.282 582.561 279.993C582.971 280.697 583.177 281.68 583.177 282.941C583.177 284.224 582.971 285.222 582.561 285.933C582.15 286.644 581.435 287 580.416 287C579.389 287 578.67 286.644 578.26 285.933C577.849 285.222 577.644 284.224 577.644 282.941ZM582.187 282.941C582.187 282.303 582.143 281.764 582.055 281.324C581.974 280.877 581.802 280.517 581.538 280.246C581.281 279.975 580.907 279.839 580.416 279.839C579.917 279.839 579.536 279.975 579.272 280.246C579.015 280.517 578.843 280.877 578.755 281.324C578.674 281.764 578.634 282.303 578.634 282.941C578.634 283.601 578.674 284.155 578.755 284.602C578.843 285.049 579.015 285.409 579.272 285.68C579.536 285.951 579.917 286.087 580.416 286.087C580.907 286.087 581.281 285.951 581.538 285.68C581.802 285.409 581.974 285.049 582.055 284.602C582.143 284.155 582.187 283.601 582.187 282.941ZM584.43 286.197C585.361 285.449 586.091 284.837 586.619 284.36C587.147 283.876 587.591 283.374 587.95 282.853C588.317 282.325 588.5 281.808 588.5 281.302C588.5 280.825 588.383 280.451 588.148 280.18C587.921 279.901 587.55 279.762 587.037 279.762C586.538 279.762 586.15 279.92 585.871 280.235C585.6 280.543 585.453 280.957 585.431 281.478H584.463C584.492 280.657 584.742 280.022 585.211 279.575C585.68 279.128 586.285 278.904 587.026 278.904C587.781 278.904 588.379 279.113 588.819 279.531C589.266 279.949 589.49 280.525 589.49 281.258C589.49 281.867 589.307 282.461 588.94 283.04C588.581 283.612 588.17 284.118 587.708 284.558C587.246 284.991 586.656 285.497 585.937 286.076H589.721V286.912H584.43V286.197ZM590.614 279.96V279.047H592.682V287H591.67V279.96H590.614Z" fill="#041242"/>
<path opacity="0.6" d="M14.8661 247.495C14.8661 246.226 15.0787 245.236 15.5041 244.525C15.9367 243.806 16.6774 243.447 17.7261 243.447C18.7747 243.447 19.5117 243.806 19.9371 244.525C20.3697 245.236 20.5861 246.226 20.5861 247.495C20.5861 248.778 20.3697 249.783 19.9371 250.509C19.5117 251.228 18.7747 251.587 17.7261 251.587C16.6774 251.587 15.9367 251.228 15.5041 250.509C15.0787 249.783 14.8661 248.778 14.8661 247.495ZM19.3541 247.495C19.3541 246.901 19.3137 246.399 19.2331 245.988C19.1597 245.577 19.0057 245.244 18.7711 244.987C18.5364 244.723 18.1881 244.591 17.7261 244.591C17.2641 244.591 16.9157 244.723 16.6811 244.987C16.4464 245.244 16.2887 245.577 16.2081 245.988C16.1347 246.399 16.0981 246.901 16.0981 247.495C16.0981 248.111 16.1347 248.628 16.2081 249.046C16.2814 249.464 16.4354 249.801 16.6701 250.058C16.9121 250.315 17.2641 250.443 17.7261 250.443C18.1881 250.443 18.5364 250.315 18.7711 250.058C19.0131 249.801 19.1707 249.464 19.2441 249.046C19.3174 248.628 19.3541 248.111 19.3541 247.495ZM22.5839 251.686C22.3566 251.686 22.1659 251.609 22.0119 251.455C21.8579 251.301 21.7809 251.11 21.7809 250.883C21.7809 250.656 21.8579 250.465 22.0119 250.311C22.1659 250.157 22.3566 250.08 22.5839 250.08C22.8039 250.08 22.9909 250.157 23.1449 250.311C23.2989 250.465 23.3759 250.656 23.3759 250.883C23.3759 251.11 23.2989 251.301 23.1449 251.455C22.9909 251.609 22.8039 251.686 22.5839 251.686ZM24.5663 247.495C24.5663 246.226 24.7789 245.236 25.2043 244.525C25.6369 243.806 26.3776 243.447 27.4263 243.447C28.4749 243.447 29.2119 243.806 29.6373 244.525C30.0699 245.236 30.2863 246.226 30.2863 247.495C30.2863 248.778 30.0699 249.783 29.6373 250.509C29.2119 251.228 28.4749 251.587 27.4263 251.587C26.3776 251.587 25.6369 251.228 25.2043 250.509C24.7789 249.783 24.5663 248.778 24.5663 247.495ZM29.0543 247.495C29.0543 246.901 29.0139 246.399 28.9333 245.988C28.8599 245.577 28.7059 245.244 28.4713 244.987C28.2366 244.723 27.8883 244.591 27.4263 244.591C26.9643 244.591 26.6159 244.723 26.3813 244.987C26.1466 245.244 25.9889 245.577 25.9083 245.988C25.8349 246.399 25.7983 246.901 25.7983 247.495C25.7983 248.111 25.8349 248.628 25.9083 249.046C25.9816 249.464 26.1356 249.801 26.3703 250.058C26.6123 250.315 26.9643 250.443 27.4263 250.443C27.8883 250.443 28.2366 250.315 28.4713 250.058C28.7133 249.801 28.8709 249.464 28.9443 249.046C29.0176 248.628 29.0543 248.111 29.0543 247.495ZM31.6131 247.495C31.6131 246.226 31.8258 245.236 32.2511 244.525C32.6838 243.806 33.4245 243.447 34.4731 243.447C35.5218 243.447 36.2588 243.806 36.6841 244.525C37.1168 245.236 37.3331 246.226 37.3331 247.495C37.3331 248.778 37.1168 249.783 36.6841 250.509C36.2588 251.228 35.5218 251.587 34.4731 251.587C33.4245 251.587 32.6838 251.228 32.2511 250.509C31.8258 249.783 31.6131 248.778 31.6131 247.495ZM36.1011 247.495C36.1011 246.901 36.0608 246.399 35.9801 245.988C35.9068 245.577 35.7528 245.244 35.5181 244.987C35.2835 244.723 34.9351 244.591 34.4731 244.591C34.0111 244.591 33.6628 244.723 33.4281 244.987C33.1935 245.244 33.0358 245.577 32.9551 245.988C32.8818 246.399 32.8451 246.901 32.8451 247.495C32.8451 248.111 32.8818 248.628 32.9551 249.046C33.0285 249.464 33.1825 249.801 33.4171 250.058C33.6591 250.315 34.0111 250.443 34.4731 250.443C34.9351 250.443 35.2835 250.315 35.5181 250.058C35.7601 249.801 35.9178 249.464 35.9911 249.046C36.0645 248.628 36.1011 248.111 36.1011 247.495Z" fill="#041242"/>
<path opacity="0.6" d="M17.2902 209.937V208.991L20.9862 203.689H22.5042V208.848H23.5272V209.937H22.5042V211.609H21.2722V209.937H17.2902ZM21.3272 204.965L18.7312 208.848H21.3272V204.965ZM24.5663 207.495C24.5663 206.226 24.7789 205.236 25.2043 204.525C25.6369 203.806 26.3776 203.447 27.4263 203.447C28.4749 203.447 29.2119 203.806 29.6373 204.525C30.0699 205.236 30.2863 206.226 30.2863 207.495C30.2863 208.778 30.0699 209.783 29.6373 210.509C29.2119 211.228 28.4749 211.587 27.4263 211.587C26.3776 211.587 25.6369 211.228 25.2043 210.509C24.7789 209.783 24.5663 208.778 24.5663 207.495ZM29.0543 207.495C29.0543 206.901 29.0139 206.399 28.9333 205.988C28.8599 205.577 28.7059 205.244 28.4713 204.987C28.2366 204.723 27.8883 204.591 27.4263 204.591C26.9643 204.591 26.6159 204.723 26.3813 204.987C26.1466 205.244 25.9889 205.577 25.9083 205.988C25.8349 206.399 25.7983 206.901 25.7983 207.495C25.7983 208.111 25.8349 208.628 25.9083 209.046C25.9816 209.464 26.1356 209.801 26.3703 210.058C26.6123 210.315 26.9643 210.443 27.4263 210.443C27.8883 210.443 28.2366 210.315 28.4713 210.058C28.7133 209.801 28.8709 209.464 28.9443 209.046C29.0176 208.628 29.0543 208.111 29.0543 207.495ZM31.6131 207.495C31.6131 206.226 31.8258 205.236 32.2511 204.525C32.6838 203.806 33.4245 203.447 34.4731 203.447C35.5218 203.447 36.2588 203.806 36.6841 204.525C37.1168 205.236 37.3331 206.226 37.3331 207.495C37.3331 208.778 37.1168 209.783 36.6841 210.509C36.2588 211.228 35.5218 211.587 34.4731 211.587C33.4245 211.587 32.6838 211.228 32.2511 210.509C31.8258 209.783 31.6131 208.778 31.6131 207.495ZM36.1011 207.495C36.1011 206.901 36.0608 206.399 35.9801 205.988C35.9068 205.577 35.7528 205.244 35.5181 204.987C35.2835 204.723 34.9351 204.591 34.4731 204.591C34.0111 204.591 33.6628 204.723 33.4281 204.987C33.1935 205.244 33.0358 205.577 32.9551 205.988C32.8818 206.399 32.8451 206.901 32.8451 207.495C32.8451 208.111 32.8818 208.628 32.9551 209.046C33.0285 209.464 33.1825 209.801 33.4171 210.058C33.6591 210.315 34.0111 210.443 34.4731 210.443C34.9351 210.443 35.2835 210.315 35.5181 210.058C35.7601 209.801 35.9178 209.464 35.9911 209.046C36.0645 208.628 36.1011 208.111 36.1011 207.495Z" fill="#041242"/>
<path opacity="0.6" d="M18.9046 167.418C18.1419 167.037 17.7606 166.435 17.7606 165.614C17.7606 165.218 17.8596 164.855 18.0576 164.525C18.2556 164.195 18.5526 163.935 18.9486 163.744C19.3446 163.546 19.8286 163.447 20.4006 163.447C20.9653 163.447 21.4456 163.546 21.8416 163.744C22.2449 163.935 22.5456 164.195 22.7436 164.525C22.9416 164.855 23.0406 165.218 23.0406 165.614C23.0406 166.025 22.9343 166.388 22.7216 166.703C22.5163 167.011 22.2413 167.249 21.8966 167.418C22.3146 167.572 22.6446 167.825 22.8866 168.177C23.1286 168.522 23.2496 168.929 23.2496 169.398C23.2496 169.875 23.1286 170.296 22.8866 170.663C22.6446 171.03 22.3073 171.312 21.8746 171.51C21.4419 171.708 20.9506 171.807 20.4006 171.807C19.8506 171.807 19.3593 171.708 18.9266 171.51C18.5013 171.312 18.1676 171.03 17.9256 170.663C17.6836 170.296 17.5626 169.875 17.5626 169.398C17.5626 168.921 17.6836 168.511 17.9256 168.166C18.1676 167.821 18.4939 167.572 18.9046 167.418ZM21.8416 165.768C21.8416 165.357 21.7133 165.042 21.4566 164.822C21.1999 164.602 20.8479 164.492 20.4006 164.492C19.9606 164.492 19.6123 164.602 19.3556 164.822C19.0989 165.042 18.9706 165.361 18.9706 165.779C18.9706 166.146 19.1026 166.446 19.3666 166.681C19.6379 166.908 19.9826 167.022 20.4006 167.022C20.8186 167.022 21.1633 166.905 21.4346 166.67C21.7059 166.435 21.8416 166.135 21.8416 165.768ZM20.4006 167.968C19.9166 167.968 19.5206 168.089 19.2126 168.331C18.9119 168.566 18.7616 168.907 18.7616 169.354C18.7616 169.772 18.9083 170.113 19.2016 170.377C19.4949 170.634 19.8946 170.762 20.4006 170.762C20.8993 170.762 21.2916 170.63 21.5776 170.366C21.8709 170.102 22.0176 169.765 22.0176 169.354C22.0176 168.914 21.8673 168.573 21.5666 168.331C21.2733 168.089 20.8846 167.968 20.4006 167.968ZM24.5663 167.495C24.5663 166.226 24.7789 165.236 25.2043 164.525C25.6369 163.806 26.3776 163.447 27.4263 163.447C28.4749 163.447 29.2119 163.806 29.6373 164.525C30.0699 165.236 30.2863 166.226 30.2863 167.495C30.2863 168.778 30.0699 169.783 29.6373 170.509C29.2119 171.228 28.4749 171.587 27.4263 171.587C26.3776 171.587 25.6369 171.228 25.2043 170.509C24.7789 169.783 24.5663 168.778 24.5663 167.495ZM29.0543 167.495C29.0543 166.901 29.0139 166.399 28.9333 165.988C28.8599 165.577 28.7059 165.244 28.4713 164.987C28.2366 164.723 27.8883 164.591 27.4263 164.591C26.9643 164.591 26.6159 164.723 26.3813 164.987C26.1466 165.244 25.9889 165.577 25.9083 165.988C25.8349 166.399 25.7983 166.901 25.7983 167.495C25.7983 168.111 25.8349 168.628 25.9083 169.046C25.9816 169.464 26.1356 169.801 26.3703 170.058C26.6123 170.315 26.9643 170.443 27.4263 170.443C27.8883 170.443 28.2366 170.315 28.4713 170.058C28.7133 169.801 28.8709 169.464 28.9443 169.046C29.0176 168.628 29.0543 168.111 29.0543 167.495ZM31.6131 167.495C31.6131 166.226 31.8258 165.236 32.2511 164.525C32.6838 163.806 33.4245 163.447 34.4731 163.447C35.5218 163.447 36.2588 163.806 36.6841 164.525C37.1168 165.236 37.3331 166.226 37.3331 167.495C37.3331 168.778 37.1168 169.783 36.6841 170.509C36.2588 171.228 35.5218 171.587 34.4731 171.587C33.4245 171.587 32.6838 171.228 32.2511 170.509C31.8258 169.783 31.6131 168.778 31.6131 167.495ZM36.1011 167.495C36.1011 166.901 36.0608 166.399 35.9801 165.988C35.9068 165.577 35.7528 165.244 35.5181 164.987C35.2835 164.723 34.9351 164.591 34.4731 164.591C34.0111 164.591 33.6628 164.723 33.4281 164.987C33.1935 165.244 33.0358 165.577 32.9551 165.988C32.8818 166.399 32.8451 166.901 32.8451 167.495C32.8451 168.111 32.8818 168.628 32.9551 169.046C33.0285 169.464 33.1825 169.801 33.4171 170.058C33.6591 170.315 34.0111 170.443 34.4731 170.443C34.9351 170.443 35.2835 170.315 35.5181 170.058C35.7601 169.801 35.9178 169.464 35.9911 169.046C36.0645 168.628 36.1011 168.111 36.1011 167.495Z" fill="#041242"/>
<path opacity="0.6" d="M11.7362 124.734V123.59H14.0242V131.609H12.7592V124.734H11.7362ZM17.2869 130.102L15.9559 133.138H15.1419L15.9229 130.102H17.2869ZM18.9106 129.904C19.6146 129.295 20.1683 128.797 20.5716 128.408C20.9823 128.012 21.3233 127.601 21.5946 127.176C21.866 126.751 22.0016 126.325 22.0016 125.9C22.0016 125.46 21.8953 125.115 21.6826 124.866C21.4773 124.617 21.151 124.492 20.7036 124.492C20.271 124.492 19.9336 124.631 19.6916 124.91C19.457 125.181 19.3323 125.548 19.3176 126.01H18.1076C18.1296 125.174 18.379 124.536 18.8556 124.096C19.3396 123.649 19.952 123.425 20.6926 123.425C21.492 123.425 22.1153 123.645 22.5626 124.085C23.0173 124.525 23.2446 125.112 23.2446 125.845C23.2446 126.373 23.109 126.883 22.8376 127.374C22.5736 127.858 22.2546 128.294 21.8806 128.683C21.514 129.064 21.0446 129.508 20.4726 130.014L19.9776 130.454H23.4646V131.499H18.1186V130.586L18.9106 129.904ZM24.5663 127.495C24.5663 126.226 24.7789 125.236 25.2043 124.525C25.6369 123.806 26.3776 123.447 27.4263 123.447C28.4749 123.447 29.2119 123.806 29.6373 124.525C30.0699 125.236 30.2863 126.226 30.2863 127.495C30.2863 128.778 30.0699 129.783 29.6373 130.509C29.2119 131.228 28.4749 131.587 27.4263 131.587C26.3776 131.587 25.6369 131.228 25.2043 130.509C24.7789 129.783 24.5663 128.778 24.5663 127.495ZM29.0543 127.495C29.0543 126.901 29.0139 126.399 28.9333 125.988C28.8599 125.577 28.7059 125.244 28.4713 124.987C28.2366 124.723 27.8883 124.591 27.4263 124.591C26.9643 124.591 26.6159 124.723 26.3813 124.987C26.1466 125.244 25.9889 125.577 25.9083 125.988C25.8349 126.399 25.7983 126.901 25.7983 127.495C25.7983 128.111 25.8349 128.628 25.9083 129.046C25.9816 129.464 26.1356 129.801 26.3703 130.058C26.6123 130.315 26.9643 130.443 27.4263 130.443C27.8883 130.443 28.2366 130.315 28.4713 130.058C28.7133 129.801 28.8709 129.464 28.9443 129.046C29.0176 128.628 29.0543 128.111 29.0543 127.495ZM31.6131 127.495C31.6131 126.226 31.8258 125.236 32.2511 124.525C32.6838 123.806 33.4245 123.447 34.4731 123.447C35.5218 123.447 36.2588 123.806 36.6841 124.525C37.1168 125.236 37.3331 126.226 37.3331 127.495C37.3331 128.778 37.1168 129.783 36.6841 130.509C36.2588 131.228 35.5218 131.587 34.4731 131.587C33.4245 131.587 32.6838 131.228 32.2511 130.509C31.8258 129.783 31.6131 128.778 31.6131 127.495ZM36.1011 127.495C36.1011 126.901 36.0608 126.399 35.9801 125.988C35.9068 125.577 35.7528 125.244 35.5181 124.987C35.2835 124.723 34.9351 124.591 34.4731 124.591C34.0111 124.591 33.6628 124.723 33.4281 124.987C33.1935 125.244 33.0358 125.577 32.9551 125.988C32.8818 126.399 32.8451 126.901 32.8451 127.495C32.8451 128.111 32.8818 128.628 32.9551 129.046C33.0285 129.464 33.1825 129.801 33.4171 130.058C33.6591 130.315 34.0111 130.443 34.4731 130.443C34.9351 130.443 35.2835 130.315 35.5181 130.058C35.7601 129.801 35.9178 129.464 35.9911 129.046C36.0645 128.628 36.1011 128.111 36.1011 127.495Z" fill="#041242"/>
<path opacity="0.6" d="M11.0272 84.7339V83.5899H13.3152V91.6089H12.0502V84.7339H11.0272ZM16.5779 90.1019L15.2469 93.1379H14.4329L15.2139 90.1019H16.5779ZM21.8206 85.4489C21.74 85.1116 21.5933 84.8586 21.3806 84.6899C21.168 84.5212 20.871 84.4369 20.4896 84.4369C19.9103 84.4369 19.4776 84.6606 19.1916 85.1079C18.9056 85.5479 18.7553 86.2812 18.7406 87.3079C18.9313 86.9852 19.21 86.7359 19.5766 86.5599C19.9433 86.3839 20.3393 86.2959 20.7646 86.2959C21.2486 86.2959 21.674 86.4022 22.0406 86.6149C22.4146 86.8202 22.7043 87.1209 22.9096 87.5169C23.1223 87.9129 23.2286 88.3859 23.2286 88.9359C23.2286 89.4492 23.126 89.9076 22.9206 90.3109C22.7226 90.7142 22.4256 91.0332 22.0296 91.2679C21.6336 91.4952 21.157 91.6089 20.5996 91.6089C19.8443 91.6089 19.2503 91.4439 18.8176 91.1139C18.3923 90.7766 18.0916 90.3036 17.9156 89.6949C17.747 89.0862 17.6626 88.3272 17.6626 87.4179C17.6626 84.7339 18.6086 83.3919 20.5006 83.3919C21.234 83.3919 21.8096 83.5899 22.2276 83.9859C22.653 84.3819 22.9023 84.8696 22.9756 85.4489H21.8206ZM20.4896 87.3519C20.0423 87.3519 19.661 87.4876 19.3456 87.7589C19.0376 88.0229 18.8836 88.4079 18.8836 88.9139C18.8836 89.4199 19.0266 89.8232 19.3126 90.1239C19.606 90.4172 20.013 90.5639 20.5336 90.5639C20.9956 90.5639 21.3586 90.4209 21.6226 90.1349C21.894 89.8489 22.0296 89.4676 22.0296 88.9909C22.0296 88.4922 21.8976 88.0962 21.6336 87.8029C21.377 87.5022 20.9956 87.3519 20.4896 87.3519ZM24.5663 87.4949C24.5663 86.2262 24.7789 85.2362 25.2043 84.5249C25.6369 83.8062 26.3776 83.4469 27.4263 83.4469C28.4749 83.4469 29.2119 83.8062 29.6373 84.5249C30.0699 85.2362 30.2863 86.2262 30.2863 87.4949C30.2863 88.7782 30.0699 89.7829 29.6373 90.5089C29.2119 91.2276 28.4749 91.5869 27.4263 91.5869C26.3776 91.5869 25.6369 91.2276 25.2043 90.5089C24.7789 89.7829 24.5663 88.7782 24.5663 87.4949ZM29.0543 87.4949C29.0543 86.9009 29.0139 86.3986 28.9333 85.9879C28.8599 85.5772 28.7059 85.2436 28.4713 84.9869C28.2366 84.7229 27.8883 84.5909 27.4263 84.5909C26.9643 84.5909 26.6159 84.7229 26.3813 84.9869C26.1466 85.2436 25.9889 85.5772 25.9083 85.9879C25.8349 86.3986 25.7983 86.9009 25.7983 87.4949C25.7983 88.1109 25.8349 88.6279 25.9083 89.0459C25.9816 89.4639 26.1356 89.8012 26.3703 90.0579C26.6123 90.3146 26.9643 90.4429 27.4263 90.4429C27.8883 90.4429 28.2366 90.3146 28.4713 90.0579C28.7133 89.8012 28.8709 89.4639 28.9443 89.0459C29.0176 88.6279 29.0543 88.1109 29.0543 87.4949ZM31.6131 87.4949C31.6131 86.2262 31.8258 85.2362 32.2511 84.5249C32.6838 83.8062 33.4245 83.4469 34.4731 83.4469C35.5218 83.4469 36.2588 83.8062 36.6841 84.5249C37.1168 85.2362 37.3331 86.2262 37.3331 87.4949C37.3331 88.7782 37.1168 89.7829 36.6841 90.5089C36.2588 91.2276 35.5218 91.5869 34.4731 91.5869C33.4245 91.5869 32.6838 91.2276 32.2511 90.5089C31.8258 89.7829 31.6131 88.7782 31.6131 87.4949ZM36.1011 87.4949C36.1011 86.9009 36.0608 86.3986 35.9801 85.9879C35.9068 85.5772 35.7528 85.2436 35.5181 84.9869C35.2835 84.7229 34.9351 84.5909 34.4731 84.5909C34.0111 84.5909 33.6628 84.7229 33.4281 84.9869C33.1935 85.2436 33.0358 85.5772 32.9551 85.9879C32.8818 86.3986 32.8451 86.9009 32.8451 87.4949C32.8451 88.1109 32.8818 88.6279 32.9551 89.0459C33.0285 89.4639 33.1825 89.8012 33.4171 90.0579C33.6591 90.3146 34.0111 90.4429 34.4731 90.4429C34.9351 90.4429 35.2835 90.3146 35.5181 90.0579C35.7601 89.8012 35.9178 89.4639 35.9911 89.0459C36.0645 88.6279 36.1011 88.1109 36.1011 87.4949Z" fill="#041242"/>
<path opacity="0.6" d="M9.39304 50.295C10.097 49.6863 10.6507 49.1877 11.054 48.799C11.4647 48.403 11.8057 47.9923 12.077 47.567C12.3484 47.1417 12.484 46.7163 12.484 46.291C12.484 45.851 12.3777 45.5063 12.165 45.257C11.9597 45.0077 11.6334 44.883 11.186 44.883C10.7534 44.883 10.416 45.0223 10.174 45.301C9.93937 45.5723 9.81471 45.939 9.80004 46.401H8.59004C8.61204 45.565 8.86137 44.927 9.33804 44.487C9.82204 44.0397 10.4344 43.816 11.175 43.816C11.9744 43.816 12.5977 44.036 13.045 44.476C13.4997 44.916 13.727 45.5027 13.727 46.236C13.727 46.764 13.5914 47.2737 13.32 47.765C13.056 48.249 12.737 48.6853 12.363 49.074C11.9964 49.4553 11.527 49.899 10.955 50.405L10.46 50.845H13.947V51.89H8.60104V50.977L9.39304 50.295ZM16.5887 50.493L15.2577 53.529H14.4437L15.2247 50.493H16.5887ZM17.5194 47.886C17.5194 46.6173 17.732 45.6273 18.1574 44.916C18.59 44.1973 19.3307 43.838 20.3794 43.838C21.428 43.838 22.165 44.1973 22.5904 44.916C23.023 45.6273 23.2394 46.6173 23.2394 47.886C23.2394 49.1693 23.023 50.174 22.5904 50.9C22.165 51.6187 21.428 51.978 20.3794 51.978C19.3307 51.978 18.59 51.6187 18.1574 50.9C17.732 50.174 17.5194 49.1693 17.5194 47.886ZM22.0074 47.886C22.0074 47.292 21.967 46.7897 21.8864 46.379C21.813 45.9683 21.659 45.6347 21.4244 45.378C21.1897 45.114 20.8414 44.982 20.3794 44.982C19.9174 44.982 19.569 45.114 19.3344 45.378C19.0997 45.6347 18.942 45.9683 18.8614 46.379C18.788 46.7897 18.7514 47.292 18.7514 47.886C18.7514 48.502 18.788 49.019 18.8614 49.437C18.9347 49.855 19.0887 50.1923 19.3234 50.449C19.5654 50.7057 19.9174 50.834 20.3794 50.834C20.8414 50.834 21.1897 50.7057 21.4244 50.449C21.6664 50.1923 21.824 49.855 21.8974 49.437C21.9707 49.019 22.0074 48.502 22.0074 47.886ZM24.5663 47.886C24.5663 46.6173 24.7789 45.6273 25.2043 44.916C25.6369 44.1973 26.3776 43.838 27.4263 43.838C28.4749 43.838 29.2119 44.1973 29.6373 44.916C30.0699 45.6273 30.2863 46.6173 30.2863 47.886C30.2863 49.1693 30.0699 50.174 29.6373 50.9C29.2119 51.6187 28.4749 51.978 27.4263 51.978C26.3776 51.978 25.6369 51.6187 25.2043 50.9C24.7789 50.174 24.5663 49.1693 24.5663 47.886ZM29.0543 47.886C29.0543 47.292 29.0139 46.7897 28.9333 46.379C28.8599 45.9683 28.7059 45.6347 28.4713 45.378C28.2366 45.114 27.8883 44.982 27.4263 44.982C26.9643 44.982 26.6159 45.114 26.3813 45.378C26.1466 45.6347 25.9889 45.9683 25.9083 46.379C25.8349 46.7897 25.7983 47.292 25.7983 47.886C25.7983 48.502 25.8349 49.019 25.9083 49.437C25.9816 49.855 26.1356 50.1923 26.3703 50.449C26.6123 50.7057 26.9643 50.834 27.4263 50.834C27.8883 50.834 28.2366 50.7057 28.4713 50.449C28.7133 50.1923 28.8709 49.855 28.9443 49.437C29.0176 49.019 29.0543 48.502 29.0543 47.886ZM31.6131 47.886C31.6131 46.6173 31.8258 45.6273 32.2511 44.916C32.6838 44.1973 33.4245 43.838 34.4731 43.838C35.5218 43.838 36.2588 44.1973 36.6841 44.916C37.1168 45.6273 37.3331 46.6173 37.3331 47.886C37.3331 49.1693 37.1168 50.174 36.6841 50.9C36.2588 51.6187 35.5218 51.978 34.4731 51.978C33.4245 51.978 32.6838 51.6187 32.2511 50.9C31.8258 50.174 31.6131 49.1693 31.6131 47.886ZM36.1011 47.886C36.1011 47.292 36.0608 46.7897 35.9801 46.379C35.9068 45.9683 35.7528 45.6347 35.5181 45.378C35.2835 45.114 34.9351 44.982 34.4731 44.982C34.0111 44.982 33.6628 45.114 33.4281 45.378C33.1935 45.6347 33.0358 45.9683 32.9551 46.379C32.8818 46.7897 32.8451 47.292 32.8451 47.886C32.8451 48.502 32.8818 49.019 32.9551 49.437C33.0285 49.855 33.1825 50.1923 33.4171 50.449C33.6591 50.7057 34.0111 50.834 34.4731 50.834C34.9351 50.834 35.2835 50.7057 35.5181 50.449C35.7601 50.1923 35.9178 49.855 35.9911 49.437C36.0645 49.019 36.1011 48.502 36.1011 47.886Z" fill="#041242"/>
<g filter="url(#filter0_d)">
<circle cx="246.804" cy="84.7056" r="8.36247" fill="#1A3148"/>
<circle cx="246.804" cy="84.7056" r="8.36247" stroke="white" stroke-width="5.57498"/>
</g>
<path opacity="0.1" d="M85.4412 31C85.4412 29.8954 86.3366 29 87.4412 29C88.5457 29 89.4412 29.8954 89.4412 31V258H85.4412V31Z" fill="#7D9EB5"/>
<path opacity="0.1" d="M125.441 31C125.441 29.8954 126.337 29 127.441 29C128.546 29 129.441 29.8954 129.441 31V258H125.441V31Z" fill="#7D9EB5"/>
<path opacity="0.1" d="M165.441 31C165.441 29.8954 166.337 29 167.441 29C168.546 29 169.441 29.8954 169.441 31V258H165.441V31Z" fill="#7D9EB5"/>
<path opacity="0.1" d="M205.441 31C205.441 29.8954 206.337 29 207.441 29C208.546 29 209.441 29.8954 209.441 31V258H205.441V31Z" fill="#7D9EB5"/>
<path opacity="0.1" d="M245.441 31C245.441 29.8954 246.337 29 247.441 29C248.546 29 249.441 29.8954 249.441 31V258H245.441V31Z" fill="#7D9EB5"/>
<path opacity="0.1" d="M285.441 31C285.441 29.8954 286.337 29 287.441 29C288.546 29 289.441 29.8954 289.441 31V258H285.441V31Z" fill="#7D9EB5"/>
<path opacity="0.1" d="M325.441 31C325.441 29.8954 326.337 29 327.441 29C328.546 29 329.441 29.8954 329.441 31V258H325.441V31Z" fill="#7D9EB5"/>
<path opacity="0.1" d="M365.441 31C365.441 29.8954 366.337 29 367.441 29C368.546 29 369.441 29.8954 369.441 31V258H365.441V31Z" fill="#7D9EB5"/>
<path opacity="0.1" d="M485.441 31C485.441 29.8954 486.337 29 487.441 29C488.546 29 489.441 29.8954 489.441 31V258H485.441V31Z" fill="#7D9EB5"/>
<path opacity="0.1" d="M405.441 31C405.441 29.8954 406.337 29 407.441 29C408.546 29 409.441 29.8954 409.441 31V258H405.441V31Z" fill="#7D9EB5"/>
<path opacity="0.1" d="M445.441 31C445.441 29.8954 446.337 29 447.441 29C448.546 29 449.441 29.8954 449.441 31V258H445.441V31Z" fill="#7D9EB5"/>
<path opacity="0.1" d="M525.441 31C525.441 29.8954 526.337 29 527.441 29C528.546 29 529.441 29.8954 529.441 31V258H525.441V31Z" fill="#7D9EB5"/>
<path opacity="0.1" d="M565.441 31C565.441 29.8954 566.337 29 567.441 29C568.546 29 569.441 29.8954 569.441 31V258H565.441V31Z" fill="#7D9EB5"/>
<path d="M85.4412 165C85.4412 163.895 86.3366 163 87.4412 163C88.5457 163 89.4412 163.895 89.4412 165V258H85.4412V165Z" fill="#FF9931"/>
<path d="M125.441 90C125.441 88.8954 126.337 88 127.441 88C128.546 88 129.441 88.8954 129.441 90V258H125.441V90Z" fill="#FF9931"/>
<path d="M165.441 102C165.441 100.895 166.337 100 167.441 100C168.546 100 169.441 100.895 169.441 102V258H165.441V102Z" fill="#FF9931"/>
<path d="M205.441 90C205.441 88.8954 206.337 88 207.441 88C208.546 88 209.441 88.8954 209.441 90V258H205.441V90Z" fill="#FF9931"/>
<path d="M245.441 110C245.441 108.895 246.337 108 247.441 108C248.546 108 249.441 108.895 249.441 110V258H245.441V110Z" fill="#FF9931"/>
<path d="M285.441 165C285.441 163.895 286.337 163 287.441 163C288.546 163 289.441 163.895 289.441 165V258H285.441V165Z" fill="#FF9931"/>
<path d="M325.441 90C325.441 88.8954 326.337 88 327.441 88C328.546 88 329.441 88.8954 329.441 90V258H325.441V90Z" fill="#FF9931"/>
<path d="M365.441 122C365.441 120.895 366.337 120 367.441 120C368.546 120 369.441 120.895 369.441 122V258H365.441V122Z" fill="#FF9931"/>
<path d="M485.441 122C485.441 120.895 486.337 120 487.441 120C488.546 120 489.441 120.895 489.441 122V258H485.441V122Z" fill="#FF9931"/>
<path d="M405.441 90C405.441 88.8954 406.337 88 407.441 88C408.546 88 409.441 88.8954 409.441 90V258H405.441V90Z" fill="#FF9931"/>
<path d="M445.441 139C445.441 137.895 446.337 137 447.441 137C448.546 137 449.441 137.895 449.441 139V258H445.441V139Z" fill="#FF9931"/>
<path d="M525.441 139C525.441 137.895 526.337 137 527.441 137C528.546 137 529.441 137.895 529.441 139V258H525.441V139Z" fill="#FF9931"/>
<path d="M565.441 78C565.441 76.8954 566.337 76 567.441 76C568.546 76 569.441 76.8954 569.441 78V258H565.441V78Z" fill="#FF9931"/>
<path d="M85.4412 180C85.4412 178.895 86.3366 178 87.4412 178C88.5457 178 89.4412 178.895 89.4412 180V258H85.4412V180Z" fill="#1A3148"/>
<path d="M125.441 116C125.441 114.895 126.337 114 127.441 114C128.546 114 129.441 114.895 129.441 116V258H125.441V116Z" fill="#1A3148"/>
<path d="M165.441 126C165.441 124.895 166.337 124 167.441 124C168.546 124 169.441 124.895 169.441 126V258H165.441V126Z" fill="#1A3148"/>
<path d="M205.441 116C205.441 114.895 206.337 114 207.441 114C208.546 114 209.441 114.895 209.441 116V258H205.441V116Z" fill="#1A3148"/>
<path d="M245.441 133C245.441 131.895 246.337 131 247.441 131C248.546 131 249.441 131.895 249.441 133V258H245.441V133Z" fill="#1A3148"/>
<path d="M285.441 180C285.441 178.895 286.337 178 287.441 178C288.546 178 289.441 178.895 289.441 180V258H285.441V180Z" fill="#1A3148"/>
<path d="M325.441 116C325.441 114.895 326.337 114 327.441 114C328.546 114 329.441 114.895 329.441 116V258H325.441V116Z" fill="#1A3148"/>
<path d="M365.441 143C365.441 141.895 366.337 141 367.441 141C368.546 141 369.441 141.895 369.441 143V258H365.441V143Z" fill="#1A3148"/>
<path d="M485.441 143C485.441 141.895 486.337 141 487.441 141C488.546 141 489.441 141.895 489.441 143V258H485.441V143Z" fill="#1A3148"/>
<path d="M405.441 116C405.441 114.895 406.337 114 407.441 114C408.546 114 409.441 114.895 409.441 116V258H405.441V116Z" fill="#1A3148"/>
<path d="M445.441 158C445.441 156.895 446.337 156 447.441 156C448.546 156 449.441 156.895 449.441 158V258H445.441V158Z" fill="#1A3148"/>
<path d="M525.441 158C525.441 156.895 526.337 156 527.441 156C528.546 156 529.441 156.895 529.441 158V258H525.441V158Z" fill="#1A3148"/>
<path d="M565.441 107C565.441 105.895 566.337 105 567.441 105C568.546 105 569.441 105.895 569.441 107V258H565.441V107Z" fill="#1A3148"/>
<g filter="url(#filter1_d)">
<rect x="201.441" y="15" width="93.7353" height="53.4379" rx="5.25618" fill="white"/>
</g>
<path opacity="0.8" d="M222.249 35.6364H221.05L217.444 30.1804V35.6364H216.246V28.3197H217.444L221.05 33.7652V28.3197H222.249V35.6364ZM227.155 35.7099C226.475 35.7099 225.848 35.5523 225.273 35.2369C224.705 34.9145 224.253 34.4695 223.917 33.9018C223.588 33.3271 223.423 32.6824 223.423 31.9675C223.423 31.2527 223.588 30.6114 223.917 30.0438C224.253 29.4761 224.705 29.0346 225.273 28.7192C225.848 28.3968 226.475 28.2356 227.155 28.2356C227.842 28.2356 228.469 28.3968 229.037 28.7192C229.611 29.0346 230.063 29.4761 230.393 30.0438C230.722 30.6114 230.887 31.2527 230.887 31.9675C230.887 32.6824 230.722 33.3271 230.393 33.9018C230.063 34.4695 229.611 34.9145 229.037 35.2369C228.469 35.5523 227.842 35.7099 227.155 35.7099ZM227.155 34.6692C227.638 34.6692 228.069 34.5606 228.448 34.3433C228.826 34.1191 229.121 33.8037 229.331 33.3972C229.548 32.9837 229.657 32.5072 229.657 31.9675C229.657 31.4279 229.548 30.9548 229.331 30.5484C229.121 30.1419 228.826 29.83 228.448 29.6128C228.069 29.3955 227.638 29.2869 227.155 29.2869C226.671 29.2869 226.24 29.3955 225.862 29.6128C225.483 29.83 225.185 30.1419 224.968 30.5484C224.758 30.9548 224.653 31.4279 224.653 31.9675C224.653 32.5072 224.758 32.9837 224.968 33.3972C225.185 33.8037 225.483 34.1191 225.862 34.3433C226.24 34.5606 226.671 34.6692 227.155 34.6692ZM238.363 28.3303L235.619 35.6364H234.231L231.477 28.3303H232.76L234.925 34.4064L237.101 28.3303H238.363ZM241.78 29.0661V27.9728H243.967V35.6364H242.758V29.0661H241.78ZM247.106 33.5549C247.176 33.9053 247.327 34.1716 247.558 34.3538C247.789 34.5361 248.101 34.6272 248.494 34.6272C248.991 34.6272 249.356 34.4309 249.587 34.0385C249.818 33.646 249.934 32.9767 249.934 32.0306C249.766 32.2689 249.527 32.4546 249.219 32.5878C248.918 32.7139 248.588 32.777 248.231 32.777C247.775 32.777 247.362 32.6859 246.99 32.5037C246.619 32.3144 246.325 32.0376 246.107 31.6732C245.897 31.3018 245.792 30.8532 245.792 30.3276C245.792 29.5567 246.016 28.9435 246.465 28.4879C246.92 28.0254 247.544 27.7941 248.336 27.7941C249.289 27.7941 249.965 28.113 250.365 28.7508C250.771 29.3815 250.975 30.3521 250.975 31.6627C250.975 32.5667 250.898 33.3061 250.743 33.8808C250.596 34.4555 250.337 34.89 249.965 35.1843C249.594 35.4787 249.079 35.6258 248.42 35.6258C247.67 35.6258 247.092 35.4296 246.686 35.0371C246.279 34.6447 246.051 34.1506 246.002 33.5549H247.106ZM248.441 31.7678C248.862 31.7678 249.191 31.6381 249.429 31.3788C249.675 31.1125 249.797 30.7621 249.797 30.3276C249.797 29.844 249.668 29.4691 249.408 29.2028C249.156 28.9295 248.809 28.7928 248.368 28.7928C247.926 28.7928 247.576 28.933 247.316 29.2133C247.064 29.4866 246.938 29.8475 246.938 30.2961C246.938 30.7236 247.061 31.0775 247.306 31.3578C247.558 31.6311 247.937 31.7678 248.441 31.7678ZM253.758 34.1962L252.486 37.0976H251.708L252.454 34.1962H253.758ZM258.04 34.0069C258.713 33.4253 259.242 32.9487 259.628 32.5773C260.02 32.1988 260.346 31.8063 260.605 31.3999C260.865 30.9934 260.994 30.5869 260.994 30.1804C260.994 29.7599 260.893 29.4306 260.69 29.1923C260.493 28.954 260.181 28.8349 259.754 28.8349C259.34 28.8349 259.018 28.968 258.787 29.2343C258.563 29.4936 258.443 29.844 258.429 30.2856H257.273C257.294 29.4866 257.532 28.8769 257.988 28.4564C258.45 28.0289 259.036 27.8152 259.743 27.8152C260.507 27.8152 261.103 28.0254 261.531 28.4459C261.965 28.8664 262.182 29.427 262.182 30.1279C262.182 30.6325 262.053 31.1195 261.793 31.5891C261.541 32.0516 261.236 32.4686 260.879 32.8401C260.528 33.2045 260.08 33.6285 259.533 34.1121L259.06 34.5326H262.393V35.5312H257.284V34.6587L258.04 34.0069ZM263.445 31.7047C263.445 30.4923 263.649 29.5462 264.055 28.8664C264.469 28.1796 265.176 27.8362 266.179 27.8362C267.181 27.8362 267.885 28.1796 268.292 28.8664C268.705 29.5462 268.912 30.4923 268.912 31.7047C268.912 32.9312 268.705 33.8913 268.292 34.5851C267.885 35.2719 267.181 35.6153 266.179 35.6153C265.176 35.6153 264.469 35.2719 264.055 34.5851C263.649 33.8913 263.445 32.9312 263.445 31.7047ZM267.734 31.7047C267.734 31.1371 267.696 30.657 267.619 30.2645C267.549 29.8721 267.402 29.5532 267.177 29.3079C266.953 29.0556 266.62 28.9295 266.179 28.9295C265.737 28.9295 265.404 29.0556 265.18 29.3079C264.956 29.5532 264.805 29.8721 264.728 30.2645C264.658 30.657 264.623 31.1371 264.623 31.7047C264.623 32.2934 264.658 32.7875 264.728 33.187C264.798 33.5864 264.945 33.9088 265.169 34.1541C265.401 34.3994 265.737 34.522 266.179 34.522C266.62 34.522 266.953 34.3994 267.177 34.1541C267.409 33.9088 267.559 33.5864 267.629 33.187C267.699 32.7875 267.734 32.2934 267.734 31.7047ZM270.842 34.0069C271.515 33.4253 272.044 32.9487 272.43 32.5773C272.822 32.1988 273.148 31.8063 273.407 31.3999C273.666 30.9934 273.796 30.5869 273.796 30.1804C273.796 29.7599 273.694 29.4306 273.491 29.1923C273.295 28.954 272.983 28.8349 272.556 28.8349C272.142 28.8349 271.82 28.968 271.589 29.2343C271.364 29.4936 271.245 29.844 271.231 30.2856H270.075C270.096 29.4866 270.334 28.8769 270.79 28.4564C271.252 28.0289 271.837 27.8152 272.545 27.8152C273.309 27.8152 273.905 28.0254 274.332 28.4459C274.767 28.8664 274.984 29.427 274.984 30.1279C274.984 30.6325 274.854 31.1195 274.595 31.5891C274.343 32.0516 274.038 32.4686 273.68 32.8401C273.33 33.2045 272.882 33.6285 272.335 34.1121L271.862 34.5326H275.194V35.5312H270.085V34.6587L270.842 34.0069ZM276.247 31.7047C276.247 30.4923 276.45 29.5462 276.857 28.8664C277.27 28.1796 277.978 27.8362 278.98 27.8362C279.982 27.8362 280.687 28.1796 281.093 28.8664C281.507 29.5462 281.713 30.4923 281.713 31.7047C281.713 32.9312 281.507 33.8913 281.093 34.5851C280.687 35.2719 279.982 35.6153 278.98 35.6153C277.978 35.6153 277.27 35.2719 276.857 34.5851C276.45 33.8913 276.247 32.9312 276.247 31.7047ZM280.536 31.7047C280.536 31.1371 280.498 30.657 280.42 30.2645C280.35 29.8721 280.203 29.5532 279.979 29.3079C279.755 29.0556 279.422 28.9295 278.98 28.9295C278.539 28.9295 278.206 29.0556 277.982 29.3079C277.757 29.5532 277.607 29.8721 277.53 30.2645C277.459 30.657 277.424 31.1371 277.424 31.7047C277.424 32.2934 277.459 32.7875 277.53 33.187C277.6 33.5864 277.747 33.9088 277.971 34.1541C278.202 34.3994 278.539 34.522 278.98 34.522C279.422 34.522 279.755 34.3994 279.979 34.1541C280.21 33.9088 280.361 33.5864 280.431 33.187C280.501 32.7875 280.536 32.2934 280.536 31.7047Z" fill="#0D1A4D"/>
<path d="M222.73 50.903C222.73 51.3527 222.612 51.7696 222.375 52.1539C222.146 52.53 221.802 52.8407 221.345 53.086C220.895 53.3231 220.359 53.454 219.738 53.4785V54.4719H218.953V53.4662C218.086 53.3926 217.387 53.1351 216.856 52.6936C216.324 52.2439 216.042 51.6347 216.01 50.8662H218.242C218.291 51.3567 218.528 51.6715 218.953 51.8105V49.8728C218.315 49.7092 217.804 49.5498 217.42 49.3944C217.044 49.2391 216.713 48.9897 216.427 48.6463C216.14 48.3029 215.997 47.8328 215.997 47.2359C215.997 46.4919 216.271 45.895 216.819 45.4453C217.375 44.9956 218.086 44.7421 218.953 44.6849V43.6915H219.738V44.6849C220.596 44.7503 221.275 44.9997 221.774 45.433C222.273 45.8664 222.551 46.4673 222.608 47.2359H220.363C220.314 46.7944 220.106 46.5082 219.738 46.3774V48.2784C220.417 48.4664 220.94 48.634 221.308 48.7812C221.676 48.9284 222.003 49.1737 222.289 49.5171C222.583 49.8523 222.73 50.3143 222.73 50.903ZM218.217 47.1378C218.217 47.3422 218.278 47.5139 218.401 47.6529C218.532 47.7919 218.716 47.9145 218.953 48.0208V46.3161C218.724 46.3569 218.544 46.4469 218.413 46.5859C218.283 46.7167 218.217 46.9007 218.217 47.1378ZM219.738 51.8473C219.983 51.8064 220.175 51.7083 220.314 51.553C220.462 51.3976 220.535 51.2055 220.535 50.9765C220.535 50.764 220.466 50.5923 220.327 50.4614C220.196 50.3224 220 50.2039 219.738 50.1058V51.8473ZM223.861 46.4019V44.4519H227.259V53.4049H225.075V46.4019H223.861ZM231.158 51.4671L229.797 54.987H228.46L229.171 51.4671H231.158ZM234.471 50.7803C234.594 51.4262 234.97 51.7492 235.599 51.7492C236.033 51.7492 236.339 51.5571 236.519 51.1728C236.699 50.7885 236.789 50.163 236.789 49.2963C236.609 49.5498 236.364 49.746 236.053 49.885C235.742 50.024 235.395 50.0935 235.011 50.0935C234.487 50.0935 234.021 49.9872 233.613 49.7746C233.204 49.5539 232.881 49.2309 232.644 48.8057C232.415 48.3724 232.3 47.8491 232.3 47.2359C232.3 46.6309 232.423 46.1035 232.668 45.6538C232.922 45.2041 233.277 44.8566 233.735 44.6113C234.201 44.366 234.749 44.2434 235.379 44.2434C236.589 44.2434 237.435 44.6195 237.917 45.3717C238.4 46.1239 238.641 47.2318 238.641 48.6954C238.641 49.7583 238.543 50.6372 238.347 51.3322C238.159 52.019 237.836 52.5423 237.378 52.9021C236.928 53.2618 236.311 53.4417 235.526 53.4417C234.904 53.4417 234.373 53.3191 233.931 53.0738C233.498 52.8285 233.163 52.5055 232.926 52.1049C232.697 51.7042 232.566 51.2627 232.533 50.7803H234.471ZM235.489 48.4378C235.832 48.4378 236.106 48.3356 236.311 48.1312C236.515 47.9186 236.617 47.6324 236.617 47.2727C236.617 46.8802 236.511 46.5777 236.298 46.3651C236.086 46.1525 235.8 46.0462 235.44 46.0462C235.08 46.0462 234.794 46.1566 234.581 46.3774C234.377 46.59 234.275 46.8843 234.275 47.2604C234.275 47.612 234.377 47.8982 234.581 48.1189C234.794 48.3315 235.097 48.4378 235.489 48.4378ZM242.017 50.7803C242.139 51.4262 242.515 51.7492 243.145 51.7492C243.578 51.7492 243.885 51.5571 244.065 51.1728C244.245 50.7885 244.335 50.163 244.335 49.2963C244.155 49.5498 243.909 49.746 243.599 49.885C243.288 50.024 242.94 50.0935 242.556 50.0935C242.033 50.0935 241.567 49.9872 241.158 49.7746C240.749 49.5539 240.426 49.2309 240.189 48.8057C239.96 48.3724 239.846 47.8491 239.846 47.2359C239.846 46.6309 239.968 46.1035 240.214 45.6538C240.467 45.2041 240.823 44.8566 241.281 44.6113C241.747 44.366 242.295 44.2434 242.924 44.2434C244.134 44.2434 244.98 44.6195 245.463 45.3717C245.945 46.1239 246.186 47.2318 246.186 48.6954C246.186 49.7583 246.088 50.6372 245.892 51.3322C245.704 52.019 245.381 52.5423 244.923 52.9021C244.474 53.2618 243.856 53.4417 243.071 53.4417C242.45 53.4417 241.918 53.3191 241.477 53.0738C241.044 52.8285 240.708 52.5055 240.471 52.1049C240.242 51.7042 240.111 51.2627 240.079 50.7803H242.017ZM243.035 48.4378C243.378 48.4378 243.652 48.3356 243.856 48.1312C244.061 47.9186 244.163 47.6324 244.163 47.2727C244.163 46.8802 244.057 46.5777 243.844 46.3651C243.631 46.1525 243.345 46.0462 242.985 46.0462C242.626 46.0462 242.34 46.1566 242.127 46.3774C241.923 46.59 241.82 46.8843 241.82 47.2604C241.82 47.612 241.923 47.8982 242.127 48.1189C242.34 48.3315 242.642 48.4378 243.035 48.4378ZM247.085 46.4019V44.4519H250.482V53.4049H248.299V46.4019H247.085Z" fill="#0D1A4D"/>
<defs>
<filter id="filter0_d" x="226.362" y="67.9807" width="40.8832" height="40.8832" filterUnits="userSpaceOnUse" color-interpolation-filters="sRGB">
<feFlood flood-opacity="0" result="BackgroundImageFix"/>
<feColorMatrix in="SourceAlpha" type="matrix" values="0 0 0 0 0 0 0 0 0 0 0 0 0 0 0 0 0 0 127 0"/>
<feOffset dy="3.71665"/>
<feGaussianBlur stdDeviation="4.64582"/>
<feColorMatrix type="matrix" values="0 0 0 0 0 0 0 0 0 0 0 0 0 0 0 0 0 0 0.1 0"/>
<feBlend mode="normal" in2="BackgroundImageFix" result="effect1_dropShadow"/>
<feBlend mode="normal" in="SourceGraphic" in2="effect1_dropShadow" result="shape"/>
</filter>
<filter id="filter1_d" x="183.921" y="0.983508" width="128.777" height="88.4791" filterUnits="userSpaceOnUse" color-interpolation-filters="sRGB">
<feFlood flood-opacity="0" result="BackgroundImageFix"/>
<feColorMatrix in="SourceAlpha" type="matrix" values="0 0 0 0 0 0 0 0 0 0 0 0 0 0 0 0 0 0 127 0"/>
<feOffset dy="3.50412"/>
<feGaussianBlur stdDeviation="8.76031"/>
<feColorMatrix type="matrix" values="0 0 0 0 0 0 0 0 0 0 0 0 0 0 0 0 0 0 0.05 0"/>
<feBlend mode="normal" in2="BackgroundImageFix" result="effect1_dropShadow"/>
<feBlend mode="normal" in="SourceGraphic" in2="effect1_dropShadow" result="shape"/>
</filter>
</defs>
</svg>
