<svg width="26" height="26" viewBox="0 0 26 26" fill="none" xmlns="http://www.w3.org/2000/svg">
<path d="M13 15.1665C14.7949 15.1665 16.25 13.7114 16.25 11.9165C16.25 10.1216 14.7949 8.6665 13 8.6665C11.2051 8.6665 9.75 10.1216 9.75 11.9165C9.75 13.7114 11.2051 15.1665 13 15.1665Z" stroke="#1A3148" stroke-width="2" stroke-linecap="round" stroke-linejoin="round"/>
<path d="M19.1281 18.0453L14.5315 22.6418C14.1252 23.0477 13.5745 23.2757 13.0002 23.2757C12.426 23.2757 11.8752 23.0477 11.4689 22.6418L6.87126 18.0453C5.65925 16.8332 4.83388 15.2889 4.49951 13.6078C4.16514 11.9266 4.33679 10.1841 4.99277 8.60046C5.64874 7.01686 6.75957 5.66334 8.18478 4.71105C9.61 3.75877 11.2856 3.25049 12.9997 3.25049C14.7138 3.25049 16.3894 3.75877 17.8146 4.71105C19.2398 5.66334 20.3506 7.01686 21.0066 8.60046C21.6626 10.1841 21.8342 11.9266 21.4999 13.6078C21.1655 15.2889 20.3401 16.8332 19.1281 18.0453V18.0453Z" stroke="#1A3148" stroke-width="2" stroke-linecap="round" stroke-linejoin="round"/>
</svg>
