<svg width="33" height="33" viewBox="0 0 33 33" fill="none" xmlns="http://www.w3.org/2000/svg">
<path d="M12.375 15.125C15.4126 15.125 17.875 12.6626 17.875 9.625C17.875 6.58743 15.4126 4.125 12.375 4.125C9.33743 4.125 6.875 6.58743 6.875 9.625C6.875 12.6626 9.33743 15.125 12.375 15.125Z" stroke="white" stroke-width="2" stroke-linecap="round" stroke-linejoin="round"/>
<path d="M4.125 28.875V26.125C4.125 24.6663 4.70446 23.2674 5.73591 22.2359C6.76736 21.2045 8.16631 20.625 9.625 20.625H15.125C16.5837 20.625 17.9826 21.2045 19.0141 22.2359C20.0455 23.2674 20.625 24.6663 20.625 26.125V28.875" stroke="white" stroke-width="2" stroke-linecap="round" stroke-linejoin="round"/>
<path d="M22 4.30374C23.1831 4.60666 24.2317 5.29471 24.9805 6.25942C25.7293 7.22413 26.1358 8.41063 26.1358 9.63187C26.1358 10.8531 25.7293 12.0396 24.9805 13.0043C24.2317 13.969 23.1831 14.6571 22 14.96" stroke="white" stroke-width="2" stroke-linecap="round" stroke-linejoin="round"/>
<path d="M28.875 28.875V26.125C28.868 24.9111 28.4596 23.7336 27.7135 22.776C26.9674 21.8185 25.9254 21.1347 24.75 20.8312" stroke="white" stroke-width="2" stroke-linecap="round" stroke-linejoin="round"/>
</svg>
