<svg width="23" height="22" viewBox="0 0 23 22" fill="none" xmlns="http://www.w3.org/2000/svg">
<path d="M22.0045 3.17289C22.0045 2.32502 21.6743 1.52782 21.0747 0.928252C19.8371 -0.309326 17.8232 -0.309508 16.5854 0.928252L13.5275 3.98614L12.1392 2.59779C11.9027 2.36135 11.5194 2.36135 11.2828 2.59779L9.46631 4.41429C9.22986 4.65073 9.22986 5.03414 9.46631 5.27064L10.8547 6.65899L2.09649 15.4172C2.03 15.4836 1.97993 15.5647 1.9502 15.6538L1.38993 17.3347L0.885489 17.8392C-0.0182774 18.743 -0.018338 20.2136 0.885489 21.1175C1.78932 22.0213 3.25995 22.0213 4.16378 21.1175L4.66822 20.6131L6.34908 20.0528C6.43827 20.0231 6.51929 19.973 6.58577 19.9065L15.344 11.1483L16.7323 12.5366C16.9689 12.7731 17.3522 12.7731 17.5887 12.5366L19.4052 10.7201C19.6416 10.4837 19.6416 10.1003 19.4052 9.86377L18.0169 8.47543L21.0747 5.41754C21.6743 4.81797 22.0045 4.02083 22.0045 3.17289ZM10.8547 13.9249H5.30133L11.711 7.51529L14.4876 10.2919L10.8547 13.9249ZM17.1605 11.2521L10.7508 4.84243L11.711 3.88224L18.1206 10.2919L17.1605 11.2521ZM20.2184 4.56124L17.1605 7.61913L14.3838 4.84243L17.4417 1.78455C18.2073 1.01902 19.4529 1.01896 20.2183 1.78455C20.9801 2.51538 20.98 3.83041 20.2184 4.56124Z" fill="white"/>
</svg>
