<svg width="18" height="17" viewBox="0 0 18 17" fill="none" xmlns="http://www.w3.org/2000/svg">
<path d="M17.0018 3.32761C17.0018 2.70509 16.7594 2.11978 16.3192 1.67958C15.4105 0.770937 13.9319 0.770803 13.023 1.67958L10.7779 3.92471L9.75858 2.90537C9.58493 2.73177 9.30352 2.73177 9.12984 2.90537L7.79615 4.23906C7.62255 4.41266 7.62255 4.69415 7.79615 4.8678L8.81549 5.88714L2.38516 12.3175C2.33635 12.3663 2.29958 12.4258 2.27775 12.4912L1.8664 13.7253L1.49603 14.0957C0.83248 14.7593 0.832436 15.8391 1.49603 16.5027C2.15963 17.1663 3.23939 17.1663 3.90298 16.5027L4.27335 16.1323L5.50745 15.721C5.57294 15.6992 5.63242 15.6624 5.68123 15.6136L12.1116 9.18321L13.1309 10.2025C13.3046 10.3761 13.586 10.3761 13.7597 10.2025L15.0934 8.86886C15.267 8.69526 15.267 8.41376 15.0934 8.24012L14.074 7.22078L16.3192 4.97565C16.7594 4.53545 17.0018 3.95018 17.0018 3.32761ZM8.81549 11.2218H4.73818L9.44423 6.51584L11.4829 8.55447L8.81549 11.2218ZM13.4453 9.25945L8.73924 4.55341L9.44419 3.84842L14.1502 8.55447L13.4453 9.25945ZM15.6904 4.34695L13.4453 6.59208L11.4066 4.55341L13.6517 2.30828C14.2138 1.74622 15.1284 1.74617 15.6904 2.30828C16.2497 2.84486 16.2496 3.81036 15.6904 4.34695Z" fill="#1A3148"/>
</svg>
