<svg width="147" height="131" viewBox="0 0 147 131" fill="none" xmlns="http://www.w3.org/2000/svg">
<circle opacity="0.2" cx="76.5" cy="69.5" r="44.5182" stroke="#16D2C7" stroke-width="16"/>
<path opacity="0.4" d="M69.0501 113.391C75.609 114.504 82.334 114.133 88.7307 112.305C95.1275 110.478 101.033 107.239 106.014 102.829C110.994 98.4184 114.923 92.9477 117.511 86.8191C120.099 80.6904 121.281 74.0596 120.969 67.4142C120.658 60.7688 118.861 54.2778 115.71 48.4183C112.56 42.5588 108.136 37.4799 102.764 33.555C97.3929 29.6301 91.2099 26.959 84.6702 25.7381C78.1305 24.5171 71.4003 24.7774 64.9744 26.4998" stroke="#16D2C7" stroke-width="16"/>
<g opacity="0.74" filter="url(#filter0_d)">
<path d="M65.3757 26.3942C59.0391 28.0295 53.141 31.0417 48.1013 35.2163C43.0616 39.3909 39.0043 44.6253 36.2181 50.5467C33.432 56.4681 31.9856 62.931 31.9819 69.4752C31.9782 76.0193 33.4174 82.4838 36.1969 88.4084" stroke="#16D2C7" stroke-width="16"/>
</g>
<path d="M70.6302 64.786L65.8422 76H63.2862L68.1102 65.074H61.9542V62.914H70.6302V64.786ZM74.3355 69.052C73.1355 68.428 72.5355 67.462 72.5355 66.154C72.5355 65.506 72.6975 64.918 73.0215 64.39C73.3575 63.85 73.8555 63.424 74.5155 63.112C75.1875 62.788 76.0035 62.626 76.9635 62.626C77.9235 62.626 78.7335 62.788 79.3935 63.112C80.0655 63.424 80.5635 63.85 80.8875 64.39C81.2235 64.918 81.3915 65.506 81.3915 66.154C81.3915 66.814 81.2295 67.396 80.9055 67.9C80.5815 68.392 80.1495 68.776 79.6095 69.052C80.2695 69.34 80.7855 69.76 81.1575 70.312C81.5295 70.864 81.7155 71.518 81.7155 72.274C81.7155 73.09 81.5055 73.804 81.0855 74.416C80.6775 75.016 80.1135 75.478 79.3935 75.802C78.6735 76.126 77.8635 76.288 76.9635 76.288C76.0635 76.288 75.2535 76.126 74.5335 75.802C73.8255 75.478 73.2615 75.016 72.8415 74.416C72.4335 73.804 72.2295 73.09 72.2295 72.274C72.2295 71.518 72.4155 70.864 72.7875 70.312C73.1595 69.748 73.6755 69.328 74.3355 69.052ZM78.9435 66.514C78.9435 65.926 78.7635 65.47 78.4035 65.146C78.0555 64.822 77.5755 64.66 76.9635 64.66C76.3635 64.66 75.8835 64.822 75.5235 65.146C75.1755 65.47 75.0015 65.932 75.0015 66.532C75.0015 67.072 75.1815 67.504 75.5415 67.828C75.9135 68.152 76.3875 68.314 76.9635 68.314C77.5395 68.314 78.0135 68.152 78.3855 67.828C78.7575 67.492 78.9435 67.054 78.9435 66.514ZM76.9635 70.15C76.2795 70.15 75.7215 70.324 75.2895 70.672C74.8695 71.02 74.6595 71.518 74.6595 72.166C74.6595 72.766 74.8635 73.258 75.2715 73.642C75.6915 74.014 76.2555 74.2 76.9635 74.2C77.6715 74.2 78.2295 74.008 78.6375 73.624C79.0455 73.24 79.2495 72.754 79.2495 72.166C79.2495 71.53 79.0395 71.038 78.6195 70.69C78.1995 70.33 77.6475 70.15 76.9635 70.15ZM83.418 66.1C83.418 65.188 83.682 64.474 84.21 63.958C84.75 63.442 85.44 63.184 86.28 63.184C87.12 63.184 87.804 63.442 88.332 63.958C88.872 64.474 89.142 65.188 89.142 66.1C89.142 67.024 88.872 67.744 88.332 68.26C87.804 68.776 87.12 69.034 86.28 69.034C85.44 69.034 84.75 68.776 84.21 68.26C83.682 67.744 83.418 67.024 83.418 66.1ZM94.974 63.4L87.9 76H85.452L92.508 63.4H94.974ZM86.262 64.696C85.602 64.696 85.272 65.164 85.272 66.1C85.272 67.048 85.602 67.522 86.262 67.522C86.586 67.522 86.838 67.408 87.018 67.18C87.198 66.94 87.288 66.58 87.288 66.1C87.288 65.164 86.946 64.696 86.262 64.696ZM91.32 73.282C91.32 72.358 91.584 71.644 92.112 71.14C92.652 70.624 93.342 70.366 94.182 70.366C95.022 70.366 95.7 70.624 96.216 71.14C96.744 71.644 97.008 72.358 97.008 73.282C97.008 74.206 96.744 74.926 96.216 75.442C95.7 75.958 95.022 76.216 94.182 76.216C93.33 76.216 92.64 75.958 92.112 75.442C91.584 74.926 91.32 74.206 91.32 73.282ZM94.164 71.878C93.48 71.878 93.138 72.346 93.138 73.282C93.138 74.23 93.48 74.704 94.164 74.704C94.836 74.704 95.172 74.23 95.172 73.282C95.172 72.346 94.836 71.878 94.164 71.878Z" fill="#1A3148"/>
<defs>
<filter id="filter0_d" x="0.709412" y="8.31412" width="92.5179" height="97.8334" filterUnits="userSpaceOnUse" color-interpolation-filters="sRGB">
<feFlood flood-opacity="0" result="BackgroundImageFix"/>
<feColorMatrix in="SourceAlpha" type="matrix" values="0 0 0 0 0 0 0 0 0 0 0 0 0 0 0 0 0 0 127 0"/>
<feOffset dx="2" dy="3"/>
<feGaussianBlur stdDeviation="3.5"/>
<feColorMatrix type="matrix" values="0 0 0 0 0.0862745 0 0 0 0 0.823529 0 0 0 0 0.780392 0 0 0 0.4 0"/>
<feBlend mode="normal" in2="BackgroundImageFix" result="effect1_dropShadow"/>
<feBlend mode="normal" in="SourceGraphic" in2="effect1_dropShadow" result="shape"/>
</filter>
</defs>
</svg>
