<svg width="112" height="119" viewBox="0 0 112 119" fill="none" xmlns="http://www.w3.org/2000/svg">
<circle opacity="0.2" cx="58.5" cy="55.5" r="44.5182" stroke="#781DEC" stroke-width="16"/>
<path opacity="0.4" d="M84.2692 91.8019C92.7516 85.7806 98.8577 76.9789 101.527 66.925C104.197 56.871 103.261 46.1997 98.8833 36.7635C94.5052 27.3274 86.961 19.7223 77.5603 15.2686C68.1596 10.8149 57.4961 9.79378 47.421 12.3826" stroke="#781DEC" stroke-width="16"/>
<g opacity="0.74" filter="url(#filter0_d)">
<path d="M47.3757 12.3942C36.4944 15.2024 27.0777 22.0219 21.0153 31.4842C14.9529 40.9466 12.6935 52.3516 14.6903 63.4106C16.6872 74.4696 22.7926 84.3642 31.7814 91.1088C40.7702 97.8535 51.9772 100.949 63.1534 99.7744" stroke="#781DEC" stroke-width="16"/>
</g>
<path d="M45.5865 55.052C44.3865 54.428 43.7865 53.462 43.7865 52.154C43.7865 51.506 43.9485 50.918 44.2725 50.39C44.6085 49.85 45.1065 49.424 45.7665 49.112C46.4385 48.788 47.2545 48.626 48.2145 48.626C49.1745 48.626 49.9845 48.788 50.6445 49.112C51.3165 49.424 51.8145 49.85 52.1385 50.39C52.4745 50.918 52.6425 51.506 52.6425 52.154C52.6425 52.814 52.4805 53.396 52.1565 53.9C51.8325 54.392 51.4005 54.776 50.8605 55.052C51.5205 55.34 52.0365 55.76 52.4085 56.312C52.7805 56.864 52.9665 57.518 52.9665 58.274C52.9665 59.09 52.7565 59.804 52.3365 60.416C51.9285 61.016 51.3645 61.478 50.6445 61.802C49.9245 62.126 49.1145 62.288 48.2145 62.288C47.3145 62.288 46.5045 62.126 45.7845 61.802C45.0765 61.478 44.5125 61.016 44.0925 60.416C43.6845 59.804 43.4805 59.09 43.4805 58.274C43.4805 57.518 43.6665 56.864 44.0385 56.312C44.4105 55.748 44.9265 55.328 45.5865 55.052ZM50.1945 52.514C50.1945 51.926 50.0145 51.47 49.6545 51.146C49.3065 50.822 48.8265 50.66 48.2145 50.66C47.6145 50.66 47.1345 50.822 46.7745 51.146C46.4265 51.47 46.2525 51.932 46.2525 52.532C46.2525 53.072 46.4325 53.504 46.7925 53.828C47.1645 54.152 47.6385 54.314 48.2145 54.314C48.7905 54.314 49.2645 54.152 49.6365 53.828C50.0085 53.492 50.1945 53.054 50.1945 52.514ZM48.2145 56.15C47.5305 56.15 46.9725 56.324 46.5405 56.672C46.1205 57.02 45.9105 57.518 45.9105 58.166C45.9105 58.766 46.1145 59.258 46.5225 59.642C46.9425 60.014 47.5065 60.2 48.2145 60.2C48.9225 60.2 49.4805 60.008 49.8885 59.624C50.2965 59.24 50.5005 58.754 50.5005 58.166C50.5005 57.53 50.2905 57.038 49.8705 56.69C49.4505 56.33 48.8985 56.15 48.2145 56.15ZM54.9569 55.268C54.9569 53.192 55.3289 51.566 56.0729 50.39C56.8289 49.214 58.0769 48.626 59.8169 48.626C61.5569 48.626 62.7989 49.214 63.5429 50.39C64.2989 51.566 64.6769 53.192 64.6769 55.268C64.6769 57.356 64.2989 58.994 63.5429 60.182C62.7989 61.37 61.5569 61.964 59.8169 61.964C58.0769 61.964 56.8289 61.37 56.0729 60.182C55.3289 58.994 54.9569 57.356 54.9569 55.268ZM62.1929 55.268C62.1929 54.38 62.1329 53.636 62.0129 53.036C61.9049 52.424 61.6769 51.926 61.3289 51.542C60.9929 51.158 60.4889 50.966 59.8169 50.966C59.1449 50.966 58.6349 51.158 58.2869 51.542C57.9509 51.926 57.7229 52.424 57.6029 53.036C57.4949 53.636 57.4409 54.38 57.4409 55.268C57.4409 56.18 57.4949 56.948 57.6029 57.572C57.7109 58.184 57.9389 58.682 58.2869 59.066C58.6349 59.438 59.1449 59.624 59.8169 59.624C60.4889 59.624 60.9989 59.438 61.3469 59.066C61.6949 58.682 61.9229 58.184 62.0309 57.572C62.1389 56.948 62.1929 56.18 62.1929 55.268ZM66.3056 52.1C66.3056 51.188 66.5696 50.474 67.0976 49.958C67.6376 49.442 68.3276 49.184 69.1676 49.184C70.0076 49.184 70.6916 49.442 71.2196 49.958C71.7596 50.474 72.0296 51.188 72.0296 52.1C72.0296 53.024 71.7596 53.744 71.2196 54.26C70.6916 54.776 70.0076 55.034 69.1676 55.034C68.3276 55.034 67.6376 54.776 67.0976 54.26C66.5696 53.744 66.3056 53.024 66.3056 52.1ZM77.8616 49.4L70.7876 62H68.3396L75.3956 49.4H77.8616ZM69.1496 50.696C68.4896 50.696 68.1596 51.164 68.1596 52.1C68.1596 53.048 68.4896 53.522 69.1496 53.522C69.4736 53.522 69.7256 53.408 69.9056 53.18C70.0856 52.94 70.1756 52.58 70.1756 52.1C70.1756 51.164 69.8336 50.696 69.1496 50.696ZM74.2076 59.282C74.2076 58.358 74.4716 57.644 74.9996 57.14C75.5396 56.624 76.2296 56.366 77.0696 56.366C77.9096 56.366 78.5876 56.624 79.1036 57.14C79.6316 57.644 79.8956 58.358 79.8956 59.282C79.8956 60.206 79.6316 60.926 79.1036 61.442C78.5876 61.958 77.9096 62.216 77.0696 62.216C76.2176 62.216 75.5276 61.958 74.9996 61.442C74.4716 60.926 74.2076 60.206 74.2076 59.282ZM77.0516 57.878C76.3676 57.878 76.0256 58.346 76.0256 59.282C76.0256 60.23 76.3676 60.704 77.0516 60.704C77.7236 60.704 78.0596 60.23 78.0596 59.282C78.0596 58.346 77.7236 57.878 77.0516 57.878Z" fill="#1A3148"/>
<defs>
<filter id="filter0_d" x="0.98175" y="0.648033" width="72.0079" height="117.37" filterUnits="userSpaceOnUse" color-interpolation-filters="sRGB">
<feFlood flood-opacity="0" result="BackgroundImageFix"/>
<feColorMatrix in="SourceAlpha" type="matrix" values="0 0 0 0 0 0 0 0 0 0 0 0 0 0 0 0 0 0 127 0"/>
<feOffset dx="2" dy="3"/>
<feGaussianBlur stdDeviation="3.5"/>
<feColorMatrix type="matrix" values="0 0 0 0 0.470588 0 0 0 0 0.113725 0 0 0 0 0.92549 0 0 0 0.4 0"/>
<feBlend mode="normal" in2="BackgroundImageFix" result="effect1_dropShadow"/>
<feBlend mode="normal" in="SourceGraphic" in2="effect1_dropShadow" result="shape"/>
</filter>
</defs>
</svg>
