<svg width="33" height="33" viewBox="0 0 33 33" fill="none" xmlns="http://www.w3.org/2000/svg">
<path d="M12.375 5.5H6.875C6.11561 5.5 5.5 6.11561 5.5 6.875V12.375C5.5 13.1344 6.11561 13.75 6.875 13.75H12.375C13.1344 13.75 13.75 13.1344 13.75 12.375V6.875C13.75 6.11561 13.1344 5.5 12.375 5.5Z" stroke="white" stroke-width="2" stroke-linecap="round" stroke-linejoin="round"/>
<path d="M9.625 23.375V23.3867" stroke="white" stroke-width="2" stroke-linecap="round" stroke-linejoin="round"/>
<path d="M26.125 5.5H20.625C19.8656 5.5 19.25 6.11561 19.25 6.875V12.375C19.25 13.1344 19.8656 13.75 20.625 13.75H26.125C26.8844 13.75 27.5 13.1344 27.5 12.375V6.875C27.5 6.11561 26.8844 5.5 26.125 5.5Z" stroke="white" stroke-width="2" stroke-linecap="round" stroke-linejoin="round"/>
<path d="M9.625 9.625V9.63667" stroke="white" stroke-width="2" stroke-linecap="round" stroke-linejoin="round"/>
<path d="M12.375 19.25H6.875C6.11561 19.25 5.5 19.8656 5.5 20.625V26.125C5.5 26.8844 6.11561 27.5 6.875 27.5H12.375C13.1344 27.5 13.75 26.8844 13.75 26.125V20.625C13.75 19.8656 13.1344 19.25 12.375 19.25Z" stroke="white" stroke-width="2" stroke-linecap="round" stroke-linejoin="round"/>
<path d="M23.375 9.625V9.63667" stroke="white" stroke-width="2" stroke-linecap="round" stroke-linejoin="round"/>
<path d="M19.25 19.25H23.375" stroke="white" stroke-width="2" stroke-linecap="round" stroke-linejoin="round"/>
<path d="M27.5 19.25V19.2617" stroke="white" stroke-width="2" stroke-linecap="round" stroke-linejoin="round"/>
<path d="M19.25 19.25V23.375" stroke="white" stroke-width="2" stroke-linecap="round" stroke-linejoin="round"/>
<path d="M19.25 27.5H23.375" stroke="white" stroke-width="2" stroke-linecap="round" stroke-linejoin="round"/>
<path d="M23.375 23.375H27.5" stroke="white" stroke-width="2" stroke-linecap="round" stroke-linejoin="round"/>
<path d="M27.5 23.375V27.5" stroke="white" stroke-width="2" stroke-linecap="round" stroke-linejoin="round"/>
</svg>
