<svg width="397" height="263" viewBox="0 0 397 263" fill="none" xmlns="http://www.w3.org/2000/svg">
<path d="M381.482 176.005C378.615 179.137 375.06 181.469 371.202 183.28H371.198C370.835 183.452 370.472 183.62 370.104 183.778H370.099L370.095 183.783L370.09 183.778H370.086C370.086 183.779 370.085 183.78 370.085 183.78C370.085 183.781 370.085 183.781 370.084 183.782C370.084 183.782 370.083 183.782 370.083 183.783C370.082 183.783 370.081 183.783 370.081 183.783H370.076L370.071 183.778C370.067 183.783 370.067 183.783 370.062 183.778L370.058 183.783L370.053 183.778H370.048C370.044 183.783 370.044 183.783 370.039 183.778H370.034C367.452 184.896 364.8 185.844 362.095 186.618C346.189 191.132 329.472 192.005 313.182 189.173C312.87 189.117 312.563 189.062 312.251 189.006V151.25C312.559 151.12 312.87 150.989 313.182 150.864C315.216 150.021 317.274 149.247 319.357 148.541C322.354 147.517 325.393 146.639 328.474 145.906C338.524 143.473 348.895 142.634 359.205 143.421C361.081 143.56 362.952 143.762 364.818 144.026C368.722 144.57 372.817 145.52 376.419 147.168H376.423C376.949 147.414 377.466 147.67 377.978 147.945C381.179 149.681 383.878 152.069 385.526 155.342C386.118 156.517 386.544 157.769 386.792 159.061V159.07C386.885 159.517 386.95 159.969 387.001 160.416C387.587 165.927 385.302 171.825 381.482 176.005Z" fill="#F2F2F2"/>
<path d="M387.001 160.416C386.955 160.427 386.908 160.433 386.861 160.434C378.89 160.783 370.929 161.302 362.979 161.989H362.966C362.933 161.994 362.905 161.994 362.873 161.998C354.71 162.706 346.565 163.592 338.437 164.656C338.093 164.703 337.753 164.749 337.413 164.791C331.792 165.541 326.181 166.372 320.581 167.286C318.11 167.691 315.644 168.113 313.182 168.552C312.87 168.608 312.563 168.659 312.251 168.72V167.309C312.563 167.249 312.875 167.198 313.182 167.142C321.382 165.69 329.609 164.422 337.864 163.339C339.94 163.06 342.018 162.796 344.1 162.548C350.112 161.821 356.134 161.194 362.165 160.667C362.607 160.63 363.045 160.592 363.487 160.555C371.207 159.899 378.938 159.401 386.68 159.061C386.717 159.059 386.755 159.062 386.792 159.07C387.536 159.135 387.694 160.253 387.001 160.416Z" fill="white"/>
<path d="M370.446 182.407C360.516 182.48 350.732 178.268 343.708 171.296C341.726 169.321 339.98 167.123 338.504 164.747C338.03 163.987 336.922 164.825 337.392 165.578C342.847 174.329 351.934 180.563 361.952 182.855C364.797 183.5 367.708 183.812 370.625 183.784C371.515 183.777 371.331 182.4 370.446 182.407V182.407Z" fill="white"/>
<path d="M328.474 145.906C328.431 146.037 328.355 146.155 328.253 146.247C328.151 146.339 328.026 146.403 327.892 146.432C325.616 147.029 323.417 147.888 321.34 148.992C318.306 150.595 315.551 152.678 313.182 155.16C313.057 155.286 312.936 155.411 312.819 155.542C312.624 155.747 312.438 155.956 312.251 156.17V154.141C312.549 153.824 312.861 153.512 313.182 153.214C315.053 151.423 317.125 149.854 319.357 148.541C322.354 147.517 325.393 146.639 328.474 145.906Z" fill="white"/>
<path d="M377.242 146.801C370.925 149.517 365.639 154.179 362.154 160.108C362.084 160.277 362.083 160.468 362.152 160.638C362.221 160.808 362.354 160.945 362.523 161.017C362.693 161.084 362.882 161.083 363.051 161.015C363.221 160.946 363.357 160.815 363.432 160.648C366.758 155.049 371.777 150.65 377.763 148.088C378.585 147.737 378.065 146.45 377.242 146.802L377.242 146.801Z" fill="white"/>
<path d="M396.285 107.267C395.205 111.373 393.134 115.092 390.561 118.485L390.556 118.49C390.319 118.806 390.072 119.128 389.816 119.435V119.439C388.03 121.641 386.101 123.723 384.041 125.672C376.639 132.728 368.278 138.704 359.205 143.421C344.933 150.878 328.981 155.287 313.182 155.538C313.061 155.543 312.94 155.543 312.819 155.543C312.628 155.547 312.438 155.547 312.251 155.547V134.391C312.554 133.814 312.866 133.236 313.182 132.664C317.288 125.274 322.295 118.423 328.088 112.266C328.227 112.113 328.371 111.959 328.516 111.81C330.693 109.511 332.977 107.321 335.365 105.242C344.555 97.1595 355.176 90.8681 366.679 86.6925C370.388 85.3612 374.455 84.2952 378.411 84.0857C378.992 84.0532 379.569 84.0392 380.151 84.0438C383.795 84.095 387.29 84.9562 390.272 87.0881C391.341 87.8555 392.299 88.7655 393.12 89.7926C393.409 90.151 393.674 90.5188 393.93 90.8958V90.9005C397.011 95.5088 397.727 101.788 396.285 107.267Z" fill="#F2F2F2"/>
<path d="M393.93 90.8951V90.8998C393.896 90.9299 393.858 90.9564 393.818 90.9789C386.931 94.9868 380.131 99.1405 373.417 103.44C373.408 103.445 373.403 103.449 373.394 103.454C373.367 103.473 373.339 103.49 373.31 103.505C366.409 107.927 359.606 112.498 352.9 117.218C352.621 117.414 352.337 117.614 352.053 117.814C347.423 121.087 342.841 124.429 338.307 127.841C329.744 134.292 321.369 140.983 313.182 147.913C312.87 148.173 312.563 148.439 312.251 148.704V146.893C312.559 146.628 312.87 146.363 313.182 146.102C316.319 143.453 319.483 140.842 322.675 138.268C323.629 137.5 324.588 136.732 325.546 135.973C334.063 129.191 342.769 122.662 351.667 116.385H351.671C353.421 115.152 355.174 113.929 356.93 112.717C361.918 109.282 366.963 105.929 372.063 102.658C372.431 102.421 372.803 102.183 373.175 101.946C379.704 97.775 386.319 93.7408 393.018 89.8431C393.051 89.8233 393.085 89.8061 393.12 89.7919C393.818 89.5126 394.474 90.4343 393.93 90.8951Z" fill="white"/>
<path d="M389.485 118.063C380.725 122.742 370.105 123.557 360.647 120.647C357.975 119.819 355.408 118.685 352.997 117.266C352.225 116.813 351.633 118.07 352.398 118.518C361.293 123.733 372.235 125.032 382.171 122.407C384.99 121.656 387.712 120.579 390.282 119.199C391.068 118.779 390.265 117.646 389.485 118.063V118.063Z" fill="white"/>
<path d="M323.941 135.094C323.508 132.657 323.359 130.178 323.498 127.707C323.812 122.071 325.537 116.605 328.515 111.81C330.695 109.512 332.979 107.322 335.367 105.241C335.389 105.377 335.376 105.517 335.328 105.646C335.28 105.776 335.199 105.89 335.094 105.979C333.356 107.565 331.809 109.347 330.481 111.289C325.74 118.211 323.889 126.712 325.324 134.979C325.347 135.072 325.346 135.171 325.321 135.264C325.295 135.357 325.246 135.442 325.178 135.511C325.079 135.597 324.958 135.657 324.829 135.682C324.699 135.708 324.565 135.699 324.44 135.657C324.315 135.615 324.203 135.541 324.116 135.442C324.028 135.343 323.968 135.223 323.941 135.094Z" fill="white"/>
<path d="M378.968 83.3742C374.635 88.7144 372.119 95.2985 371.786 102.168C371.802 102.351 371.89 102.52 372.03 102.639C372.171 102.758 372.352 102.816 372.535 102.802C372.717 102.783 372.884 102.694 373.002 102.554C373.12 102.415 373.18 102.235 373.169 102.053C373.514 95.5485 375.916 89.3218 380.027 84.2708C380.592 83.5782 379.533 82.6802 378.968 83.3742Z" fill="white"/>
<path d="M330.777 98.6697V98.6743C330.745 99.0747 330.707 99.4703 330.665 99.866V99.8753C330.342 102.692 329.837 105.484 329.153 108.235C328.827 109.585 328.474 110.926 328.088 112.267C328.041 112.439 327.99 112.611 327.938 112.779V112.783C326.802 116.682 325.444 120.513 323.871 124.257C320.978 131.151 317.397 137.735 313.182 143.91C312.88 144.362 312.568 144.813 312.251 145.26V72.365C312.563 72.3464 312.87 72.3464 313.182 72.3557C313.331 72.3557 313.48 72.3604 313.629 72.3697C314.942 72.4387 316.239 72.691 317.482 73.1191C317.92 73.2634 318.343 73.4264 318.762 73.6079C323.839 75.8329 327.827 80.7392 329.558 86.1341C330.856 90.1745 331.117 94.4244 330.777 98.6697Z" fill="#F2F2F2"/>
<path d="M318.762 73.6076C318.751 73.6533 318.734 73.6971 318.711 73.738C316.826 77.4014 314.983 81.0834 313.182 84.784C312.87 85.4217 312.559 86.064 312.251 86.7018V83.5364C312.559 82.9034 312.869 82.2703 313.182 81.6373C314.574 78.8164 315.988 76.008 317.426 73.212C317.442 73.1793 317.461 73.1482 317.482 73.1189C317.91 72.5044 318.971 72.9234 318.762 73.6076Z" fill="white"/>
<path d="M330.926 99.4181C330.842 99.567 330.759 99.716 330.665 99.865C329.299 102.247 327.673 104.47 325.816 106.493C322.251 110.363 317.958 113.49 313.182 115.696C312.875 115.845 312.563 115.985 312.251 116.115V114.602C312.563 114.463 312.875 114.318 313.182 114.169C320.095 110.871 325.837 105.541 329.642 98.8921C329.697 98.7972 329.771 98.7151 329.861 98.6515C329.95 98.588 330.052 98.5443 330.16 98.5236C330.267 98.5028 330.378 98.5055 330.485 98.5313C330.591 98.5571 330.691 98.6056 330.777 98.6733C330.836 98.7124 330.886 98.7627 330.926 98.8213C330.965 98.8799 330.992 98.9457 331.006 99.0148C331.02 99.084 331.02 99.1552 331.006 99.2244C330.992 99.2936 330.965 99.3594 330.926 99.4181Z" fill="white"/>
<path d="M313.182 15.3611V50.7381H312.251V50.361H0.930704V50.7381H0V15.3611C0.00399662 11.2883 1.6232 7.38346 4.50226 4.50356C7.38132 1.62367 11.285 0.00399777 15.3566 0H297.825C301.897 0.00399777 305.801 1.62367 308.68 4.50356C311.559 7.38346 313.178 11.2883 313.182 15.3611Z" fill="#1A3148"/>
<path d="M297.825 0H15.3566C11.285 0.00399777 7.38132 1.62367 4.50226 4.50356C1.6232 7.38346 0.00399662 11.2883 0 15.3611V217.382C0.00399662 221.455 1.6232 225.36 4.50226 228.24C7.38132 231.12 11.285 232.739 15.3566 232.743H297.825C301.897 232.739 305.801 231.12 308.68 228.24C311.559 225.36 313.178 221.455 313.182 217.382V15.3611C313.178 11.2883 311.559 7.38346 308.68 4.50356C305.801 1.62367 301.897 0.00399777 297.825 0ZM312.251 217.382C312.246 221.208 310.725 224.875 308.021 227.581C305.316 230.286 301.65 231.808 297.825 231.812H15.3566C11.5321 231.808 7.86567 230.286 5.16134 227.581C2.45702 224.875 0.935584 221.208 0.930704 217.382V15.3611C0.935584 11.5355 2.45702 7.86795 5.16134 5.16284C7.86567 2.45773 11.5321 0.935855 15.3566 0.930973H297.825C301.65 0.935856 305.316 2.45773 308.021 5.16284C310.725 7.86795 312.246 11.5355 312.251 15.3611V217.382Z" fill="#3F3D56"/>
<path d="M63.288 34.679C68.4281 34.679 72.595 30.5109 72.595 25.3693C72.595 20.2277 68.4281 16.0596 63.288 16.0596C58.1479 16.0596 53.981 20.2277 53.981 25.3693C53.981 30.5109 58.1479 34.679 63.288 34.679Z" fill="white"/>
<path d="M249.894 34.679C255.034 34.679 259.201 30.5109 259.201 25.3693C259.201 20.2277 255.034 16.0596 249.894 16.0596C244.754 16.0596 240.587 20.2277 240.587 25.3693C240.587 30.5109 244.754 34.679 249.894 34.679Z" fill="white"/>
<path d="M90.1782 129.174H34.8123C32.4668 129.171 30.2181 128.238 28.5595 126.579C26.9009 124.92 25.968 122.67 25.9653 120.324V94.1484C25.968 91.8022 26.9009 89.5528 28.5595 87.8937C30.2181 86.2347 32.4668 85.3015 34.8123 85.2988H90.1782C92.5238 85.3015 94.7725 86.2347 96.431 87.8937C98.0896 89.5528 99.0226 91.8022 99.0252 94.1484V120.324C99.0226 122.67 98.0896 124.92 96.431 126.579C94.7725 128.238 92.5238 129.171 90.1782 129.174Z" fill="#1A3148"/>
<path d="M184.365 129.174H128.999C126.653 129.171 124.405 128.238 122.746 126.579C121.087 124.92 120.155 122.67 120.152 120.324V94.1484C120.155 91.8022 121.087 89.5528 122.746 87.8937C124.405 86.2347 126.653 85.3015 128.999 85.2988H184.365C186.71 85.3015 188.959 86.2347 190.618 87.8937C192.276 89.5528 193.209 91.8022 193.212 94.1484V120.324C193.209 122.67 192.276 124.92 190.618 126.579C188.959 128.238 186.71 129.171 184.365 129.174Z" fill="#1A3148"/>
<path d="M184.365 196.805H128.999C126.582 196.802 124.265 195.841 122.557 194.131C120.848 192.422 119.887 190.104 119.884 187.687V161.511C119.887 159.094 120.848 156.776 122.557 155.067C124.265 153.358 126.582 152.396 128.999 152.394H184.365C186.781 152.396 189.098 153.358 190.807 155.067C192.516 156.776 193.477 159.094 193.48 161.511V187.687C193.477 190.104 192.516 192.422 190.807 194.131C189.098 195.841 186.781 196.802 184.365 196.805Z" fill="#F2F2F2"/>
<path d="M89.9966 196.805H34.6307C32.2141 196.802 29.8972 195.841 28.1884 194.131C26.4796 192.422 25.5183 190.104 25.5156 187.687V161.511C25.5183 159.094 26.4796 156.776 28.1884 155.067C29.8972 153.358 32.2141 152.396 34.6307 152.394H89.9966C92.4132 152.396 94.7301 153.358 96.4389 155.067C98.1477 156.776 99.109 159.094 99.1117 161.511V187.687C99.109 190.104 98.1477 192.422 96.4389 194.131C94.7301 195.841 92.4132 196.802 89.9966 196.805Z" fill="#F2F2F2"/>
<path d="M278.552 196.805H223.186C220.769 196.802 218.452 195.841 216.744 194.131C215.035 192.422 214.074 190.104 214.071 187.687V161.511C214.074 159.094 215.035 156.776 216.744 155.067C218.452 153.358 220.769 152.396 223.186 152.394H278.552C280.968 152.396 283.285 153.358 284.994 155.067C286.703 156.776 287.664 159.094 287.667 161.511V187.687C287.664 190.104 286.703 192.422 284.994 194.131C283.285 195.841 280.968 196.802 278.552 196.805Z" fill="#F2F2F2"/>
<path d="M278.552 129.226H223.186C220.769 129.223 218.452 128.262 216.744 126.552C215.035 124.843 214.074 122.525 214.071 120.108V93.9322C214.074 91.5149 215.035 89.1973 216.744 87.488C218.452 85.7787 220.769 84.8172 223.186 84.8145H278.552C280.968 84.8172 283.285 85.7787 284.994 87.488C286.703 89.1973 287.664 91.5149 287.667 93.9322V120.108C287.664 122.525 286.703 124.843 284.994 126.552C283.285 128.262 280.968 129.223 278.552 129.226Z" fill="#F2F2F2"/>
<path d="M62.495 122.254C70.7866 122.254 77.5082 115.53 77.5082 107.236C77.5082 98.9423 70.7866 92.2188 62.495 92.2188C54.2035 92.2188 47.4819 98.9423 47.4819 107.236C47.4819 115.53 54.2035 122.254 62.495 122.254Z" fill="white"/>
<path d="M61.0068 112.965C60.6691 112.966 60.3402 112.857 60.07 112.654L60.0532 112.641L56.525 109.939C56.3614 109.814 56.2241 109.658 56.1208 109.48C56.0176 109.301 55.9505 109.105 55.9233 108.9C55.8962 108.696 55.9096 108.488 55.9627 108.289C56.0158 108.09 56.1076 107.904 56.2329 107.74C56.3582 107.577 56.5145 107.439 56.6928 107.336C56.8711 107.233 57.068 107.166 57.2722 107.139C57.4764 107.112 57.684 107.126 57.8829 107.179C58.0819 107.233 58.2684 107.325 58.4317 107.45L60.717 109.203L66.1175 102.158C66.2428 101.994 66.399 101.857 66.5772 101.754C66.7555 101.651 66.9522 101.584 67.1563 101.557C67.3604 101.53 67.5678 101.544 67.7666 101.597C67.9655 101.65 68.1519 101.742 68.3152 101.868L68.2817 101.913L68.3161 101.868C68.6456 102.122 68.8612 102.495 68.9156 102.907C68.97 103.32 68.8587 103.736 68.6062 104.067L62.2539 112.353C62.107 112.544 61.9181 112.699 61.7018 112.805C61.4855 112.911 61.2477 112.966 61.0068 112.965Z" fill="#1A3148"/>
<path d="M156.95 122.038C165.241 122.038 171.963 115.314 171.963 107.02C171.963 98.7265 165.241 92.0029 156.95 92.0029C148.658 92.0029 141.937 98.7265 141.937 107.02C141.937 115.314 148.658 122.038 156.95 122.038Z" fill="white"/>
<path d="M155.462 112.749C155.124 112.75 154.796 112.641 154.525 112.438L154.509 112.426L150.98 109.723C150.65 109.471 150.434 109.097 150.38 108.685C150.325 108.272 150.437 107.855 150.689 107.525C150.942 107.195 151.316 106.979 151.728 106.924C152.14 106.87 152.557 106.981 152.887 107.234L155.172 108.987L160.573 101.942C160.698 101.779 160.854 101.641 161.033 101.538C161.211 101.435 161.408 101.369 161.612 101.342C161.816 101.315 162.023 101.328 162.222 101.381C162.421 101.435 162.607 101.527 162.771 101.652L162.737 101.697L162.771 101.652C163.101 101.906 163.317 102.28 163.371 102.692C163.425 103.104 163.314 103.521 163.062 103.851L156.709 112.138C156.562 112.328 156.373 112.483 156.157 112.589C155.941 112.695 155.703 112.75 155.462 112.749Z" fill="#1A3148"/>
<path d="M258.416 177.886C258.909 177.346 259.278 176.705 259.497 176.008C259.715 175.31 259.779 174.573 259.682 173.849C259.585 173.124 259.33 172.429 258.936 171.814C258.542 171.198 258.018 170.677 257.4 170.286L249.019 125.519L238.825 129.3L250.269 172.115C249.681 173.197 249.511 174.456 249.789 175.655C250.067 176.854 250.776 177.909 251.78 178.62C252.784 179.331 254.014 179.649 255.237 179.514C256.46 179.379 257.591 178.799 258.416 177.886Z" fill="#A0616A"/>
<path d="M177.079 109.576C177.105 109.854 177.108 110.133 177.089 110.412L196.909 125.67L202.529 123.362L207.121 131.391L197.568 136.445C196.796 136.853 195.913 137 195.051 136.864C194.188 136.727 193.394 136.314 192.786 135.687L172.975 115.258C171.927 115.494 170.831 115.406 169.834 115.004C168.837 114.603 167.985 113.907 167.393 113.009C166.801 112.112 166.496 111.056 166.518 109.98C166.541 108.905 166.89 107.863 167.52 106.991C168.149 106.119 169.029 105.46 170.042 105.101C171.056 104.742 172.154 104.7 173.192 104.98C174.23 105.261 175.158 105.851 175.852 106.672C176.546 107.493 176.974 108.505 177.079 109.576H177.079Z" fill="#A0616A"/>
<path d="M223.383 257.343H217.678L214.963 239.986L223.384 239.987L223.383 257.343Z" fill="#A0616A"/>
<path d="M224.838 262.876L206.442 262.875V262.643C206.442 261.702 206.627 260.771 206.987 259.902C207.347 259.033 207.874 258.243 208.539 257.578C209.204 256.913 209.993 256.386 210.862 256.026C211.731 255.666 212.662 255.48 213.602 255.48H213.602L224.838 255.481L224.838 262.876Z" fill="#2F2E41"/>
<path d="M244.788 257.343H239.084L236.369 239.986L244.79 239.987L244.788 257.343Z" fill="#A0616A"/>
<path d="M246.244 262.876L227.848 262.875V262.643C227.848 261.702 228.033 260.771 228.393 259.902C228.753 259.033 229.28 258.243 229.945 257.578C230.61 256.913 231.399 256.386 232.268 256.026C233.137 255.666 234.068 255.48 235.008 255.48H235.009L246.244 255.481L246.244 262.876Z" fill="#2F2E41"/>
<path d="M216.492 253.913C215.972 253.913 215.469 253.719 215.084 253.369C214.699 253.018 214.459 252.536 214.41 252.017L209.438 185.132L209.673 185.113L243.887 182.3L243.896 182.543L246.616 251.831C246.626 252.112 246.58 252.393 246.479 252.656C246.379 252.919 246.226 253.16 246.031 253.362C245.836 253.565 245.601 253.727 245.342 253.837C245.083 253.947 244.804 254.004 244.523 254.004H237.815C237.314 254.006 236.829 253.828 236.449 253.502C236.069 253.176 235.819 252.723 235.745 252.228L226.635 196.255C226.626 196.198 226.596 196.145 226.55 196.109C226.504 196.072 226.447 196.054 226.388 196.059C226.33 196.063 226.275 196.089 226.235 196.132C226.195 196.174 226.173 196.23 226.172 196.289L225.759 251.553C225.755 252.087 225.547 252.599 225.179 252.985C224.81 253.371 224.308 253.602 223.775 253.63L216.605 253.91C216.567 253.912 216.53 253.913 216.492 253.913Z" fill="#2F2E41"/>
<path d="M222.332 100.604C228.644 100.604 233.761 95.4853 233.761 89.1711C233.761 82.8569 228.644 77.7383 222.332 77.7383C216.02 77.7383 210.902 82.8569 210.902 89.1711C210.902 95.4853 216.02 100.604 222.332 100.604Z" fill="#A0616A"/>
<path d="M224.545 189.398C219.549 189.384 214.578 188.704 209.762 187.377C209.298 187.242 208.895 186.952 208.621 186.554C208.347 186.157 208.218 185.677 208.256 185.196C209.794 162.064 210.156 144.113 206.921 131.693C205.542 126.4 206.168 120.825 208.638 116.397C212.356 109.735 219.19 105.68 226.48 105.82C226.828 105.827 227.18 105.839 227.535 105.857C238.598 106.427 247.219 116.438 246.752 128.174L244.527 184.11C244.518 184.518 244.39 184.915 244.157 185.25C243.923 185.585 243.596 185.843 243.216 185.993C237.247 188.239 230.923 189.393 224.545 189.398Z" fill="#3F3D56"/>
<path d="M208.801 135.987L200.24 125.493C199.996 125.195 199.82 124.847 199.722 124.474C199.625 124.101 199.61 123.712 199.676 123.332C199.743 122.953 199.891 122.592 200.11 122.275C200.329 121.957 200.613 121.691 200.944 121.494L212.542 114.581C214.076 113.343 216.038 112.764 217.999 112.971C219.959 113.178 221.758 114.154 223 115.686C224.242 117.217 224.826 119.179 224.624 121.14C224.422 123.102 223.451 124.904 221.923 126.15L212.859 136.099C212.6 136.383 212.282 136.609 211.927 136.76C211.573 136.911 211.19 136.983 210.805 136.973C210.42 136.962 210.041 136.868 209.695 136.698C209.35 136.528 209.045 136.286 208.801 135.987Z" fill="#3F3D56"/>
<path d="M235.734 134.671C235.382 134.514 235.068 134.282 234.814 133.993C234.56 133.703 234.372 133.362 234.261 132.992L230.407 120.096C229.571 118.31 229.476 116.265 230.145 114.41C230.813 112.555 232.19 111.04 233.973 110.199C235.756 109.358 237.8 109.258 239.657 109.922C241.513 110.586 243.031 111.96 243.876 113.741L251.329 125.001C251.542 125.322 251.683 125.686 251.743 126.066C251.802 126.447 251.779 126.836 251.675 127.207C251.571 127.578 251.388 127.922 251.138 128.216C250.889 128.51 250.579 128.747 250.231 128.91L237.967 134.653C237.618 134.816 237.237 134.902 236.852 134.906C236.467 134.909 236.085 134.829 235.734 134.671Z" fill="#3F3D56"/>
<path d="M227.98 98.5512L219.508 96.6115C218.634 96.4114 217.584 96.0296 217.463 95.1411C217.3 93.9471 219.018 93.1153 218.859 91.9206C218.706 90.7635 217.141 90.6144 216.025 90.2728C214.986 89.9082 214.129 89.1534 213.637 88.1682C213.144 87.1829 213.054 86.0446 213.386 84.9941C212.178 86.6959 209.42 86.8417 207.854 85.4629C206.288 84.0841 205.988 81.5826 206.928 79.7198C207.436 78.8049 208.153 78.0228 209.02 77.4372C209.887 76.8515 210.88 76.4789 211.919 76.3495C214.006 76.1127 216.117 76.5063 217.979 77.4796C218.103 76.1607 219.749 75.626 221.074 75.6143C223.825 75.6463 226.497 76.5354 228.719 78.1578C230.941 79.7803 232.603 82.0553 233.472 84.6663C235.097 89.904 234.01 95.6454 229.463 98.71L227.98 98.5512Z" fill="#2F2E41"/>
<path d="M313.316 263H136.017C135.893 263 135.775 262.951 135.688 262.864C135.6 262.777 135.551 262.658 135.551 262.535C135.551 262.411 135.6 262.293 135.688 262.206C135.775 262.118 135.893 262.069 136.017 262.069H313.316C313.439 262.069 313.558 262.118 313.645 262.206C313.732 262.293 313.781 262.411 313.781 262.535C313.781 262.658 313.732 262.777 313.645 262.864C313.558 262.951 313.439 263 313.316 263Z" fill="#3F3D56"/>
</svg>
