<svg width="20" height="20" viewBox="0 0 20 20" fill="none" xmlns="http://www.w3.org/2000/svg">
<path d="M3.33337 5.8335V5.00016C3.33337 4.55814 3.50897 4.13421 3.82153 3.82165C4.13409 3.50909 4.55801 3.3335 5.00004 3.3335H6.66671" stroke="#1A3148" stroke-width="1.5" stroke-linecap="round" stroke-linejoin="round"/>
<path d="M3.33337 14.1665V14.9998C3.33337 15.4419 3.50897 15.8658 3.82153 16.1783C4.13409 16.4909 4.55801 16.6665 5.00004 16.6665H6.66671" stroke="#1A3148" stroke-width="1.5" stroke-linecap="round" stroke-linejoin="round"/>
<path d="M13.3334 3.3335H15C15.4421 3.3335 15.866 3.50909 16.1786 3.82165C16.4911 4.13421 16.6667 4.55814 16.6667 5.00016V5.8335" stroke="#1A3148" stroke-width="1.5" stroke-linecap="round" stroke-linejoin="round"/>
<path d="M13.3334 16.6665H15C15.4421 16.6665 15.866 16.4909 16.1786 16.1783C16.4911 15.8658 16.6667 15.4419 16.6667 14.9998V14.1665" stroke="#1A3148" stroke-width="1.5" stroke-linecap="round" stroke-linejoin="round"/>
<path d="M6 10H14" stroke="#1A3148" stroke-width="1.5" stroke-linecap="round" stroke-linejoin="round"/>
</svg>
