<svg width="33" height="33" viewBox="0 0 33 33" fill="none" xmlns="http://www.w3.org/2000/svg">
<path d="M5.5 9.625V8.25C5.5 7.52065 5.78973 6.82118 6.30546 6.30546C6.82118 5.78973 7.52065 5.5 8.25 5.5H11" stroke="white" stroke-width="2" stroke-linecap="round" stroke-linejoin="round"/>
<path d="M5.5 23.375V24.75C5.5 25.4793 5.78973 26.1788 6.30546 26.6945C6.82118 27.2103 7.52065 27.5 8.25 27.5H11" stroke="white" stroke-width="2" stroke-linecap="round" stroke-linejoin="round"/>
<path d="M22 5.5H24.75C25.4793 5.5 26.1788 5.78973 26.6945 6.30546C27.2103 6.82118 27.5 7.52065 27.5 8.25V9.625" stroke="white" stroke-width="2" stroke-linecap="round" stroke-linejoin="round"/>
<path d="M22 27.5H24.75C25.4793 27.5 26.1788 27.2103 26.6945 26.6945C27.2103 26.1788 27.5 25.4793 27.5 24.75V23.375" stroke="white" stroke-width="2" stroke-linecap="round" stroke-linejoin="round"/>
<path d="M6.875 16.5H26.125" stroke="white" stroke-width="2" stroke-linecap="round" stroke-linejoin="round"/>
</svg>
