<svg width="369" height="334" viewBox="0 0 369 334" fill="none" xmlns="http://www.w3.org/2000/svg">
<g clip-path="url(#clip0)">
<path d="M161.276 276.235H7.31118C5.3728 276.233 3.51445 275.461 2.14381 274.09C0.773167 272.719 0.00218151 270.859 0 268.92V59.8078C0.00218151 57.8685 0.773167 56.0093 2.14381 54.638C3.51445 53.2667 5.3728 52.4953 7.31118 52.4932H161.276C163.215 52.4953 165.073 53.2667 166.444 54.638C167.814 56.0093 168.585 57.8685 168.587 59.8078V268.92C168.585 270.859 167.814 272.719 166.444 274.09C165.073 275.461 163.215 276.233 161.276 276.235Z" fill="white"/>
<path d="M77.3531 106.915C77.3531 112.955 75.4435 118.839 71.8974 123.727C68.3514 128.614 63.3508 132.254 57.6113 134.126C57.4397 134.18 57.2682 134.235 57.0939 134.287C56.3505 134.516 55.5966 134.711 54.8297 134.877C53.4418 135.179 52.0331 135.374 50.6156 135.463C49.9996 135.504 49.38 135.525 48.7569 135.525C45.5375 135.528 42.3407 134.986 39.3019 133.923C39.2136 133.892 39.1252 133.86 39.0394 133.829C34.1159 132.05 29.7749 128.953 26.4894 124.876C23.2039 120.799 21.1 115.897 20.4069 110.706C19.7139 105.515 20.4582 100.233 22.5589 95.4361C24.6596 90.639 28.036 86.5109 32.3202 83.5014C36.6045 80.4919 41.6321 78.7165 46.8554 78.3688C52.0786 78.0211 57.2971 79.1143 61.9421 81.5294C66.5871 83.9445 70.4804 87.5887 73.1978 92.0651C75.9153 96.5414 77.3526 101.678 77.3531 106.915V106.915Z" fill="white"/>
<path d="M48.0717 125.871C55.7557 125.871 61.9848 119.639 61.9848 111.951C61.9848 104.263 55.7557 98.0312 48.0717 98.0312C40.3877 98.0312 34.1586 104.263 34.1586 111.951C34.1586 119.639 40.3877 125.871 48.0717 125.871Z" fill="#1A3148"/>
<path d="M48.884 119.451L48.8984 118.931C47.9312 118.904 47.0784 118.843 46.4377 118.375C46.256 118.234 46.1067 118.057 45.9998 117.853C45.893 117.65 45.8312 117.426 45.8186 117.197C45.8073 117.057 45.8285 116.916 45.8805 116.785C45.9325 116.655 46.0138 116.538 46.1183 116.444C46.3604 116.297 46.6376 116.218 46.9207 116.216C47.2037 116.213 47.4823 116.287 47.7269 116.43L48.1571 116.627L47.3322 110.596L46.8171 110.666L47.5188 115.797C47.2315 115.69 46.9222 115.657 46.619 115.701C46.3157 115.745 46.0282 115.864 45.7827 116.047C45.6175 116.191 45.4879 116.372 45.404 116.574C45.3201 116.777 45.2842 116.996 45.299 117.215C45.3142 117.523 45.3966 117.824 45.5403 118.097C45.684 118.37 45.8856 118.608 46.131 118.795C46.9543 119.397 48.0242 119.427 48.884 119.451Z" fill="#2F2E41"/>
<path d="M44.2697 111.108H41.4695V111.629H44.2697V111.108Z" fill="#2F2E41"/>
<path d="M53.1084 111.108H50.3082V111.629H53.1084V111.108Z" fill="#2F2E41"/>
<path d="M52.0245 131.41C52.0614 131.239 52.0806 131.065 52.0818 130.89C52.0807 130.235 51.8202 129.607 51.3573 129.144C50.8944 128.681 50.2668 128.42 49.6121 128.419H45.9726C45.3178 128.42 44.6899 128.68 44.2269 129.143C43.7639 129.607 43.5035 130.235 43.5029 130.89C43.5028 131.066 43.5219 131.241 43.56 131.413C42.1861 131.846 40.8875 132.489 39.71 133.319C39.4812 133.478 39.2551 133.649 39.0393 133.829C39.1251 133.86 39.2135 133.891 39.3018 133.922C42.3406 134.986 45.5374 135.528 48.7568 135.525C49.3807 135.525 50.0002 135.504 50.6155 135.462C52.0329 135.374 53.4416 135.178 54.8295 134.877C55.5965 134.71 56.3504 134.515 57.0938 134.287C55.6229 132.985 53.8962 132.005 52.0245 131.41Z" fill="#2F2E41"/>
<path d="M51.5566 135.132C51.2192 135.157 50.8945 135.271 50.6155 135.462C52.0329 135.374 53.4416 135.178 54.8295 134.877L51.5566 135.132Z" fill="#2F2E41"/>
<path d="M60.69 108.644L36.52 99.7982C36.261 99.7034 36.0503 99.5096 35.9341 99.2593C35.818 99.0091 35.8059 98.7229 35.9007 98.4638L35.9825 98.077C37.8701 92.9147 44.1266 89.6659 49.2865 91.5544L56.7241 94.2766C61.884 96.1651 64.1266 102.278 62.239 107.44L62.0238 108.025C61.929 108.284 61.7353 108.495 61.4852 108.611C61.235 108.727 60.949 108.739 60.69 108.644Z" fill="#2F2E41"/>
<path d="M61.992 109.135C28.3038 110.378 25.3602 106.144 35.6248 99.4844L37.8023 95.4756L62.759 104.579L61.992 109.135Z" fill="#2F2E41"/>
<path d="M55.3865 93.6412C55.5725 93.0222 54.7758 92.2354 53.6071 91.884C52.4384 91.5325 51.3401 91.7494 51.1541 92.3684C50.9682 92.9874 51.7648 93.7742 52.9336 94.1257C54.1023 94.4771 55.2005 94.2602 55.3865 93.6412Z" fill="#2F2E41"/>
<path d="M48.7568 136.305C45.4495 136.309 42.1655 135.752 39.0439 134.659L38.7726 134.563C32.2339 132.198 26.7453 127.591 23.2828 121.559C19.8203 115.527 18.6084 108.462 19.8626 101.62C21.1168 94.7787 24.7558 88.6038 30.1325 84.1938C35.5091 79.7839 42.2749 77.4248 49.2265 77.536C56.1782 77.6472 62.8651 80.2216 68.098 84.8013C73.3309 89.381 76.7707 95.6692 77.8056 102.548C78.8404 109.426 77.4033 116.448 73.7498 122.366C70.0963 128.284 64.4632 132.714 57.8523 134.868C57.6675 134.927 57.4936 134.982 57.3169 135.035C56.5786 135.262 55.7952 135.466 54.9948 135.64C53.5682 135.949 52.1203 136.15 50.6634 136.241C50.0375 136.284 49.3944 136.305 48.7568 136.305ZM48.7568 79.086C42.2111 79.0869 35.8754 81.3969 30.864 85.6097C25.8526 89.8224 22.4864 95.6682 21.3574 102.119C20.2284 108.569 21.409 115.212 24.6916 120.877C27.9741 126.543 33.1483 130.869 39.3041 133.095L39.5617 133.187C42.5169 134.222 45.6258 134.748 48.7568 134.745C49.3595 134.745 49.9672 134.724 50.5629 134.684C51.9425 134.598 53.3137 134.408 54.6646 134.115C55.4217 133.951 56.1619 133.758 56.8645 133.541C57.0384 133.489 57.2036 133.437 57.3688 133.384C63.6652 131.332 69.0237 127.101 72.4808 121.45C75.938 115.8 77.2671 109.101 76.2293 102.557C75.1915 96.014 71.8548 90.0557 66.8191 85.7533C61.7833 81.451 55.3788 79.0869 48.7568 79.086Z" fill="#CCCCCC"/>
<path d="M161.276 276.235H7.31118C5.3728 276.233 3.51445 275.461 2.14381 274.09C0.773167 272.719 0.00218151 270.859 0 268.92V59.8078C0.00218151 57.8685 0.773167 56.0093 2.14381 54.638C3.51445 53.2667 5.3728 52.4953 7.31118 52.4932H161.276C163.215 52.4953 165.073 53.2667 166.444 54.638C167.814 56.0093 168.585 57.8685 168.587 59.8078V268.92C168.585 270.859 167.814 272.719 166.444 274.09C165.073 275.461 163.215 276.233 161.276 276.235ZM7.31118 53.3537C5.60085 53.3556 3.96114 54.0363 2.75176 55.2462C1.54237 56.4562 0.862079 58.0967 0.86014 59.8078V268.92C0.862078 270.631 1.54235 272.272 2.75174 273.482C3.96112 274.692 5.60085 275.372 7.31118 275.374H161.276C162.987 275.372 164.626 274.692 165.836 273.482C167.045 272.272 167.725 270.631 167.727 268.92V59.8078C167.725 58.0967 167.045 56.4562 165.836 55.2462C164.626 54.0363 162.987 53.3556 161.276 53.3537H7.31118Z" fill="#CCCCCC"/>
<path d="M131.47 106.804H87.9035C86.9902 106.803 86.1146 106.439 85.4692 105.792C84.8237 105.146 84.4612 104.269 84.4612 103.355C84.4612 102.442 84.8237 101.565 85.4692 100.919C86.1146 100.272 86.9902 99.9084 87.9035 99.9072H131.47C131.923 99.9067 132.372 99.9954 132.791 100.168C133.209 100.342 133.59 100.595 133.91 100.916C134.231 101.236 134.485 101.616 134.658 102.035C134.832 102.454 134.921 102.902 134.921 103.355C134.921 103.809 134.832 104.257 134.658 104.676C134.485 105.095 134.231 105.475 133.91 105.795C133.59 106.116 133.209 106.369 132.791 106.542C132.372 106.716 131.923 106.804 131.47 106.804Z" fill="#E6E6E6"/>
<path d="M145.688 118.441H87.9035C86.9902 118.44 86.1146 118.077 85.4692 117.43C84.8237 116.783 84.4612 115.907 84.4612 114.993C84.4612 114.079 84.8237 113.203 85.4692 112.556C86.1146 111.91 86.9902 111.546 87.9035 111.545H145.688C146.601 111.546 147.477 111.91 148.122 112.556C148.767 113.203 149.13 114.079 149.13 114.993C149.13 115.907 148.767 116.783 148.122 117.43C147.477 118.077 146.601 118.44 145.688 118.441Z" fill="#E6E6E6"/>
<path d="M131.407 163.078H22.8998C22.4468 163.079 21.9981 162.99 21.5795 162.817C21.1608 162.644 20.7803 162.39 20.4598 162.07C20.1393 161.749 19.8851 161.369 19.7116 160.95C19.5381 160.532 19.4489 160.083 19.4489 159.63C19.4489 159.177 19.5381 158.728 19.7116 158.309C19.8851 157.891 20.1393 157.51 20.4598 157.19C20.7803 156.87 21.1608 156.616 21.5795 156.443C21.9981 156.27 22.4468 156.181 22.8998 156.182H131.407C132.32 156.183 133.196 156.547 133.841 157.193C134.487 157.84 134.849 158.716 134.849 159.63C134.849 160.544 134.487 161.42 133.841 162.067C133.196 162.713 132.32 163.077 131.407 163.078Z" fill="#E6E6E6"/>
<path d="M145.624 174.716H22.8998C22.4468 174.716 21.9981 174.628 21.5795 174.455C21.1608 174.282 20.7803 174.028 20.4598 173.707C20.1393 173.387 19.8851 173.007 19.7116 172.588C19.5381 172.17 19.4489 171.721 19.4489 171.268C19.4489 170.814 19.5381 170.366 19.7116 169.947C19.8851 169.528 20.1393 169.148 20.4598 168.828C20.7803 168.508 21.1608 168.254 21.5795 168.081C21.9981 167.908 22.4468 167.819 22.8998 167.819H145.624C146.077 167.819 146.526 167.908 146.945 168.081C147.363 168.254 147.744 168.508 148.064 168.828C148.385 169.148 148.639 169.528 148.813 169.947C148.986 170.366 149.075 170.814 149.075 171.268C149.075 171.721 148.986 172.17 148.813 172.588C148.639 173.007 148.385 173.387 148.064 173.707C147.744 174.028 147.363 174.282 146.945 174.455C146.526 174.628 146.077 174.716 145.624 174.716Z" fill="#E6E6E6"/>
<path d="M131.407 201.464H22.8996C21.9855 201.464 21.1089 201.101 20.4625 200.454C19.8161 199.807 19.453 198.93 19.453 198.016C19.453 197.101 19.8161 196.224 20.4625 195.577C21.1089 194.931 21.9855 194.567 22.8996 194.567H131.407C132.321 194.567 133.198 194.931 133.844 195.577C134.49 196.224 134.854 197.101 134.854 198.016C134.854 198.93 134.49 199.807 133.844 200.454C133.198 201.101 132.321 201.464 131.407 201.464Z" fill="#E6E6E6"/>
<path d="M145.624 213.102H22.8996C21.9855 213.102 21.1089 212.738 20.4625 212.092C19.8161 211.445 19.453 210.568 19.453 209.653C19.453 208.739 19.8161 207.862 20.4625 207.215C21.1089 206.568 21.9855 206.205 22.8996 206.205H145.624C146.538 206.205 147.415 206.568 148.061 207.215C148.708 207.862 149.071 208.739 149.071 209.653C149.071 210.568 148.708 211.445 148.061 212.092C147.415 212.738 146.538 213.102 145.624 213.102Z" fill="#E6E6E6"/>
<path d="M131.407 239.85H22.8996C21.9855 239.85 21.1089 239.486 20.4625 238.84C19.8161 238.193 19.453 237.316 19.453 236.401C19.453 235.487 19.8161 234.61 20.4625 233.963C21.1089 233.316 21.9855 232.953 22.8996 232.953H131.407C132.321 232.953 133.198 233.316 133.844 233.963C134.49 234.61 134.854 235.487 134.854 236.401C134.854 237.316 134.49 238.193 133.844 238.84C133.198 239.486 132.321 239.85 131.407 239.85Z" fill="#E6E6E6"/>
<path d="M145.624 251.487H22.8996C21.9855 251.487 21.1089 251.124 20.4625 250.477C19.8161 249.831 19.453 248.954 19.453 248.039C19.453 247.125 19.8161 246.247 20.4625 245.601C21.1089 244.954 21.9855 244.591 22.8996 244.591H145.624C146.538 244.591 147.415 244.954 148.061 245.601C148.708 246.247 149.071 247.125 149.071 248.039C149.071 248.954 148.708 249.831 148.061 250.477C147.415 251.124 146.538 251.487 145.624 251.487Z" fill="#E6E6E6"/>
<path d="M361.689 223.742L207.724 223.742C205.785 223.74 203.927 222.968 202.556 221.597C201.186 220.226 200.415 218.366 200.413 216.427L200.412 7.31476C200.415 5.37547 201.186 3.51623 202.556 2.14495C203.927 0.773658 205.785 0.002305 207.724 0.000121063L361.689 0C363.627 0.00218114 365.485 0.773523 366.856 2.14481C368.227 3.51609 368.998 5.37533 369 7.31462L369 216.427C368.998 218.366 368.227 220.225 366.856 221.597C365.486 222.968 363.627 223.739 361.689 223.742Z" fill="white"/>
<path d="M361.689 223.742L207.724 223.742C205.785 223.74 203.927 222.968 202.556 221.597C201.186 220.226 200.415 218.366 200.413 216.427L200.412 7.31476C200.415 5.37547 201.186 3.51623 202.556 2.14495C203.927 0.773658 205.785 0.002305 207.724 0.000121063L361.689 0C363.627 0.00218114 365.485 0.773523 366.856 2.14481C368.227 3.51609 368.998 5.37533 369 7.31462L369 216.427C368.998 218.366 368.227 220.225 366.856 221.597C365.486 222.968 363.627 223.739 361.689 223.742ZM207.724 0.860666C206.013 0.862606 204.374 1.54321 203.164 2.75317C201.955 3.96313 201.275 5.60362 201.273 7.31476L201.273 216.427C201.275 218.138 201.955 219.779 203.164 220.989C204.374 222.199 206.013 222.879 207.724 222.881L361.689 222.881C363.399 222.879 365.039 222.198 366.248 220.989C367.458 219.779 368.138 218.138 368.14 216.427L368.14 7.31463C368.138 5.60349 367.457 3.963 366.248 2.75304C365.039 1.54309 363.399 0.862482 361.689 0.860545L207.724 0.860666Z" fill="#CCCCCC"/>
<path d="M277.838 54.137C277.838 59.7954 276.161 65.3268 273.018 70.0316C269.876 74.7365 265.41 78.4034 260.185 80.5688C254.96 82.7342 249.21 83.3008 243.663 82.1969C238.116 81.093 233.02 78.3682 229.021 74.3671C225.022 70.3659 222.298 65.2682 221.195 59.7185C220.091 54.1687 220.658 48.4163 222.822 43.1886C224.986 37.9608 228.652 33.4926 233.354 30.3489C238.057 27.2053 243.586 25.5273 249.242 25.5273C256.825 25.5297 264.097 28.5447 269.459 33.9095C274.822 39.2744 277.835 46.5499 277.838 54.137Z" fill="white"/>
<path d="M262.458 59.0326C262.146 77.33 234.942 77.3271 234.632 59.032C234.944 40.7352 262.149 40.7381 262.458 59.0326Z" fill="#1A3148"/>
<path d="M247.993 64.7116L247.978 64.1914C251.562 64.6701 252.334 60.2268 248.72 61.888L249.545 55.8564L250.06 55.9271L249.358 61.0577C253.163 60.491 251.756 65.2315 247.993 64.7116Z" fill="#2F2E41"/>
<path d="M255.407 56.3691H252.607V56.8893H255.407V56.3691Z" fill="#2F2E41"/>
<path d="M246.569 56.3691H243.768V56.8893H246.569V56.3691Z" fill="#2F2E41"/>
<path d="M253.055 78.4943C253.601 74.8088 249.288 75.5371 247.006 75.5007C246.638 75.5018 246.275 75.5851 245.943 75.7444C245.611 75.9037 245.319 76.135 245.088 76.4216C244.857 76.7081 244.692 77.0426 244.607 77.4007C244.521 77.7589 244.517 78.1315 244.593 78.4917C242.827 79.038 241.191 79.9409 239.787 81.1446C245.704 83.209 252.134 83.2802 258.096 81.3474C256.643 80.0416 254.923 79.0681 253.055 78.4943Z" fill="#2F2E41"/>
<path d="M242.004 52.4484C244.582 50.9576 247.709 52.1013 250.373 52.7267C255.426 54.2808 262.512 52.3347 263.127 46.3123C263.766 40.7113 256.108 37.5897 253.66 43.1643L254.373 43.0711C246.434 31.2677 232.626 31.7154 232.716 47.9429C232.687 48.4442 233.467 48.4425 233.496 47.9426C233.204 38.38 239.529 31.8432 248.471 37.9886C250.468 39.5527 252.229 41.3972 253.699 43.4649C254.631 44.509 254.833 40.0124 259.29 41.1901C264.195 43.0914 262.595 50.1186 258.21 51.6612C252.793 54.4302 246.926 49.0615 241.61 51.7744C241.525 51.8284 241.463 51.9136 241.439 52.012C241.415 52.1104 241.431 52.2142 241.482 52.3017C241.533 52.3891 241.616 52.4533 241.713 52.4806C241.811 52.508 241.915 52.4965 242.004 52.4484Z" fill="#2F2E41"/>
<path d="M249.242 83.5272C241.857 83.521 234.746 80.7301 229.327 75.711C223.908 70.6919 220.579 63.8136 220.004 56.4478C219.429 49.082 221.651 41.7701 226.226 35.9704C230.8 30.1707 237.392 26.3094 244.687 25.1566C251.981 24.0038 259.441 25.6443 265.58 29.7508C271.719 33.8572 276.085 40.128 277.808 47.3124C279.531 54.4967 278.483 62.0668 274.874 68.5126C271.265 74.9585 265.36 79.8065 258.337 82.0898C255.4 83.0455 252.33 83.5306 249.242 83.5272ZM249.242 26.308C243.739 26.3072 238.36 27.939 233.784 30.9971C229.208 34.0552 225.642 38.4021 223.536 43.4881C221.43 48.5742 220.878 54.1708 221.952 59.5704C223.025 64.9699 225.675 69.9296 229.566 73.8224C233.457 77.7152 238.414 80.3662 243.811 81.44C249.208 82.5138 254.802 81.9623 259.886 79.8552C264.969 77.748 269.314 74.18 272.371 69.6022C275.428 65.0244 277.059 59.6426 277.058 54.1373C277.049 46.7591 274.116 39.6854 268.901 34.4682C263.687 29.251 256.616 26.3163 249.242 26.308Z" fill="#CCCCCC"/>
<path d="M331.883 54.3106L288.316 54.3106C287.402 54.3106 286.525 53.9473 285.879 53.3006C285.233 52.654 284.87 51.7769 284.87 50.8623C284.87 49.9478 285.233 49.0707 285.879 48.4241C286.525 47.7774 287.402 47.4141 288.316 47.4141L331.883 47.4141C332.797 47.4141 333.674 47.7774 334.32 48.424C334.966 49.0707 335.33 49.9478 335.33 50.8623C335.33 51.7768 334.966 52.6539 334.32 53.3006C333.674 53.9473 332.797 54.3106 331.883 54.3106Z" fill="#E6E6E6"/>
<path d="M346.1 65.9483L288.316 65.9483C287.863 65.9489 287.414 65.8601 286.996 65.6871C286.577 65.514 286.197 65.2601 285.876 64.9399C285.556 64.6196 285.301 64.2393 285.128 63.8206C284.955 63.402 284.865 62.9533 284.865 62.5001C284.865 62.0469 284.955 61.5981 285.128 61.1795C285.301 60.7608 285.556 60.3805 285.876 60.0603C286.197 59.74 286.577 59.4861 286.996 59.3131C287.414 59.14 287.863 59.0512 288.316 59.0518L346.1 59.0518C347.014 59.0518 347.891 59.4151 348.537 60.0617C349.184 60.7084 349.547 61.5855 349.547 62.5C349.547 63.4145 349.184 64.2916 348.537 64.9383C347.891 65.585 347.014 65.9483 346.1 65.9483Z" fill="#E6E6E6"/>
<path d="M331.819 110.585L223.312 110.585C222.399 110.584 221.523 110.22 220.878 109.574C220.232 108.927 219.87 108.051 219.87 107.137C219.87 106.223 220.232 105.347 220.878 104.7C221.523 104.053 222.399 103.69 223.312 103.689L331.819 103.688C332.734 103.688 333.61 104.052 334.257 104.698C334.903 105.345 335.266 106.222 335.266 107.137C335.266 108.051 334.903 108.928 334.257 109.575C333.61 110.222 332.734 110.585 331.819 110.585Z" fill="#E6E6E6"/>
<path d="M346.037 122.223L223.312 122.223C222.859 122.223 222.41 122.135 221.992 121.962C221.573 121.788 221.193 121.535 220.872 121.214C220.552 120.894 220.297 120.514 220.124 120.095C219.95 119.676 219.861 119.228 219.861 118.775C219.861 118.321 219.95 117.873 220.124 117.454C220.297 117.035 220.552 116.655 220.872 116.335C221.193 116.014 221.573 115.761 221.992 115.588C222.41 115.414 222.859 115.326 223.312 115.326L346.037 115.326C346.951 115.326 347.828 115.689 348.474 116.336C349.12 116.983 349.483 117.86 349.483 118.774C349.483 119.689 349.12 120.566 348.474 121.213C347.828 121.859 346.951 122.223 346.037 122.223Z" fill="#E6E6E6"/>
<path d="M331.82 148.971L223.312 148.971C222.399 148.97 221.523 148.606 220.878 147.959C220.232 147.313 219.87 146.436 219.87 145.523C219.87 144.609 220.232 143.732 220.878 143.086C221.523 142.439 222.399 142.075 223.312 142.074L331.82 142.074C332.734 142.074 333.61 142.438 334.257 143.084C334.903 143.731 335.266 144.608 335.266 145.522C335.266 146.437 334.903 147.314 334.257 147.961C333.61 148.607 332.734 148.971 331.82 148.971Z" fill="#E6E6E6"/>
<path d="M346.037 160.608L223.312 160.609C222.859 160.609 222.411 160.52 221.992 160.347C221.573 160.174 221.193 159.92 220.872 159.6C220.552 159.28 220.298 158.899 220.124 158.481C219.951 158.062 219.861 157.613 219.861 157.16C219.861 156.707 219.951 156.258 220.124 155.84C220.298 155.421 220.552 155.041 220.872 154.72C221.193 154.4 221.573 154.146 221.992 153.973C222.411 153.8 222.859 153.711 223.312 153.712L346.037 153.712C346.951 153.712 347.828 154.075 348.474 154.722C349.12 155.369 349.484 156.246 349.484 157.16C349.484 158.075 349.12 158.952 348.474 159.598C347.828 160.245 346.951 160.608 346.037 160.608Z" fill="#E6E6E6"/>
<path d="M331.819 187.356L223.312 187.357C222.398 187.357 221.521 186.993 220.875 186.347C220.229 185.7 219.865 184.823 219.865 183.908C219.865 182.994 220.229 182.117 220.875 181.47C221.521 180.823 222.398 180.46 223.312 180.46L331.819 180.46C332.734 180.46 333.61 180.823 334.257 181.47C334.903 182.117 335.266 182.994 335.266 183.908C335.266 184.823 334.903 185.7 334.257 186.347C333.61 186.993 332.734 187.356 331.819 187.356Z" fill="#E6E6E6"/>
<path d="M346.037 198.994L223.312 198.994C222.398 198.994 221.521 198.631 220.875 197.984C220.229 197.338 219.865 196.461 219.865 195.546C219.865 194.631 220.229 193.754 220.875 193.108C221.521 192.461 222.398 192.098 223.312 192.098L346.037 192.098C346.951 192.098 347.828 192.461 348.474 193.108C349.12 193.754 349.483 194.631 349.483 195.546C349.483 196.46 349.12 197.337 348.474 197.984C347.828 198.631 346.951 198.994 346.037 198.994Z" fill="#E6E6E6"/>
<path d="M268.794 313.668H114.829C112.89 313.666 111.032 312.895 109.661 311.523C108.291 310.152 107.52 308.293 107.517 306.354V97.2414C107.52 95.3021 108.291 93.4429 109.661 92.0716C111.032 90.7003 112.89 89.9289 114.829 89.9268H268.794C270.732 89.9289 272.59 90.7003 273.961 92.0716C275.332 93.4429 276.103 95.3021 276.105 97.2414V306.354C276.103 308.293 275.332 310.152 273.961 311.523C272.59 312.895 270.732 313.666 268.794 313.668Z" fill="white"/>
<path d="M127.67 143.761C127.665 147.527 128.405 151.256 129.848 154.734C131.291 158.212 133.408 161.369 136.077 164.024C136.301 164.246 136.529 164.467 136.761 164.682C138.154 165.985 139.675 167.145 141.3 168.144C141.612 168.337 141.924 168.521 142.243 168.701C143.887 169.627 145.618 170.388 147.411 170.971C147.721 171.073 148.035 171.169 148.35 171.257C154.052 172.893 160.12 172.723 165.721 170.768C165.83 170.729 165.939 170.69 166.046 170.651C170.962 168.862 175.294 165.757 178.57 161.675C181.845 157.594 183.938 152.691 184.622 147.502C185.305 142.312 184.553 137.035 182.446 132.243C180.34 127.452 176.96 123.331 172.675 120.328C168.389 117.325 163.363 115.556 158.142 115.213C152.921 114.87 147.707 115.966 143.066 118.383C138.425 120.799 134.535 124.443 131.82 128.918C129.106 133.393 127.67 138.527 127.67 143.761Z" fill="white"/>
<path d="M150.227 157.784C150.241 160 149.424 162.141 147.938 163.785C146.468 165.4 144.279 166.47 142.07 166.027C140.036 165.619 138.383 163.841 138.589 161.689C138.623 161.223 138.759 160.77 138.986 160.362C139.213 159.954 139.526 159.6 139.904 159.325C140.282 159.05 140.715 158.861 141.174 158.771C141.632 158.681 142.104 158.692 142.558 158.804C144.49 159.305 145.26 162.091 143.65 163.399C143.264 163.713 142.709 163.164 143.099 162.847C143.339 162.627 143.52 162.35 143.626 162.042C143.732 161.734 143.759 161.404 143.704 161.082C143.65 160.761 143.515 160.459 143.314 160.203C143.112 159.947 142.849 159.745 142.549 159.617C142.196 159.504 141.821 159.473 141.454 159.526C141.086 159.579 140.736 159.715 140.428 159.923C140.121 160.132 139.866 160.408 139.681 160.73C139.496 161.052 139.387 161.412 139.361 161.783C139.234 163.597 140.623 164.963 142.326 165.284C144.169 165.632 145.995 164.689 147.244 163.386C148.675 161.874 149.465 159.866 149.447 157.784C149.45 157.682 149.493 157.586 149.566 157.516C149.638 157.446 149.736 157.406 149.837 157.406C149.938 157.406 150.035 157.446 150.108 157.516C150.181 157.586 150.223 157.682 150.227 157.784V157.784Z" fill="#2F2E41"/>
<path d="M157.842 162.744C165.526 162.744 171.755 156.512 171.755 148.824C171.755 141.136 165.526 134.904 157.842 134.904C150.158 134.904 143.929 141.136 143.929 148.824C143.929 156.512 150.158 162.744 157.842 162.744Z" fill="#1A3148"/>
<path d="M157.13 154.763L157.116 154.243C158.083 154.216 158.936 154.156 159.577 153.687C159.758 153.547 159.908 153.369 160.015 153.166C160.121 152.963 160.183 152.739 160.196 152.509C160.207 152.369 160.186 152.229 160.134 152.098C160.082 151.967 160.001 151.851 159.896 151.757C159.654 151.61 159.377 151.531 159.094 151.528C158.811 151.526 158.532 151.6 158.287 151.742L157.857 151.94L158.682 145.908L159.197 145.979L158.496 151.109C158.783 151.003 159.092 150.97 159.395 151.013C159.699 151.057 159.986 151.176 160.232 151.359C160.397 151.504 160.527 151.684 160.61 151.887C160.694 152.09 160.73 152.309 160.715 152.528C160.7 152.836 160.618 153.137 160.474 153.41C160.33 153.683 160.129 153.921 159.883 154.107C159.06 154.709 157.99 154.739 157.13 154.763Z" fill="#2F2E41"/>
<path d="M164.545 146.422H161.745V146.942H164.545V146.422Z" fill="#2F2E41"/>
<path d="M155.706 146.422H152.906V146.942H155.706V146.422Z" fill="#2F2E41"/>
<path d="M148.35 171.257C154.052 172.893 160.12 172.722 165.721 170.768C165.83 170.729 165.939 170.69 166.046 170.651C164.726 169.632 163.233 168.86 161.639 168.372C161.752 167.973 161.75 167.549 161.634 167.15C161.476 166.644 161.16 166.203 160.731 165.892C160.302 165.581 159.785 165.416 159.255 165.423H155.866C155.337 165.416 154.82 165.58 154.392 165.891C153.965 166.201 153.649 166.642 153.492 167.147C153.376 167.547 153.374 167.972 153.487 168.372C152.083 168.803 150.756 169.453 149.556 170.3C149.314 170.469 149.08 170.646 148.854 170.83C148.683 170.968 148.514 171.111 148.35 171.257Z" fill="#2F2E41"/>
<path d="M168.742 147.348C168.742 149.694 169.896 151.639 171.396 151.977C171.549 152.011 171.705 152.029 171.861 152.029C173.58 152.029 174.981 149.93 174.981 147.348C175.02 146.016 174.595 144.713 173.78 143.66C173.526 143.352 173.214 143.099 172.862 142.913C172.553 142.752 172.21 142.667 171.861 142.666C171.382 142.672 170.918 142.828 170.533 143.113C169.475 143.862 168.742 145.478 168.742 147.348Z" fill="#3F3D56"/>
<path d="M140.925 147.348C140.925 149.366 141.778 151.088 142.974 151.746C143.301 151.929 143.67 152.027 144.045 152.029C144.128 152.029 144.212 152.024 144.295 152.014C145.896 151.824 147.165 149.805 147.165 147.348C147.165 145.379 146.351 143.691 145.202 143.002C144.854 142.786 144.454 142.67 144.045 142.666C143.696 142.667 143.353 142.752 143.044 142.913C142.691 143.1 142.378 143.354 142.124 143.662C141.311 144.715 140.887 146.017 140.925 147.348Z" fill="#3F3D56"/>
<path d="M143.168 151.297C143.23 151.297 143.291 151.282 143.346 151.254C143.401 151.225 143.449 151.184 143.485 151.134C143.521 151.084 143.545 151.026 143.554 150.964C143.563 150.903 143.558 150.84 143.538 150.782C142.793 148.564 142.568 146.205 142.883 143.887C143.197 141.569 144.041 139.355 145.35 137.416C146.659 135.478 148.397 133.867 150.429 132.71C152.461 131.553 154.732 130.88 157.067 130.743C159.401 130.607 161.735 131.011 163.888 131.924C166.041 132.837 167.954 134.235 169.479 136.008C171.004 137.781 172.1 139.882 172.682 142.148C173.264 144.413 173.315 146.783 172.833 149.072C172.812 149.173 172.831 149.278 172.888 149.365C172.944 149.451 173.033 149.512 173.134 149.533C173.235 149.555 173.34 149.535 173.427 149.479C173.514 149.422 173.574 149.334 173.596 149.233C174.103 146.826 174.049 144.335 173.438 141.953C172.827 139.57 171.675 137.361 170.071 135.497C168.468 133.633 166.456 132.163 164.192 131.203C161.929 130.243 159.475 129.818 157.021 129.962C154.566 130.105 152.178 130.813 150.042 132.03C147.905 133.247 146.078 134.94 144.702 136.978C143.327 139.017 142.439 141.345 142.109 143.782C141.779 146.219 142.015 148.7 142.799 151.031C142.825 151.109 142.875 151.176 142.941 151.223C143.007 151.271 143.087 151.297 143.168 151.297Z" fill="#3F3D56"/>
<path d="M164.832 139.805C165.062 140.182 165.158 140.627 165.104 141.066C165.049 141.504 164.847 141.912 164.53 142.22C163.775 143.064 162.571 143.118 161.525 142.961C160.351 142.785 159.106 142.235 157.918 142.606C156.906 142.922 156.183 143.841 155.131 144.071C154.198 144.276 153.082 144.005 152.755 143.01C152.598 142.532 153.351 142.327 153.507 142.803C153.719 143.447 154.633 143.434 155.156 143.255C155.995 142.97 156.641 142.275 157.466 141.943C158.449 141.638 159.501 141.641 160.482 141.951C161.415 142.161 162.489 142.473 163.418 142.08C164.106 141.79 164.653 140.875 164.158 140.199C163.861 139.794 164.538 139.404 164.832 139.805V139.805Z" fill="#2F2E41"/>
<path d="M156.266 173.15C153.515 173.153 150.777 172.768 148.134 172.007C147.823 171.919 147.497 171.82 147.169 171.712C145.327 171.113 143.549 170.331 141.861 169.38C141.544 169.203 141.227 169.015 140.891 168.808C139.222 167.781 137.66 166.59 136.228 165.252C135.992 165.032 135.758 164.805 135.529 164.579C131.026 160.088 128.102 154.256 127.195 147.959C126.288 141.663 127.448 135.242 130.5 129.661C133.553 124.081 138.332 119.642 144.122 117.011C149.911 114.381 156.397 113.701 162.606 115.073C168.815 116.446 174.411 119.797 178.553 124.623C182.695 129.449 185.161 135.49 185.579 141.837C185.996 148.185 184.344 154.497 180.87 159.825C177.396 165.153 172.288 169.209 166.312 171.384C166.205 171.424 166.094 171.463 165.983 171.503C162.86 172.597 159.575 173.154 156.266 173.15ZM156.266 115.931C150.761 115.931 145.379 117.566 140.803 120.628C136.227 123.69 132.661 128.042 130.559 133.132C128.456 138.222 127.91 143.822 128.991 149.223C130.071 154.624 132.729 159.583 136.628 163.471C136.843 163.685 137.067 163.901 137.293 164.111C138.649 165.378 140.128 166.507 141.708 167.479C142.027 167.676 142.326 167.852 142.625 168.02C144.224 168.921 145.908 169.661 147.652 170.229C147.961 170.33 148.266 170.423 148.561 170.506C154.109 172.099 160.013 171.933 165.463 170.032L165.778 169.918C171.924 167.68 177.085 163.347 180.355 157.681C183.625 152.014 184.795 145.376 183.66 138.932C182.524 132.488 179.156 126.651 174.147 122.444C169.137 118.238 162.806 115.932 156.266 115.931L156.266 115.931Z" fill="#CCCCCC"/>
<path d="M268.794 313.668H114.829C112.89 313.666 111.032 312.895 109.661 311.523C108.291 310.152 107.52 308.293 107.517 306.354V97.2414C107.52 95.3021 108.291 93.4429 109.661 92.0716C111.032 90.7003 112.89 89.9289 114.829 89.9268H268.794C270.732 89.9289 272.59 90.7003 273.961 92.0716C275.332 93.4429 276.103 95.3021 276.105 97.2414V306.354C276.103 308.293 275.332 310.152 273.961 311.523C272.59 312.895 270.732 313.666 268.794 313.668ZM114.829 90.7873C113.118 90.7892 111.479 91.4698 110.269 92.6798C109.06 93.8898 108.38 95.5302 108.378 97.2414V306.354C108.38 308.065 109.06 309.705 110.269 310.915C111.479 312.125 113.118 312.806 114.829 312.808H268.794C270.504 312.806 272.144 312.125 273.353 310.915C274.562 309.705 275.243 308.065 275.245 306.354V97.2414C275.243 95.5303 274.562 93.8898 273.353 92.6798C272.144 91.4698 270.504 90.7892 268.794 90.7873H114.829Z" fill="#3F3D56"/>
<path d="M238.988 144.237H195.421C194.507 144.237 193.63 143.874 192.984 143.227C192.338 142.581 191.974 141.704 191.974 140.789C191.974 139.875 192.338 138.997 192.984 138.351C193.63 137.704 194.507 137.341 195.421 137.341H238.988C239.902 137.341 240.779 137.704 241.425 138.351C242.071 138.997 242.434 139.875 242.434 140.789C242.434 141.704 242.071 142.581 241.425 143.227C240.779 143.874 239.902 144.237 238.988 144.237Z" fill="#1A3148"/>
<path d="M253.205 155.875H195.421C194.507 155.875 193.63 155.512 192.984 154.865C192.338 154.218 191.974 153.341 191.974 152.427C191.974 151.512 192.338 150.635 192.984 149.988C193.63 149.342 194.507 148.979 195.421 148.979H253.205C254.119 148.979 254.996 149.342 255.642 149.988C256.289 150.635 256.652 151.512 256.652 152.427C256.652 153.341 256.289 154.218 255.642 154.865C254.996 155.512 254.119 155.875 253.205 155.875Z" fill="#1A3148"/>
<path d="M238.924 200.512H130.417C129.503 200.512 128.626 200.148 127.98 199.502C127.334 198.855 126.97 197.978 126.97 197.063C126.97 196.149 127.334 195.272 127.98 194.625C128.626 193.979 129.503 193.615 130.417 193.615H238.924C239.839 193.615 240.715 193.979 241.362 194.625C242.008 195.272 242.371 196.149 242.371 197.063C242.371 197.978 242.008 198.855 241.362 199.502C240.715 200.148 239.839 200.512 238.924 200.512Z" fill="#CCCCCC"/>
<path d="M253.142 212.149H130.417C129.503 212.149 128.626 211.786 127.98 211.139C127.334 210.493 126.97 209.616 126.97 208.701C126.97 207.787 127.334 206.91 127.98 206.263C128.626 205.616 129.503 205.253 130.417 205.253H253.142C254.056 205.253 254.933 205.616 255.579 206.263C256.225 206.91 256.588 207.787 256.588 208.701C256.588 209.616 256.225 210.493 255.579 211.139C254.933 211.786 254.056 212.149 253.142 212.149Z" fill="#CCCCCC"/>
<path d="M238.924 238.898H130.417C129.504 238.896 128.628 238.533 127.983 237.886C127.337 237.239 126.975 236.363 126.975 235.449C126.975 234.535 127.337 233.659 127.983 233.012C128.628 232.366 129.504 232.002 130.417 232.001H238.924C239.839 232.001 240.715 232.364 241.362 233.011C242.008 233.658 242.371 234.535 242.371 235.449C242.371 236.364 242.008 237.241 241.362 237.888C240.715 238.534 239.839 238.898 238.924 238.898Z" fill="#CCCCCC"/>
<path d="M253.142 250.535H130.417C129.504 250.534 128.628 250.17 127.983 249.524C127.337 248.877 126.975 248.001 126.975 247.087C126.975 246.173 127.337 245.297 127.983 244.65C128.628 244.004 129.504 243.64 130.417 243.639H253.142C254.056 243.639 254.933 244.002 255.579 244.649C256.225 245.295 256.588 246.172 256.588 247.087C256.588 248.001 256.225 248.879 255.579 249.525C254.933 250.172 254.056 250.535 253.142 250.535Z" fill="#CCCCCC"/>
<path d="M238.924 277.283H130.417C129.503 277.283 128.626 276.92 127.98 276.273C127.334 275.627 126.97 274.749 126.97 273.835C126.97 272.92 127.334 272.043 127.98 271.397C128.626 270.75 129.503 270.387 130.417 270.387H238.924C239.839 270.387 240.715 270.75 241.362 271.397C242.008 272.043 242.371 272.92 242.371 273.835C242.371 274.749 242.008 275.627 241.362 276.273C240.715 276.92 239.839 277.283 238.924 277.283Z" fill="#CCCCCC"/>
<path d="M253.142 288.922H130.417C129.503 288.922 128.626 288.559 127.98 287.912C127.334 287.265 126.97 286.388 126.97 285.474C126.97 284.559 127.334 283.682 127.98 283.035C128.626 282.389 129.503 282.025 130.417 282.025H253.142C254.056 282.025 254.933 282.389 255.579 283.035C256.225 283.682 256.588 284.559 256.588 285.474C256.588 286.388 256.225 287.265 255.579 287.912C254.933 288.559 254.056 288.922 253.142 288.922Z" fill="#CCCCCC"/>
<path d="M267.007 266.052C262.545 266.047 258.125 266.922 254 268.627C249.876 270.332 246.128 272.834 242.971 275.989C239.813 279.144 237.309 282.891 235.6 287.016C233.891 291.14 233.011 295.561 233.011 300.026C233.011 304.49 233.891 308.911 235.6 313.036C237.309 317.16 239.813 320.907 242.971 324.062C246.128 327.218 249.876 329.719 254 331.425C258.124 333.13 262.544 334.005 267.007 334H267.007C276.003 333.984 284.625 330.398 290.98 324.028C297.336 317.658 300.905 309.026 300.905 300.026C300.905 291.026 297.336 282.393 290.98 276.024C284.625 269.654 276.003 266.068 267.007 266.052Z" fill="#1A3148"/>
<path d="M267 291.667V310.334" stroke="white" stroke-width="5" stroke-linecap="round" stroke-linejoin="round"/>
<path d="M257.667 301H276.333" stroke="white" stroke-width="5" stroke-linecap="round" stroke-linejoin="round"/>
</g>
<defs>
<clipPath id="clip0">
<rect width="369" height="334" fill="white"/>
</clipPath>
</defs>
</svg>
