<svg width="331" height="284" viewBox="0 0 331 284" fill="none" xmlns="http://www.w3.org/2000/svg">
<g clip-path="url(#clip0)">
<path d="M325.868 223.49L173.571 274.975C171.674 275.614 169.602 275.475 167.808 274.587C166.014 273.699 164.646 272.136 164.003 270.24L93.4571 61.4541C92.8185 59.557 92.9583 57.4839 93.8458 55.6898C94.7333 53.8956 96.2961 52.5268 98.1913 51.8838L250.488 0.398145C252.385 -0.240658 254.458 -0.100845 256.251 0.786907C258.045 1.67466 259.413 3.23785 260.056 5.13353L330.602 213.92C331.241 215.817 331.101 217.89 330.214 219.684C329.326 221.478 327.763 222.847 325.868 223.49Z" fill="#E6E6E6"/>
<path d="M321.981 219.634L174.322 269.552C173.041 269.983 171.64 269.889 170.428 269.289C169.216 268.689 168.292 267.633 167.857 266.352L98.8793 62.2057C98.4478 60.9239 98.5422 59.5231 99.1419 58.3109C99.7416 57.0986 100.797 56.1738 102.078 55.7393L249.737 5.82172C251.018 5.3901 252.419 5.48457 253.631 6.0844C254.843 6.68423 255.767 7.74044 256.201 9.02131L325.18 213.168C325.611 214.45 325.517 215.85 324.917 217.062C324.317 218.275 323.261 219.2 321.981 219.634Z" fill="white"/>
<path d="M284.861 283.388H124.101C122.1 283.386 120.181 282.59 118.766 281.174C117.351 279.759 116.555 277.84 116.553 275.838V55.4497C116.555 53.448 117.351 51.5288 118.766 50.1133C120.181 48.6979 122.1 47.9017 124.101 47.8994H284.861C286.863 47.9017 288.781 48.6979 290.196 50.1133C291.611 51.5288 292.407 53.448 292.41 55.4497V275.838C292.407 277.84 291.611 279.759 290.196 281.174C288.781 282.59 286.863 283.386 284.861 283.388Z" fill="#CCCCCC"/>
<path d="M282.413 278.491H126.549C125.197 278.489 123.9 277.951 122.944 276.995C121.988 276.038 121.45 274.742 121.449 273.389V57.8985C121.45 56.5459 121.988 55.2492 122.944 54.2928C123.9 53.3364 125.197 52.7984 126.549 52.7969H282.413C283.765 52.7984 285.062 53.3364 286.018 54.2928C286.974 55.2492 287.512 56.5459 287.513 57.8985V273.389C287.512 274.742 286.974 276.038 286.018 276.995C285.062 277.951 283.765 278.489 282.413 278.491Z" fill="white"/>
<path d="M249.209 113.924H146.265C145.397 113.924 144.566 113.58 143.952 112.966C143.339 112.353 142.995 111.521 142.995 110.654C142.995 109.786 143.339 108.954 143.952 108.341C144.566 107.727 145.397 107.383 146.265 107.383H249.209C250.076 107.383 250.908 107.727 251.521 108.341C252.134 108.954 252.479 109.786 252.479 110.654C252.479 111.521 252.134 112.353 251.521 112.966C250.908 113.58 250.076 113.924 249.209 113.924Z" fill="#CCCCCC"/>
<path d="M262.697 124.963H146.265C145.835 124.963 145.41 124.879 145.013 124.714C144.616 124.55 144.256 124.309 143.952 124.005C143.649 123.702 143.408 123.341 143.244 122.944C143.079 122.547 142.995 122.122 142.995 121.693C142.995 121.263 143.079 120.838 143.244 120.441C143.408 120.044 143.649 119.684 143.952 119.38C144.256 119.076 144.616 118.835 145.013 118.671C145.41 118.506 145.835 118.422 146.265 118.422H262.697C263.565 118.422 264.396 118.766 265.01 119.38C265.623 119.993 265.967 120.825 265.967 121.693C265.967 122.56 265.623 123.392 265.01 124.005C264.396 124.619 263.565 124.963 262.697 124.963Z" fill="#CCCCCC"/>
<path d="M249.209 163.395H146.265C145.398 163.394 144.567 163.049 143.955 162.436C143.343 161.822 142.999 160.991 142.999 160.124C142.999 159.257 143.343 158.426 143.955 157.813C144.567 157.2 145.398 156.854 146.265 156.854H249.209C250.076 156.854 250.908 157.198 251.521 157.812C252.135 158.425 252.479 159.257 252.479 160.124C252.479 160.992 252.135 161.824 251.521 162.437C250.908 163.05 250.076 163.395 249.209 163.395Z" fill="#1A3148"/>
<path d="M262.698 174.434H146.265C145.398 174.433 144.567 174.088 143.955 173.475C143.343 172.862 142.999 172.03 142.999 171.163C142.999 170.297 143.343 169.465 143.955 168.852C144.567 168.239 145.398 167.894 146.265 167.893H262.698C263.565 167.893 264.397 168.237 265.01 168.851C265.623 169.464 265.968 170.296 265.968 171.163C265.968 172.031 265.623 172.863 265.01 173.476C264.397 174.09 263.565 174.434 262.698 174.434Z" fill="#CCCCCC"/>
<path d="M249.209 212.865H146.265C145.398 212.864 144.567 212.519 143.955 211.906C143.343 211.292 142.999 210.461 142.999 209.594C142.999 208.727 143.343 207.896 143.955 207.283C144.567 206.669 145.398 206.324 146.265 206.323H249.209C250.076 206.323 250.908 206.668 251.521 207.281C252.135 207.895 252.479 208.727 252.479 209.594C252.479 210.461 252.135 211.293 251.521 211.907C250.908 212.52 250.076 212.865 249.209 212.865Z" fill="#CCCCCC"/>
<path d="M262.697 223.904H146.265C145.397 223.904 144.566 223.559 143.952 222.946C143.339 222.332 142.995 221.501 142.995 220.633C142.995 219.766 143.339 218.934 143.952 218.32C144.566 217.707 145.397 217.362 146.265 217.362H262.697C263.565 217.362 264.396 217.707 265.01 218.32C265.623 218.934 265.967 219.766 265.967 220.633C265.967 221.501 265.623 222.332 265.01 222.946C264.396 223.559 263.565 223.904 262.697 223.904Z" fill="#CCCCCC"/>
<path d="M83.4373 151.263H59.7721C59.2853 151.262 58.8186 151.069 58.4744 150.724C58.1302 150.38 57.9366 149.913 57.936 149.426V139.223C57.936 135.597 59.3761 132.119 61.9395 129.555C64.5029 126.991 67.9796 125.551 71.6047 125.551C75.2299 125.551 78.7066 126.991 81.27 129.555C83.8333 132.119 85.2734 135.597 85.2734 139.223V149.426C85.2729 149.913 85.0792 150.38 84.735 150.724C84.3908 151.069 83.9241 151.262 83.4373 151.263Z" fill="#2F2E41"/>
<path d="M119.962 204.512C119.363 204.481 118.779 204.318 118.249 204.037C117.719 203.755 117.258 203.36 116.898 202.881C116.537 202.401 116.286 201.849 116.162 201.262C116.038 200.675 116.044 200.067 116.18 199.483L103.848 191.703L110.75 188.577L121.403 196.445C122.369 196.738 123.194 197.376 123.722 198.238C124.249 199.099 124.443 200.124 124.265 201.118C124.087 202.113 123.551 203.007 122.758 203.633C121.965 204.258 120.971 204.571 119.962 204.512Z" fill="#FFB8B8"/>
<path d="M111.452 198.164C111.033 198.125 110.633 197.967 110.301 197.707L76.3747 171.403L72.0003 163.621C71.5772 162.873 71.3872 162.015 71.4547 161.158C71.5223 160.3 71.8442 159.483 72.3792 158.81C72.7495 158.342 73.2125 157.955 73.7392 157.675C74.2658 157.394 74.8447 157.225 75.4396 157.179C76.0345 157.133 76.6325 157.21 77.1961 157.406C77.7598 157.601 78.277 157.912 78.7152 158.317L116.531 188.995C116.775 189.161 116.984 189.373 117.146 189.621C117.307 189.868 117.417 190.145 117.47 190.436C117.523 190.726 117.517 191.025 117.453 191.313C117.389 191.601 117.268 191.874 117.098 192.115L113.472 197.235C113.3 197.481 113.079 197.688 112.824 197.845C112.569 198.002 112.284 198.105 111.988 198.148C111.81 198.175 111.631 198.18 111.452 198.164Z" fill="#2F2E41"/>
<path d="M31.4966 273.474L36.1337 275.351L45.5774 258.354L38.7336 255.584L31.4966 273.474Z" fill="#FFB8B8"/>
<path d="M30.9265 271.481L40.0584 275.178L40.0587 275.178C40.823 275.487 41.5188 275.944 42.1065 276.522C42.6943 277.101 43.1623 277.789 43.484 278.548C43.8058 279.308 43.9748 280.123 43.9815 280.947C43.9883 281.772 43.8325 282.59 43.5233 283.354L43.4467 283.543L28.4951 277.492L30.9265 271.481Z" fill="#2F2E41"/>
<path d="M85.5291 278.693L90.5315 278.693L92.9115 259.394L85.5283 259.394L85.5291 278.693Z" fill="#FFB8B8"/>
<path d="M84.2534 277.06L94.1046 277.06H94.105C94.9294 277.06 95.7458 277.222 96.5075 277.538C97.2692 277.853 97.9613 278.316 98.5442 278.899C99.1272 279.482 99.5896 280.174 99.9051 280.936C100.221 281.698 100.383 282.514 100.383 283.339V283.543L84.2537 283.544L84.2534 277.06Z" fill="#2F2E41"/>
<path d="M89.6505 267.783C87.6638 267.783 85.7155 266.972 84.6403 266.434C84.3616 266.296 84.1183 266.095 83.9294 265.848C83.7404 265.601 83.6109 265.314 83.5507 265.009L73.0068 211.836L45.653 263.028C45.4072 263.488 44.9938 263.837 44.4984 264.001C38.6071 265.97 35.3941 262.872 34.2858 261.449C34.0604 261.158 33.9198 260.809 33.8796 260.442C33.8394 260.076 33.9012 259.705 34.0581 259.371L46.7266 231.843L54.3867 205.693L62.1294 186.556L62.2984 186.574L88.189 189.3L91.3373 206.619L94.5079 264.284C94.5361 264.744 94.4052 265.199 94.1372 265.574C93.6303 266.284 92.9551 266.858 92.1721 267.243C91.3891 267.629 90.5227 267.814 89.6505 267.783Z" fill="#2F2E41"/>
<path d="M74.978 151.108C80.5126 151.108 84.9994 146.62 84.9994 141.084C84.9994 135.547 80.5126 131.06 74.978 131.06C69.4433 131.06 64.9565 135.547 64.9565 141.084C64.9565 146.62 69.4433 151.108 74.978 151.108Z" fill="#FFB8B8"/>
<path d="M78.4633 197.261C74.1004 197.261 68.7021 194.707 62.3624 189.633L62.2544 189.547L66.7367 154.177L66.946 154.169C73.3573 153.937 78.5747 155.566 82.8944 159.159L82.9315 159.198L86.4341 163.702L86.4357 163.784L86.9296 191.45L86.917 191.489C86.4531 192.756 85.7046 193.898 84.7294 194.829C83.7541 195.76 82.578 196.455 81.2919 196.86C80.3738 197.131 79.4207 197.266 78.4633 197.261Z" fill="#1A3148"/>
<path d="M84.9159 213.796C84.4261 213.795 83.9504 213.632 83.5621 213.333C83.1739 213.035 82.8948 212.616 82.7682 212.143L76.615 188.843L72.717 210.071C72.6146 210.634 72.2983 211.136 71.8342 211.471C71.3701 211.806 70.7943 211.949 70.2276 211.869L53.2539 209.499C52.9304 209.454 52.6208 209.338 52.3472 209.16C52.0737 208.981 51.843 208.744 51.6715 208.466C51.5001 208.188 51.3921 207.875 51.3554 207.551C51.3186 207.226 51.354 206.897 51.459 206.588L60.0449 181.275L58.1229 166.445C57.925 164.918 58.0468 163.366 58.4805 161.889C58.9143 160.411 59.6505 159.04 60.6424 157.862C61.6343 156.685 62.8603 155.726 64.2423 155.048C65.6244 154.369 67.1324 153.986 68.6706 153.922L68.8427 153.915L77.0068 173.61L78.3052 168.415L80.3373 157.232L80.6407 157.408C83.5095 159.063 85.8684 161.474 87.4597 164.379C89.051 167.283 89.8135 170.57 89.6637 173.879L89.1488 185.722L93.7102 209.904C93.8182 210.482 93.6932 211.079 93.3623 211.565C93.0314 212.05 92.5217 212.385 91.9446 212.496L85.3291 213.757C85.1929 213.783 85.0546 213.796 84.9159 213.796Z" fill="#2F2E41"/>
<path d="M88.507 140.243H74.0363L73.8879 138.165L73.146 140.243H70.9178L70.6237 136.124L69.1532 140.243H64.8418V140.039C64.845 137.172 65.9852 134.423 68.0122 132.395C70.0393 130.367 72.7876 129.227 75.6542 129.224H77.6944C80.5611 129.227 83.3094 130.367 85.3365 132.395C87.3635 134.423 88.5038 137.172 88.507 140.039V140.243Z" fill="#2F2E41"/>
<path d="M325.193 284H0.408021C0.299807 284 0.196025 283.957 0.119506 283.88C0.0429875 283.804 0 283.7 0 283.592C0 283.483 0.0429875 283.38 0.119506 283.303C0.196025 283.227 0.299807 283.184 0.408021 283.184H325.193C325.301 283.184 325.405 283.227 325.481 283.303C325.558 283.38 325.601 283.483 325.601 283.592C325.601 283.7 325.558 283.804 325.481 283.88C325.405 283.957 325.301 284 325.193 284Z" fill="#CCCCCC"/>
<path d="M78.8105 202.463C78.8099 203.118 78.9499 203.765 79.2211 204.361C79.4924 204.956 79.8885 205.487 80.3826 205.916C80.8767 206.345 81.4573 206.663 82.085 206.848C82.7128 207.034 83.373 207.082 84.0209 206.989C84.6187 208.362 85.604 209.529 86.8559 210.35C88.1078 211.17 89.5718 211.607 91.0683 211.607C92.0778 211.607 93.0774 211.408 94.01 211.021C94.9427 210.635 95.7901 210.069 96.5039 209.355C97.2177 208.641 97.7839 207.793 98.1702 206.86C98.5566 205.927 98.7554 204.927 98.7554 203.918V197.255C98.7554 195.541 97.3656 194.967 95.6513 194.967H86.4853C84.771 194.967 83.3812 195.541 83.3812 197.255V197.891C82.1694 197.893 81.0077 198.375 80.1508 199.232C79.2939 200.089 78.8119 201.251 78.8105 202.463ZM80.0571 202.463C80.0581 201.581 80.4087 200.736 81.0318 200.113C81.655 199.49 82.4999 199.139 83.3812 199.138V203.918C83.3812 204.544 83.4576 205.168 83.6088 205.776C83.5332 205.782 83.458 205.788 83.3812 205.788C82.4999 205.787 81.655 205.436 81.0318 204.813C80.4087 204.19 80.0581 203.345 80.0571 202.463H80.0571Z" fill="#1A3148"/>
<path d="M82.4916 201.364C82.2128 200.833 81.821 200.369 81.3436 200.006C80.8663 199.642 80.3152 199.388 79.729 199.261C79.1428 199.133 78.5359 199.136 77.9509 199.269C77.3659 199.402 76.8172 199.661 76.3433 200.029L64.1221 192.075L64.1687 199.654L75.7671 206.045C76.4376 206.8 77.3619 207.284 78.3647 207.403C79.3675 207.522 80.3792 207.269 81.2081 206.692C82.037 206.115 82.6255 205.254 82.8621 204.272C83.0986 203.29 82.9668 202.255 82.4916 201.364H82.4916Z" fill="#FFB8B8"/>
<path d="M69.2582 205.99C68.7713 205.99 68.3043 205.796 67.9599 205.452L52.3979 189.886C51.9007 189.392 51.5379 188.779 51.3439 188.105C51.1499 187.431 51.1311 186.719 51.2893 186.036C52.6214 180.211 55.8675 166.293 57.2379 162.866C58.2381 160.289 60.0895 158.132 62.4847 156.752L62.5459 156.722L67.4725 157.632L67.9067 172.832L61.9554 185.588L74.6097 197.537C74.9427 197.849 75.1469 198.275 75.1822 198.73C75.2176 199.186 75.0815 199.638 74.8007 199.998L70.7095 205.278C70.5498 205.484 70.3481 205.654 70.1178 205.776C69.8875 205.898 69.6338 205.97 69.3737 205.986C69.3352 205.989 69.2966 205.99 69.2582 205.99Z" fill="#2F2E41"/>
<path d="M91.0512 197.069C94.206 197.069 96.7635 196.704 96.7635 196.253C96.7635 195.802 94.206 195.437 91.0512 195.437C87.8964 195.437 85.3389 195.802 85.3389 196.253C85.3389 196.704 87.8964 197.069 91.0512 197.069Z" fill="#2F2E41"/>
</g>
<defs>
<clipPath id="clip0">
<rect width="331" height="284" fill="white"/>
</clipPath>
</defs>
</svg>
