<svg width="20" height="21" viewBox="0 0 20 21" fill="none" xmlns="http://www.w3.org/2000/svg">
<g opacity="0.8">
<path d="M2.5 5.5H4.16667H17.5" stroke="#DB0000" stroke-linecap="round" stroke-linejoin="round"/>
<path d="M6.6665 5.50008V3.83341C6.6665 3.39139 6.8421 2.96746 7.15466 2.6549C7.46722 2.34234 7.89114 2.16675 8.33317 2.16675H11.6665C12.1085 2.16675 12.5325 2.34234 12.845 2.6549C13.1576 2.96746 13.3332 3.39139 13.3332 3.83341V5.50008M15.8332 5.50008V17.1667C15.8332 17.6088 15.6576 18.0327 15.345 18.3453C15.0325 18.6578 14.6085 18.8334 14.1665 18.8334H5.83317C5.39114 18.8334 4.96722 18.6578 4.65466 18.3453C4.3421 18.0327 4.1665 17.6088 4.1665 17.1667V5.50008H15.8332Z" stroke="#DB0000" stroke-linecap="round" stroke-linejoin="round"/>
<path d="M8.3335 9.66675V14.6667" stroke="#DB0000" stroke-linecap="round" stroke-linejoin="round"/>
<path d="M11.6665 9.66675V14.6667" stroke="#DB0000" stroke-linecap="round" stroke-linejoin="round"/>
</g>
</svg>
