<svg width="33" height="33" viewBox="0 0 33 33" fill="none" xmlns="http://www.w3.org/2000/svg">
<path d="M12.375 15.125C15.4126 15.125 17.875 12.6626 17.875 9.625C17.875 6.58743 15.4126 4.125 12.375 4.125C9.33743 4.125 6.875 6.58743 6.875 9.625C6.875 12.6626 9.33743 15.125 12.375 15.125Z" stroke="white" stroke-width="2" stroke-linecap="round" stroke-linejoin="round"/>
<path d="M4.125 28.875V26.125C4.125 24.6663 4.70446 23.2674 5.73591 22.2359C6.76736 21.2045 8.16631 20.625 9.625 20.625H15.125C16.5837 20.625 17.9826 21.2045 19.0141 22.2359C20.0455 23.2674 20.625 24.6663 20.625 26.125V28.875" stroke="white" stroke-width="2" stroke-linecap="round" stroke-linejoin="round"/>
<path d="M22 15.125L24.75 17.875L30.25 12.375" stroke="white" stroke-width="2" stroke-linecap="round" stroke-linejoin="round"/>
</svg>
